<svg id="Layer_1" data-name="Layer 1" xmlns="http://www.w3.org/2000/svg" xmlns:xlink="http://www.w3.org/1999/xlink" viewBox="0 0 600 450"><defs><style>.cls-1,.cls-3,.cls-4,.cls-5,.cls-6,.cls-7{opacity:0.15;}.cls-2{fill:#a7a9ac;}.cls-3{fill:url(#linear-gradient);}.cls-4{fill:url(#linear-gradient-2);}.cls-5{fill:url(#linear-gradient-3);}.cls-6{fill:url(#linear-gradient-4);}.cls-7{fill:url(#linear-gradient-5);}.cls-8{fill:#3dba85;}.cls-9{fill:#359366;}.cls-10,.cls-21{fill:#fff;}.cls-10,.cls-30{opacity:0.5;}.cls-11{fill:#F99316;}.cls-12{fill:#c97a24;}.cls-13{fill:#bcbec0;}.cls-14{fill:#939598;}.cls-15{fill:#babfc5;}.cls-16{fill:#f13624;}.cls-17{fill:#c92820;}.cls-18{fill:#0562e8;}.cls-19,.cls-30{fill:#d1d3d4;}.cls-20{fill:#e6e7e8;}.cls-22{fill:#808285;}.cls-23,.cls-31,.cls-36,.cls-41{fill:none;}.cls-23{stroke:#6d6e71;}.cls-23,.cls-36,.cls-41{stroke-linecap:round;}.cls-23,.cls-41{stroke-linejoin:round;}.cls-23,.cls-31{stroke-width:2px;}.cls-24{fill:#414042;}.cls-25{fill:#fbb040;}.cls-26,.cls-29{opacity:0.2;}.cls-26{fill:url(#linear-gradient-6);}.cls-27{fill:#002e57;}.cls-28{fill:#fabf31;}.cls-29{fill:url(#linear-gradient-7);}.cls-31{stroke:#d1d3d4;}.cls-31,.cls-36{stroke-miterlimit:10;}.cls-32{fill:#0b4dad;}.cls-33{fill:#32875d;}.cls-34{fill:#bc6c1d;}.cls-35{fill:#b72020;}.cls-36{stroke:#bcbec0;}.cls-37{fill:#3f86ed;}.cls-38{fill:#f9b76e;}.cls-39{fill:#1976d5;}.cls-40{fill:#f1f2f2;}.cls-41{stroke:#1976d5;}</style><linearGradient id="linear-gradient" x1="97.73" y1="37.75" x2="160.31" y2="37.05" gradientUnits="userSpaceOnUse"><stop offset="0" stop-color="#d1d3d4" stop-opacity="0"/><stop offset="0.04" stop-color="#cdcfd0" stop-opacity="0.19"/><stop offset="0.09" stop-color="#c9cbcc" stop-opacity="0.38"/><stop offset="0.15" stop-color="#c5c7c9" stop-opacity="0.55"/><stop offset="0.21" stop-color="#c2c4c6" stop-opacity="0.69"/><stop offset="0.28" stop-color="#c0c2c4" stop-opacity="0.81"/><stop offset="0.36" stop-color="#bec0c2" stop-opacity="0.89"/><stop offset="0.46" stop-color="#bdbfc1" stop-opacity="0.95"/><stop offset="0.61" stop-color="#bcbec0" stop-opacity="0.99"/><stop offset="1" stop-color="#bcbec0"/></linearGradient><linearGradient id="linear-gradient-2" x1="487.3" y1="47.92" x2="549.89" y2="47.23" xlink:href="#linear-gradient"/><linearGradient id="linear-gradient-3" x1="412.32" y1="391.3" x2="474.9" y2="390.61" xlink:href="#linear-gradient"/><linearGradient id="linear-gradient-4" x1="206.06" y1="394.59" x2="296.03" y2="393.59" xlink:href="#linear-gradient"/><linearGradient id="linear-gradient-5" x1="-37.99" y1="278.27" x2="51.98" y2="277.27" xlink:href="#linear-gradient"/><linearGradient id="linear-gradient-6" x1="376.37" y1="209.5" x2="448.9" y2="209.5" gradientTransform="matrix(1, 0, 0, -1, -214.07, 418.99)" gradientUnits="userSpaceOnUse"><stop offset="0" stop-color="#d1d3d4" stop-opacity="0"/><stop offset="1" stop-color="#bcbec0"/></linearGradient><linearGradient id="linear-gradient-7" x1="128.6" y1="185.43" x2="233.78" y2="185.43" gradientTransform="matrix(1, 0, 0, -1, 248.81, 370.86)" xlink:href="#linear-gradient-6"/></defs><title>Readiness Assessment Main Illustrations</title><g class="cls-1"><path class="cls-2" d="M500.74,160.56v47A12.21,12.21,0,0,0,513,219.72h0a12.21,12.21,0,0,1,12.2,12.21v17.9A12.21,12.21,0,0,1,513,262h0a12.21,12.21,0,0,0-12.21,12.2v30.15A12.21,12.21,0,0,0,513,316.6h30.1a12.21,12.21,0,0,1,12.21,12.2v34.32a12.21,12.21,0,0,1-12.21,12.21H480.2A12.21,12.21,0,0,1,468,363.12v-8.44a12.21,12.21,0,0,0-12.2-12.21H201.64a12.21,12.21,0,0,0-12.21,12.21v15.41a12.2,12.2,0,0,1-12.2,12.2H65.43a12.2,12.2,0,0,1-12.2-12.2V332.77a12.2,12.2,0,0,1,12.2-12.2h65.06a12.21,12.21,0,0,0,12.2-12.21V279.88a12.2,12.2,0,0,0-12.2-12.2H93.4a12.21,12.21,0,0,1-12.2-12.21V220.65a12.21,12.21,0,0,1,12.2-12.21h37.09a12.2,12.2,0,0,0,12.2-12.2V147.62a12.21,12.21,0,0,0-12.2-12.21H93.4a12.2,12.2,0,0,1-12.2-12.2V88.88A12.21,12.21,0,0,1,93.4,76.67H380.78A12.21,12.21,0,0,1,393,88.88v20.39a12.2,12.2,0,0,0,12.2,12.2H452a12.21,12.21,0,0,0,12.21-12.2v-8.44a12.21,12.21,0,0,1,12.2-12.21H552a12.21,12.21,0,0,1,12.2,12.21v35.32a12.2,12.2,0,0,1-12.2,12.2H513A12.21,12.21,0,0,0,500.74,160.56Z"/></g><circle class="cls-3" cx="161.56" cy="37.04" r="27.62"/><circle class="cls-4" cx="551.13" cy="47.22" r="27.62"/><circle class="cls-5" cx="476.15" cy="390.59" r="27.62"/><circle class="cls-6" cx="297.82" cy="393.57" r="39.7"/><circle class="cls-7" cx="53.77" cy="277.25" r="39.7"/><polygon class="cls-8" points="551.13 194.38 551.13 212.96 533.11 212.96 533.11 189.1 545.85 189.1 545.84 189.1 551.13 194.39 551.13 194.38"/><polygon class="cls-9" points="545.84 194.39 545.84 189.1 545.85 189.1 551.13 194.38 551.13 194.39 545.84 194.39"/><polygon class="cls-10" points="537.88 201.03 535.4 201.03 534.16 203.18 535.4 205.32 537.88 205.32 539.12 203.18 537.88 201.03"/><polygon class="cls-10" points="539.81 201.98 538.43 201.98 537.74 203.18 538.43 204.37 539.81 204.37 540.5 203.18 539.81 201.98"/><polygon class="cls-10" points="543.5 203.18 542.81 204.37 542.12 203.18 542.81 201.98 543.5 203.18"/><polygon class="cls-10" points="544.19 201.98 542.81 201.98 542.12 203.18 542.81 204.37 544.19 204.37 544.88 203.18 544.19 201.98"/><polygon class="cls-10" points="548.08 203.18 547.38 204.37 546.69 203.18 547.38 201.98 548.08 203.18"/><polygon class="cls-10" points="548.76 201.98 547.38 201.98 546.69 203.18 547.38 204.37 548.76 204.37 549.46 203.18 548.76 201.98"/><polygon class="cls-11" points="110.96 149.64 110.96 168.22 92.94 168.22 92.94 144.36 105.68 144.36 105.67 144.36 110.96 149.65 110.96 149.64"/><polygon class="cls-12" points="105.67 149.65 105.67 144.36 105.68 144.36 110.96 149.64 110.96 149.65 105.67 149.65"/><polygon class="cls-10" points="97.71 156.29 95.23 156.29 93.99 158.43 95.23 160.58 97.71 160.58 98.95 158.43 97.71 156.29"/><polygon class="cls-10" points="99.64 157.24 98.26 157.24 97.57 158.43 98.26 159.63 99.64 159.63 100.33 158.43 99.64 157.24"/><polygon class="cls-10" points="103.33 158.44 102.64 159.63 101.95 158.44 102.64 157.24 103.33 158.44"/><polygon class="cls-10" points="104.02 157.24 102.64 157.24 101.95 158.43 102.64 159.63 104.02 159.63 104.71 158.43 104.02 157.24"/><polygon class="cls-10" points="107.91 158.44 107.22 159.63 106.53 158.44 107.22 157.24 107.91 158.44"/><polygon class="cls-10" points="108.6 157.24 107.22 157.24 106.53 158.43 107.22 159.63 108.6 159.63 109.29 158.43 108.6 157.24"/><polygon class="cls-13" points="343.6 115.2 343.34 135.43 323.71 135.18 324.04 109.19 337.91 109.37 337.91 109.38 343.59 115.21 343.6 115.2"/><polygon class="cls-14" points="337.84 115.13 337.91 109.38 337.91 109.37 343.6 115.2 343.59 115.21 337.84 115.13"/><polygon class="cls-10" points="329.07 122.25 326.37 122.22 324.99 124.54 326.31 126.9 329.01 126.93 330.39 124.61 329.07 122.25"/><polygon class="cls-10" points="331.16 123.32 329.65 123.3 328.89 124.59 329.62 125.9 331.13 125.92 331.89 124.63 331.16 123.32"/><polygon class="cls-10" points="335.17 124.67 334.4 125.97 333.66 124.65 334.43 123.36 335.17 124.67"/><polygon class="cls-10" points="335.93 123.38 334.43 123.36 333.66 124.65 334.39 125.96 335.9 125.98 336.67 124.69 335.93 123.38"/><polygon class="cls-10" points="340.14 124.74 339.38 126.03 338.64 124.72 339.41 123.42 340.14 124.74"/><polygon class="cls-10" points="340.91 123.44 339.41 123.42 338.64 124.72 339.38 126.03 340.88 126.05 341.65 124.75 340.91 123.44"/><polygon class="cls-15" points="373.45 98.6 371.21 98.6 370.5 91.46 370.97 88.58 373.68 88.58 374.16 91.46 373.45 98.6"/><polygon class="cls-15" points="371.21 106.9 373.45 106.9 374.16 114.04 373.68 116.93 370.97 116.93 370.5 114.04 371.21 106.9"/><polygon class="cls-15" points="376.48 103.87 376.48 101.63 383.62 100.92 386.5 101.4 386.5 104.11 383.62 104.58 376.48 103.87"/><polygon class="cls-15" points="368.18 101.63 368.18 103.87 361.04 104.58 358.15 104.11 358.15 101.4 361.04 100.92 368.18 101.63"/><path class="cls-16" d="M174.39,326.44a1.52,1.52,0,0,1,.64-2.05l2.65-1.39a12.3,12.3,0,0,0,16,5.19l1.25,2.39a1.52,1.52,0,0,1-.64,2,14.75,14.75,0,0,1-19.87-6.18Z"/><path class="cls-17" d="M177.68,323l9-4.75a1.52,1.52,0,0,1,2,.64l4.89,9.3a12.3,12.3,0,0,1-16-5.19Z"/><polygon class="cls-18" points="558.16 153.57 556.72 153.57 556.26 148.97 556.57 147.11 558.31 147.11 558.62 148.97 558.16 153.57"/><polygon class="cls-18" points="556.72 158.92 558.16 158.92 558.62 163.53 558.31 165.38 556.57 165.38 556.26 163.53 556.72 158.92"/><polygon class="cls-18" points="560.12 156.97 560.12 155.53 564.72 155.07 566.58 155.37 566.58 157.12 564.72 157.43 560.12 156.97"/><polygon class="cls-18" points="554.76 155.53 554.76 156.97 550.16 157.43 548.3 157.12 548.3 155.37 550.16 155.07 554.76 155.53"/><polygon class="cls-18" points="264.23 125.66 262.79 125.66 262.33 121.06 262.63 119.2 264.38 119.2 264.69 121.06 264.23 125.66"/><polygon class="cls-18" points="262.79 131.01 264.23 131.01 264.69 135.62 264.38 137.48 262.63 137.48 262.33 135.62 262.79 131.01"/><polygon class="cls-18" points="266.19 129.06 266.19 127.62 270.79 127.16 272.65 127.46 272.65 129.21 270.79 129.52 266.19 129.06"/><polygon class="cls-18" points="260.83 127.62 260.83 129.06 256.23 129.52 254.37 129.21 254.37 127.46 256.23 127.16 260.83 127.62"/><path class="cls-13" d="M212.78,149.64h203.1a13.45,13.45,0,0,1,13.45,13.45V276a14.79,14.79,0,0,1-14.79,14.79H223.09A14.79,14.79,0,0,1,208.3,276V154.12a4.48,4.48,0,0,1,4.48-4.48Z" transform="translate(637.63 440.48) rotate(-180)"/><path class="cls-19" d="M207,149.64H417a6.87,6.87,0,0,1,6.87,6.87V282.62a8.22,8.22,0,0,1-8.22,8.22H211.1a8.22,8.22,0,0,1-8.22-8.22V153.78a4.14,4.14,0,0,1,4.14-4.14Z" transform="translate(626.79 440.48) rotate(-180)"/><path class="cls-18" d="M207.38,266h212a4.51,4.51,0,0,1,4.51,4.51v20.37a0,0,0,0,1,0,0h-221a0,0,0,0,1,0,0V270.47A4.51,4.51,0,0,1,207.38,266Z" transform="translate(626.79 556.8) rotate(-180)"/><circle class="cls-20" cx="313.39" cy="278.4" r="9.08"/><path class="cls-19" d="M304.38,279.46a9.14,9.14,0,0,0,8,8,9,9,0,0,0,8.67-4.23,9.06,9.06,0,0,1-12.51-12.48A9.06,9.06,0,0,0,304.38,279.46Z"/><rect class="cls-21" x="211.62" y="158.71" width="204.9" height="107.25" transform="translate(628.13 424.68) rotate(-180)"/><polygon class="cls-19" points="282.04 316.62 344.12 316.62 337.17 290.84 288.99 290.84 282.04 316.62"/><rect class="cls-2" x="258.95" y="316.61" width="108.26" height="5.6" transform="translate(626.16 638.83) rotate(-180)"/><polygon class="cls-22" points="258.95 322.22 367.21 322.22 367.21 321.1 258.95 319.42 258.95 322.22"/><polyline class="cls-23" points="285.61 195.94 266.15 207.29 224.81 207.29"/><polyline class="cls-23" points="285.15 231.99 266.47 222.81 226.15 222.81"/><line class="cls-23" x1="280.11" y1="215" x2="223.51" y2="215"/><polyline class="cls-23" points="340.55 195.94 360.01 207.29 401.35 207.29"/><polyline class="cls-23" points="341.01 231.99 359.69 222.81 400.01 222.81"/><line class="cls-23" x1="346.05" y1="215" x2="402.65" y2="215"/><polyline class="cls-23" points="303.91 188.45 296.68 175.94 273.29 175.94"/><path class="cls-18" d="M268.31,175.94a4.07,4.07,0,1,0,4.07-4.06A4.07,4.07,0,0,0,268.31,175.94Z"/><polyline class="cls-23" points="296.68 240.15 286.98 254.9 263.54 254.9"/><path class="cls-18" d="M257.52,254.9a4.07,4.07,0,1,0,4.06-4.07A4.07,4.07,0,0,0,257.52,254.9Z"/><line class="cls-23" x1="284.37" y1="195.72" x2="263.54" y2="186.76"/><path class="cls-18" d="M257.52,185.43a4.07,4.07,0,1,0,4.06-4.07A4.07,4.07,0,0,0,257.52,185.43Z"/><line class="cls-23" x1="285.15" y1="231.99" x2="266.58" y2="241.76"/><path class="cls-18" d="M262.51,241.76a4.07,4.07,0,1,0,4.07-4.06A4.07,4.07,0,0,0,262.51,241.76Z"/><line class="cls-23" x1="312.7" y1="170.16" x2="312.7" y2="259.12"/><path class="cls-18" d="M308.63,169.67a4.07,4.07,0,1,0,4.07-4.06A4.07,4.07,0,0,0,308.63,169.67Z"/><path class="cls-18" d="M308.63,259a4.07,4.07,0,1,0,4.07-4.07A4.07,4.07,0,0,0,308.63,259Z"/><polyline class="cls-23" points="320.54 188.45 327.77 175.94 351.16 175.94"/><path class="cls-18" d="M356.14,175.94a4.07,4.07,0,1,1-4.06-4.06A4.07,4.07,0,0,1,356.14,175.94Z"/><polyline class="cls-23" points="327.77 240.15 337.47 254.9 360.91 254.9"/><path class="cls-18" d="M366.94,254.9a4.07,4.07,0,1,1-4.07-4.07A4.07,4.07,0,0,1,366.94,254.9Z"/><line class="cls-23" x1="340.08" y1="195.72" x2="360.91" y2="186.76"/><path class="cls-18" d="M366.94,185.43a4.07,4.07,0,1,1-4.07-4.07A4.07,4.07,0,0,1,366.94,185.43Z"/><line class="cls-23" x1="339.3" y1="231.99" x2="357.87" y2="241.76"/><path class="cls-18" d="M361.94,241.76a4.07,4.07,0,1,1-4.07-4.06A4.07,4.07,0,0,1,361.94,241.76Z"/><path class="cls-24" d="M275.6,212.9l-.1-.11a11.75,11.75,0,0,1-1.65-4.78,11.58,11.58,0,0,1,2.51-8.61,2.63,2.63,0,0,1,1.41-.9l-.19-.4a2.57,2.57,0,0,1-.18-1.68A13.59,13.59,0,0,1,290,185.86a13.15,13.15,0,0,1,3.3.27,2.39,2.39,0,0,1,.57.19l.44.22a2.64,2.64,0,0,1,.64-.81,15,15,0,0,1,8.11-3.53,15.21,15.21,0,0,1,9.36,2,1.41,1.41,0,0,1,.23.18c.08-.06.15-.13.23-.18a15.27,15.27,0,0,1,9.37-2,15,15,0,0,1,8.11,3.53,2.64,2.64,0,0,1,.64.81l.44-.22a2.25,2.25,0,0,1,.57-.19,13.18,13.18,0,0,1,3.3-.27A13.59,13.59,0,0,1,348,196.42a2.83,2.83,0,0,1-.21,1.74l-.16.34a2.67,2.67,0,0,1,1.41.9,11.53,11.53,0,0,1,2.5,8.61,11.69,11.69,0,0,1-1.64,4.78l-.1.11a2.65,2.65,0,0,1,.9,1.09,11.68,11.68,0,0,1-4,13.89,9.49,9.49,0,0,1,.13,3,9.36,9.36,0,0,1-1,3.25A8.5,8.5,0,0,1,339,242.7a2.57,2.57,0,0,1-.73.05,2.6,2.6,0,0,1-.8,1,9.77,9.77,0,0,1-5.9,2,9.62,9.62,0,0,1-7.32,3.41,8.23,8.23,0,0,1-1.1-.07,9.58,9.58,0,0,1-7.3-4.93,2.66,2.66,0,0,1-.28-1.68,3.42,3.42,0,0,1-.43-.21,9,9,0,0,1-2.45-2.15,8.81,8.81,0,0,1-2.44,2.15,3.42,3.42,0,0,1-.43.21,2.6,2.6,0,0,1-.29,1.68,9.57,9.57,0,0,1-7.3,4.93,8.08,8.08,0,0,1-1.09.07,9.6,9.6,0,0,1-7.32-3.41,9.71,9.71,0,0,1-5.9-2,2.62,2.62,0,0,1-.81-1,2.5,2.5,0,0,1-.72-.05,8.49,8.49,0,0,1-6.82-8.56,9.66,9.66,0,0,1-.84-6.26,11.79,11.79,0,0,1-4.82-8.17,11.64,11.64,0,0,1,.79-5.72A2.59,2.59,0,0,1,275.6,212.9Z"/><path class="cls-11" d="M314.24,232.55a10.77,10.77,0,0,0,9.69-.14c1.77-1,.2-3.67-1.57-2.7a7.69,7.69,0,0,1-8.12-.75v-7.13c2.24.74,4.35,2.13,6.93,3.26a14.39,14.39,0,0,0,12.22-.79C337.7,222,342.86,212,348.27,215a9,9,0,0,1,.61,4.44,9,9,0,0,1-5.37,7.28,7,7,0,0,1,.7,3.9,7.1,7.1,0,0,1-1.06,3c0,.09,0,.19,0,.28a5.91,5.91,0,0,1-4.71,6.31,8.21,8.21,0,0,0-1.39-4.93c2.26-2.24,2.39-5.88,1.11-8.8-.65-1.5-3.05-.62-2.39.9,1,2.37,1,5.28-1.4,6.74a1.28,1.28,0,0,0-.08,2c1.66,1.2,1.76,3.56,1.55,5.63a6.93,6.93,0,0,1-5,1.4l-.54-.09a7,7,0,0,1-12.18-.1c3.2-.87,5.5-3.57,7.42-6.42,1.12-1.68-1.59-3.24-2.7-1.58-1.63,2.43-3.48,4.79-6.39,5.12a6.3,6.3,0,0,1-2.23-2.24Z"/><path class="cls-11" d="M314.24,210.76a9.58,9.58,0,0,0,3.25.39,1.28,1.28,0,0,0-.19-2.55,7.33,7.33,0,0,1-3-.48l-.08-.05V186.42a12.51,12.51,0,0,1,14.47,1.29,17,17,0,0,0-4.15,8.27c-.34,2,2.67,2.81,3,.82.44-2.58,2.3-6.87,5-8.12a10.55,10.55,0,0,1,2.65-.22A11,11,0,0,1,345.45,197c-1.77,3.79-3.55,7.69-7.86,8.9-6.67,1.89-11.44-6-17.8-2.39a1.56,1.56,0,0,0,1.58,2.7c3.49-2,8.19,2.32,11.85,2.93a13.18,13.18,0,0,0,8-1.3c2.74-1.36,4.39-4,5.77-6.8a9,9,0,0,1,2,6.68,9.15,9.15,0,0,1-1.28,3.72c-4.72-.93-9,3.74-12.56,7.38-4.37,4.44-9.73,5.25-15.3,2.07a22.12,22.12,0,0,0-5.57-2.4Z"/><path class="cls-25" d="M347.67,211.43a9.15,9.15,0,0,0,1.28-3.72,9,9,0,0,0-2-6.68c-1.38,2.8-3,5.44-5.77,6.8a15.23,15.23,0,0,1-1.44.62,24.91,24.91,0,0,1,1.4,4.81C343.22,211.84,345.39,211,347.67,211.43Z"/><path class="cls-25" d="M327.57,196.8v0a20.82,20.82,0,0,1,10.82,8.8c3.74-1.45,5.41-5.09,7.06-8.64a11,11,0,0,0-10.22-8.53,10.55,10.55,0,0,0-2.65.22C329.87,189.93,328,194.22,327.57,196.8Z"/><path class="cls-25" d="M314.24,186.42a12.51,12.51,0,0,1,14.47,1.29,17,17,0,0,0-4.13,8.16,41.34,41.34,0,0,0-10.34-1.26Z"/><path class="cls-25" d="M343.19,233.84c0-.09,0-.19,0-.28a7.1,7.1,0,0,0,1.06-3,7,7,0,0,0-.7-3.9,9,9,0,0,0,5.37-7.28,9,9,0,0,0-.61-4.44c-2.27-1.23-4.51-.18-6.65,1.61.47,5.82-.41,13.13-3.21,22.31,0,.42.06.84.07,1.26A5.91,5.91,0,0,0,343.19,233.84Z"/><path class="cls-11" d="M311.15,232.55a10.79,10.79,0,0,1-9.7-.14c-1.77-1-.19-3.67,1.58-2.7a7.69,7.69,0,0,0,8.12-.75v-7.13c-2.24.74-4.35,2.13-6.93,3.26A14.42,14.42,0,0,1,292,224.3c-4.3-2.31-9.46-12.27-14.88-9.33a9.07,9.07,0,0,0,4.76,11.72,6.95,6.95,0,0,0,.37,6.87c0,.09,0,.19,0,.28a5.91,5.91,0,0,0,4.7,6.31,8.29,8.29,0,0,1,1.4-4.93c-2.26-2.24-2.39-5.88-1.12-8.8.66-1.5,3.06-.62,2.4.9-1,2.37-1.05,5.28,1.39,6.74a1.28,1.28,0,0,1,.08,2c-1.65,1.2-1.75,3.56-1.55,5.63a7,7,0,0,0,5,1.4l.54-.09a7,7,0,0,0,12.18-.1c-3.21-.87-5.5-3.57-7.42-6.42-1.13-1.68,1.58-3.24,2.7-1.58,1.63,2.43,3.47,4.79,6.39,5.12a6.38,6.38,0,0,0,2.23-2.24Z"/><path class="cls-11" d="M311.15,210.76a9.61,9.61,0,0,1-3.25.39,1.28,1.28,0,0,1,.19-2.55,7.28,7.28,0,0,0,3-.48l.09-.05V186.42a12.5,12.5,0,0,0-14.47,1.29,17,17,0,0,1,4.15,8.27c.34,2-2.68,2.81-3,.82-.44-2.58-2.31-6.87-5-8.12a10.63,10.63,0,0,0-2.66-.22A11,11,0,0,0,279.94,197c1.76,3.79,3.55,7.69,7.85,8.9,6.67,1.89,11.45-6,17.81-2.39a1.57,1.57,0,0,1-1.58,2.7c-3.5-2-8.19,2.32-11.85,2.93a13.18,13.18,0,0,1-8-1.3c-2.74-1.36-4.4-4-5.78-6.8a9,9,0,0,0-1.95,6.68,9.15,9.15,0,0,0,1.28,3.72c4.72-.93,9,3.74,12.55,7.38,4.37,4.44,9.74,5.25,15.31,2.07a22.12,22.12,0,0,1,5.57-2.4Z"/><path class="cls-25" d="M277.72,211.43a9.15,9.15,0,0,1-1.28-3.72,9,9,0,0,1,1.95-6.68c1.38,2.8,3,5.44,5.78,6.8a15.23,15.23,0,0,0,1.44.62,24.91,24.91,0,0,0-1.4,4.81C282.17,211.84,280,211,277.72,211.43Z"/><path class="cls-25" d="M297.82,196.8v0a20.79,20.79,0,0,0-10.82,8.8c-3.74-1.45-5.41-5.09-7.06-8.64a11,11,0,0,1,10.21-8.53,10.63,10.63,0,0,1,2.66.22C295.51,189.93,297.38,194.22,297.82,196.8Z"/><path class="cls-25" d="M311.15,186.42a12.5,12.5,0,0,0-14.47,1.29,17,17,0,0,1,4.13,8.16,41.34,41.34,0,0,1,10.34-1.26Z"/><path class="cls-25" d="M282.2,233.84c0-.09,0-.19,0-.28a6.95,6.95,0,0,1-.37-6.87A9.07,9.07,0,0,1,277.11,215c2.28-1.23,4.51-.18,6.66,1.61-.47,5.82.41,13.13,3.21,22.31,0,.42-.07.84-.08,1.26A5.91,5.91,0,0,1,282.2,233.84Z"/><rect class="cls-26" x="162.3" y="185.43" width="72.53" height="48.13" transform="translate(397.13 418.99) rotate(-180)"/><rect class="cls-18" x="166.61" y="181.18" width="72.53" height="13.2" transform="translate(405.75 375.56) rotate(-180)"/><path class="cls-21" d="M228.65,187.88a2.14,2.14,0,1,0,2.14-2.14A2.14,2.14,0,0,0,228.65,187.88Z"/><path class="cls-21" d="M220.21,187.88a2.14,2.14,0,1,0,2.14-2.14A2.14,2.14,0,0,0,220.21,187.88Z"/><path class="cls-21" d="M211.76,187.88a2.15,2.15,0,1,0,2.14-2.14A2.14,2.14,0,0,0,211.76,187.88Z"/><rect class="cls-13" x="166.61" y="194.38" width="72.53" height="35.86" transform="translate(405.75 424.62) rotate(-180)"/><rect class="cls-27" x="216.08" y="204.13" width="16.74" height="3.04" transform="translate(448.91 411.29) rotate(-180)"/><rect class="cls-21" x="193.12" y="204.13" width="18.88" height="3.04" transform="translate(405.11 411.29) rotate(-180)"/><rect class="cls-21" x="185.14" y="210.88" width="26.85" height="3.04" transform="translate(397.13 424.8) rotate(-180)"/><rect class="cls-28" x="179.36" y="204.13" width="9.66" height="3.04" transform="translate(368.38 411.29) rotate(-180)"/><rect class="cls-21" x="216.08" y="217.46" width="16.74" height="3.03" transform="translate(448.91 437.95) rotate(-180)"/><rect class="cls-28" x="196.17" y="217.46" width="15.82" height="3.03" transform="translate(408.16 437.95) rotate(-180)"/><rect class="cls-21" x="173.38" y="217.46" width="19.73" height="3.03" transform="translate(366.5 437.95) rotate(-180)"/><rect class="cls-27" x="216.08" y="210.88" width="16.74" height="3.04" transform="translate(448.91 424.8) rotate(-180)"/><rect class="cls-29" x="377.42" y="119.02" width="105.18" height="132.81" transform="translate(860.01 370.86) rotate(-180)"/><rect class="cls-13" x="382.05" y="113.48" width="105.18" height="132.81" transform="translate(869.28 359.78) rotate(-180)"/><rect class="cls-18" x="382.05" y="113.48" width="105.18" height="13.2" transform="translate(869.28 240.16) rotate(-180)"/><rect class="cls-28" x="436.81" y="135.99" width="43.7" height="3.03" transform="translate(917.33 275.02) rotate(-180)"/><rect class="cls-27" x="464.04" y="142.75" width="16.48" height="3.03" transform="translate(944.55 288.54) rotate(-180)"/><rect class="cls-21" x="434.16" y="142.75" width="25.84" height="3.03" transform="translate(894.17 288.54) rotate(-180)"/><rect class="cls-21" x="424.72" y="149.51" width="24.47" height="3.03" transform="translate(873.91 302.06) rotate(-180)"/><rect class="cls-21" x="418" y="142.75" width="12" height="3.03" transform="translate(848.01 288.54) rotate(-180)"/><rect class="cls-21" x="397.62" y="142.75" width="16.48" height="3.03" transform="translate(811.72 288.54) rotate(-180)"/><rect class="cls-27" x="452.23" y="149.51" width="28.28" height="3.03" transform="translate(932.75 302.06) rotate(-180)"/><rect class="cls-27" x="464.04" y="211.85" width="16.48" height="3.03" transform="translate(944.55 426.74) rotate(-180)"/><rect class="cls-21" x="434.16" y="211.85" width="25.84" height="3.03" transform="translate(894.17 426.74) rotate(-180)"/><rect class="cls-21" x="438.73" y="218.61" width="10.46" height="3.03" transform="translate(887.91 440.26) rotate(-180)"/><rect class="cls-21" x="418" y="211.85" width="12" height="3.03" transform="translate(848.01 426.74) rotate(-180)"/><rect class="cls-28" x="452.23" y="218.61" width="28.28" height="3.03" transform="translate(932.75 440.26) rotate(-180)"/><rect class="cls-21" x="455.35" y="160.96" width="16.47" height="3.03" transform="translate(927.18 324.95) rotate(-180)"/><rect class="cls-28" x="435.75" y="160.96" width="15.57" height="3.03" transform="translate(887.07 324.95) rotate(-180)"/><rect class="cls-21" x="426.68" y="167.72" width="13.82" height="3.03" transform="translate(867.18 338.47) rotate(-180)"/><rect class="cls-21" x="400.21" y="167.72" width="22.84" height="3.03" transform="translate(823.26 338.47) rotate(-180)"/><rect class="cls-21" x="409.32" y="160.96" width="23.42" height="3.03" transform="translate(842.06 324.95) rotate(-180)"/><rect class="cls-27" x="455.35" y="174.29" width="16.47" height="3.03" transform="translate(927.18 351.62) rotate(-180)"/><rect class="cls-21" x="435.75" y="174.29" width="15.57" height="3.03" transform="translate(887.07 351.62) rotate(-180)"/><rect class="cls-21" x="409.32" y="174.29" width="23.42" height="3.03" transform="translate(842.06 351.62) rotate(-180)"/><rect class="cls-21" x="388.93" y="160.96" width="16.48" height="3.03" transform="translate(794.34 324.95) rotate(-180)"/><rect class="cls-27" x="443.54" y="167.72" width="28.28" height="3.03" transform="translate(915.37 338.47) rotate(-180)"/><rect class="cls-27" x="455.35" y="227.3" width="16.47" height="3.03" transform="translate(927.18 457.64) rotate(-180)"/><rect class="cls-21" x="432.74" y="227.3" width="18.58" height="3.03" transform="translate(884.06 457.64) rotate(-180)"/><rect class="cls-21" x="426.68" y="234.06" width="24.64" height="3.03" transform="translate(878 471.15) rotate(-180)"/><rect class="cls-21" x="412.63" y="234.06" width="10.42" height="3.03" transform="translate(835.68 471.15) rotate(-180)"/><rect class="cls-28" x="397.92" y="227.3" width="30.79" height="3.03" transform="translate(826.63 457.64) rotate(-180)"/><rect class="cls-27" x="455.35" y="234.06" width="16.47" height="3.03" transform="translate(927.18 471.15) rotate(-180)"/><rect class="cls-21" x="426.68" y="201.83" width="13.82" height="3.03" transform="translate(867.18 406.7) rotate(-180)"/><rect class="cls-21" x="400.21" y="201.83" width="22.84" height="3.03" transform="translate(823.26 406.7) rotate(-180)"/><rect class="cls-27" x="455.35" y="194.2" width="16.47" height="3.03" transform="translate(927.18 391.43) rotate(-180)"/><rect class="cls-21" x="435.75" y="194.2" width="15.57" height="3.03" transform="translate(887.07 391.43) rotate(-180)"/><rect class="cls-28" x="409.32" y="194.2" width="23.42" height="3.03" transform="translate(842.06 391.43) rotate(-180)"/><rect class="cls-27" x="443.54" y="201.83" width="28.28" height="3.03" transform="translate(915.37 406.7) rotate(-180)"/><rect class="cls-21" x="416.25" y="184.18" width="13.83" height="3.03" transform="translate(846.32 371.39) rotate(-180)"/><path class="cls-21" d="M476.23,120.18a2.14,2.14,0,1,0,2.14-2.14A2.14,2.14,0,0,0,476.23,120.18Z"/><path class="cls-21" d="M467.78,120.18a2.15,2.15,0,1,0,2.15-2.14A2.14,2.14,0,0,0,467.78,120.18Z"/><path class="cls-21" d="M459.34,120.18a2.14,2.14,0,1,0,2.14-2.14A2.14,2.14,0,0,0,459.34,120.18Z"/><polygon class="cls-2" points="541.65 123.39 541.65 101.22 552.18 101.22 559.89 90.5 571.35 80.92 571.35 66.83 565.34 60.06 558.95 49.35 541.65 45.96 522.49 37.13 501.62 37.13 491.29 43.71 477.76 49.53 467.04 67.2 474.75 88.44 492.42 88.44 494.53 97.04 502.75 101.97 519.2 102.72 541.65 123.39"/><polygon class="cls-20" points="538.98 119.57 538.98 97.39 549.51 97.39 557.21 86.68 568.68 77.09 568.68 63 562.66 56.23 556.27 45.52 538.98 42.13 519.81 33.3 498.95 33.3 488.62 39.88 475.08 45.71 464.37 63.37 472.08 84.61 489.74 84.61 491.86 93.21 500.08 98.14 516.52 98.89 538.98 119.57"/><polygon class="cls-20" points="538.98 119.57 538.98 97.39 549.51 97.39 557.21 86.68 568.68 77.09 568.68 63 562.66 56.23 556.27 45.52 538.98 42.13 519.81 33.3 498.95 33.3 488.62 39.88 475.08 45.71 464.37 63.37 472.08 84.61 489.74 84.61 491.86 93.21 500.08 98.14 516.52 98.89 538.98 119.57"/><path class="cls-18" d="M534.93,76.49h-6.27c-.62-1.75-1.26-3.5-1.87-5.26a1,1,0,0,0-.69-.68c-1.48-.57-2.94-1.19-4.39-1.83a.88.88,0,0,0-.86,0c-1.56.76-3.14,1.49-4.69,2.25a.62.62,0,0,1-.86-.15c-1.19-1.21-2.38-2.42-3.6-3.59a.74.74,0,0,1-.19-1c.77-1.53,1.5-3.08,2.21-4.64a1.16,1.16,0,0,0,0-.78c-.61-1.51-1.23-3-1.88-4.51a1.09,1.09,0,0,0-.55-.57c-1.62-.61-3.25-1.2-4.9-1.75a.59.59,0,0,1-.48-.66q0-2.64,0-5.28a.57.57,0,0,1,.47-.66c1.61-.55,3.19-1.15,4.79-1.69a1.07,1.07,0,0,0,.73-.74c.56-1.46,1.17-2.9,1.81-4.33a1,1,0,0,0,0-.92c-.76-1.54-1.47-3.1-2.23-4.63a.67.67,0,0,1,.15-.92q1.85-1.76,3.6-3.59a.72.72,0,0,1,1-.15c1.52.75,3.06,1.45,4.58,2.19a.88.88,0,0,0,.86,0c1.47-.64,3-1.23,4.44-1.88a1.15,1.15,0,0,0,.61-.58c.66-1.76,1.28-3.54,1.91-5.32h6.27c.62,1.76,1.25,3.51,1.86,5.26a1,1,0,0,0,.7.69c1.48.57,2.93,1.22,4.4,1.81a1.22,1.22,0,0,0,.84,0c1.58-.71,3.15-1.46,4.71-2.23a.64.64,0,0,1,.86.16c1.19,1.23,2.41,2.45,3.64,3.64a.66.66,0,0,1,.16.91q-1.15,2.34-2.23,4.7a1.08,1.08,0,0,0,0,.79q.9,2.27,1.87,4.5a1.09,1.09,0,0,0,.55.57c1.62.61,3.26,1.2,4.9,1.75a.59.59,0,0,1,.48.66q0,2.64,0,5.28a.58.58,0,0,1-.48.66c-1.62.55-3.23,1.15-4.85,1.71a1,1,0,0,0-.64.66c-.58,1.5-1.24,3-1.83,4.46a1.06,1.06,0,0,0,0,.78q1.08,2.37,2.23,4.71a.66.66,0,0,1-.16.91c-1.23,1.19-2.45,2.41-3.64,3.64a.62.62,0,0,1-.86.15c-1.56-.76-3.14-1.48-4.7-2.25a.89.89,0,0,0-.85,0c-1.47.65-3,1.24-4.44,1.88a1.21,1.21,0,0,0-.61.59C536.18,72.94,535.56,74.71,534.93,76.49Zm7.19-25.87A10.33,10.33,0,1,0,531.79,61,10.29,10.29,0,0,0,542.12,50.62Z"/><path class="cls-13" d="M498.9,53.36h-2c-.2-.55-.4-1.1-.59-1.66a.34.34,0,0,0-.22-.22c-.47-.17-.93-.37-1.39-.57a.26.26,0,0,0-.27,0l-1.48.71a.2.2,0,0,1-.27,0c-.37-.38-.75-.76-1.14-1.13a.23.23,0,0,1-.05-.32c.24-.49.47-1,.69-1.47a.33.33,0,0,0,0-.24c-.19-.48-.38-.95-.59-1.43a.37.37,0,0,0-.17-.18l-1.55-.55a.19.19,0,0,1-.15-.21c0-.55,0-1.11,0-1.66a.19.19,0,0,1,.15-.21l1.51-.53a.35.35,0,0,0,.23-.24c.18-.46.37-.91.57-1.36a.28.28,0,0,0,0-.29c-.24-.49-.46-1-.7-1.46a.21.21,0,0,1,.05-.29c.38-.37.76-.75,1.13-1.14a.23.23,0,0,1,.32,0c.48.23,1,.45,1.45.69a.26.26,0,0,0,.27,0l1.4-.59a.34.34,0,0,0,.19-.18c.21-.56.41-1.12.61-1.68h2c.2.55.4,1.1.59,1.66a.34.34,0,0,0,.22.22c.47.17.93.38,1.39.56a.32.32,0,0,0,.27,0c.49-.22,1-.46,1.48-.7a.19.19,0,0,1,.27.05L504.27,40a.2.2,0,0,1,.05.28c-.24.5-.48,1-.7,1.49a.39.39,0,0,0,0,.24c.2.48.39,1,.6,1.43a.37.37,0,0,0,.17.18l1.55.55a.19.19,0,0,1,.15.21c0,.55,0,1.11,0,1.66a.19.19,0,0,1-.15.21c-.52.17-1,.36-1.53.54a.34.34,0,0,0-.21.21c-.18.47-.39.93-.58,1.4a.43.43,0,0,0,0,.25c.22.5.46,1,.7,1.49a.2.2,0,0,1-.05.28l-1.15,1.15a.19.19,0,0,1-.27,0l-1.48-.71a.26.26,0,0,0-.27,0l-1.4.59a.34.34,0,0,0-.19.18C499.3,52.24,499.1,52.8,498.9,53.36Zm2.27-8.16a3.26,3.26,0,1,0-3.26,3.26A3.25,3.25,0,0,0,501.17,45.2Z"/><path class="cls-8" d="M482.09,69.55h-2.55c-.26-.71-.52-1.43-.77-2.14a.4.4,0,0,0-.28-.28c-.6-.23-1.2-.49-1.79-.75a.39.39,0,0,0-.35,0l-1.91.92a.25.25,0,0,1-.35-.06q-.72-.75-1.47-1.47a.29.29,0,0,1-.07-.41c.31-.63.6-1.26.89-1.9a.42.42,0,0,0,0-.31c-.24-.62-.5-1.23-.76-1.84a.47.47,0,0,0-.22-.24l-2-.71a.24.24,0,0,1-.2-.27c0-.71,0-1.43,0-2.15a.24.24,0,0,1,.2-.27c.65-.22,1.29-.46,1.95-.69a.43.43,0,0,0,.3-.3c.22-.59.47-1.18.73-1.76a.39.39,0,0,0,0-.38c-.31-.62-.59-1.26-.9-1.89a.26.26,0,0,1,.06-.37q.75-.72,1.47-1.47a.3.3,0,0,1,.41-.06c.62.31,1.25.59,1.87.9a.36.36,0,0,0,.35,0c.6-.26,1.21-.5,1.81-.77a.51.51,0,0,0,.25-.23c.27-.72.52-1.45.78-2.17h2.55c.26.71.51,1.43.76,2.14a.41.41,0,0,0,.29.28c.6.23,1.19.5,1.79.74a.5.5,0,0,0,.34,0c.65-.29,1.29-.6,1.92-.91a.26.26,0,0,1,.35.06c.49.51,1,1,1.49,1.49a.27.27,0,0,1,.06.37c-.31.63-.61,1.27-.91,1.92a.5.5,0,0,0,0,.32c.25.61.5,1.23.77,1.83a.47.47,0,0,0,.22.24c.66.25,1.33.48,2,.71a.24.24,0,0,1,.19.27c0,.72,0,1.43,0,2.15a.24.24,0,0,1-.19.27c-.66.22-1.32.47-2,.7a.39.39,0,0,0-.26.27c-.24.61-.5,1.21-.75,1.81a.5.5,0,0,0,0,.32c.3.65.6,1.29.91,1.92a.27.27,0,0,1-.06.37c-.51.49-1,1-1.49,1.49a.26.26,0,0,1-.35.06l-1.91-.92a.36.36,0,0,0-.35,0c-.6.26-1.21.5-1.81.77a.51.51,0,0,0-.25.23C482.6,68.1,482.35,68.83,482.09,69.55ZM485,59a4.21,4.21,0,1,0-4.21,4.22A4.21,4.21,0,0,0,485,59Z"/><path class="cls-8" d="M501.66,84.88h-3c-.31-.86-.61-1.71-.91-2.56a.49.49,0,0,0-.34-.34c-.72-.27-1.43-.57-2.13-.88a.42.42,0,0,0-.42,0l-2.28,1.1a.31.31,0,0,1-.42-.08c-.57-.59-1.15-1.17-1.75-1.74a.36.36,0,0,1-.09-.5c.37-.74.73-1.5,1.07-2.25a.5.5,0,0,0,0-.38c-.29-.74-.59-1.47-.91-2.2a.53.53,0,0,0-.26-.27c-.79-.3-1.59-.58-2.39-.86a.27.27,0,0,1-.23-.31c0-.86,0-1.71,0-2.57a.28.28,0,0,1,.23-.32c.78-.27,1.55-.56,2.33-.82a.53.53,0,0,0,.35-.36c.27-.71.57-1.41.88-2.11a.43.43,0,0,0,0-.44c-.36-.75-.71-1.51-1.08-2.26a.31.31,0,0,1,.08-.44c.59-.57,1.17-1.15,1.75-1.75a.35.35,0,0,1,.49-.07c.74.36,1.49.7,2.23,1.07a.46.46,0,0,0,.41,0c.72-.32,1.45-.6,2.16-.92a.55.55,0,0,0,.3-.28c.32-.86.62-1.72.93-2.59h3c.31.86.62,1.71.91,2.56a.49.49,0,0,0,.34.34c.72.27,1.42.59,2.14.87a.58.58,0,0,0,.41,0c.77-.35,1.53-.72,2.29-1.09a.3.3,0,0,1,.41.08q.87.9,1.77,1.77a.32.32,0,0,1,.08.44c-.37.76-.73,1.52-1.08,2.29a.55.55,0,0,0,0,.38c.29.73.6,1.46.91,2.19a.61.61,0,0,0,.27.28c.79.29,1.58.58,2.38.85a.27.27,0,0,1,.23.32c0,.85,0,1.71,0,2.56a.27.27,0,0,1-.23.32c-.79.27-1.57.56-2.36.84a.45.45,0,0,0-.31.32c-.28.72-.6,1.44-.89,2.16a.55.55,0,0,0,0,.38c.35.77.71,1.53,1.08,2.29a.32.32,0,0,1-.08.44q-.9.87-1.77,1.77a.3.3,0,0,1-.41.08l-2.29-1.1a.46.46,0,0,0-.41,0c-.72.32-1.45.6-2.16.92a.59.59,0,0,0-.3.28C502.27,83.15,502,84,501.66,84.88Zm3.5-12.58a5,5,0,1,0-5,5A5,5,0,0,0,505.16,72.3Z"/><path class="cls-13" d="M521.2,88.66h-1.46c-.14-.41-.29-.82-.43-1.22a.22.22,0,0,0-.16-.16c-.34-.13-.68-.28-1-.43a.2.2,0,0,0-.2,0l-1.09.52a.15.15,0,0,1-.2,0c-.27-.28-.55-.56-.83-.83a.16.16,0,0,1,0-.23l.51-1.08a.28.28,0,0,0,0-.18c-.14-.35-.28-.7-.43-1.05a.33.33,0,0,0-.13-.13c-.38-.14-.75-.28-1.14-.41-.08,0-.11-.06-.11-.15,0-.41,0-.82,0-1.22a.14.14,0,0,1,.11-.16c.37-.12.74-.26,1.11-.39a.24.24,0,0,0,.17-.17c.13-.34.27-.67.42-1a.24.24,0,0,0,0-.22c-.18-.35-.34-.72-.52-1.07a.15.15,0,0,1,0-.21c.28-.28.56-.55.83-.84a.17.17,0,0,1,.24,0c.35.17.71.33,1.06.51a.23.23,0,0,0,.2,0l1-.43a.27.27,0,0,0,.14-.14c.15-.41.3-.82.44-1.23h1.46c.14.41.29.81.43,1.22a.25.25,0,0,0,.16.16c.34.13.68.28,1,.42a.28.28,0,0,0,.2,0L524.1,78a.14.14,0,0,1,.2,0c.27.29.55.57.84.85a.16.16,0,0,1,0,.21c-.18.36-.35.72-.52,1.09a.28.28,0,0,0,0,.18c.14.35.28.7.43,1a.3.3,0,0,0,.13.14l1.14.4a.14.14,0,0,1,.11.16c0,.4,0,.81,0,1.22,0,.09,0,.12-.11.15l-1.13.4a.23.23,0,0,0-.15.15c-.13.35-.28.69-.42,1a.28.28,0,0,0,0,.18c.17.36.34.73.52,1.09a.16.16,0,0,1,0,.21l-.84.84a.15.15,0,0,1-.2,0L523,86.85a.2.2,0,0,0-.2,0l-1,.44a.26.26,0,0,0-.14.13C521.49,87.83,521.34,88.24,521.2,88.66Zm1.66-6a2.4,2.4,0,1,0-2.39,2.39A2.39,2.39,0,0,0,522.86,82.66Z"/><path class="cls-22" d="M478.75,81.41h-1.11c-.11-.31-.23-.62-.34-.94a.18.18,0,0,0-.12-.12L476.4,80a.15.15,0,0,0-.16,0l-.83.4a.12.12,0,0,1-.16,0c-.21-.22-.42-.44-.64-.65a.13.13,0,0,1,0-.18c.14-.27.27-.55.39-.82a.17.17,0,0,0,0-.14c-.11-.27-.22-.54-.34-.81a.18.18,0,0,0-.09-.1l-.88-.31c-.06,0-.08,0-.08-.12v-.94c0-.07,0-.1.08-.12.29-.09.57-.2.86-.3a.19.19,0,0,0,.13-.13c.1-.26.2-.52.32-.77a.2.2,0,0,0,0-.17l-.39-.82a.11.11,0,0,1,0-.16c.22-.21.44-.43.65-.65.06-.06.1-.06.18,0l.81.39a.18.18,0,0,0,.16,0l.79-.34a.27.27,0,0,0,.11-.1c.11-.32.22-.63.34-1h1.11c.12.31.23.62.34.94a.18.18,0,0,0,.12.12l.79.32a.25.25,0,0,0,.15,0l.83-.4c.07,0,.11,0,.16,0l.65.64a.14.14,0,0,1,0,.17c-.14.27-.27.55-.4.84a.19.19,0,0,0,0,.13c.11.27.22.54.34.81a.22.22,0,0,0,.09.1l.88.31c.06,0,.08.05.08.12v.94c0,.07,0,.1-.08.12l-.87.3a.17.17,0,0,0-.11.12c-.1.27-.22.53-.33.8a.19.19,0,0,0,0,.13c.13.29.26.57.4.84a.14.14,0,0,1,0,.17c-.22.21-.44.43-.65.65-.05,0-.09,0-.16,0l-.83-.4a.14.14,0,0,0-.15,0l-.8.33a.27.27,0,0,0-.11.1C479,80.78,478.87,81.09,478.75,81.41ZM480,76.8a1.85,1.85,0,1,0-1.85,1.84A1.84,1.84,0,0,0,480,76.8Z"/><rect class="cls-11" x="542.12" y="75.45" width="27.8" height="2.48" rx="1.24"/><rect class="cls-2" x="536.07" y="81.41" width="17.26" height="2.48" rx="1.24"/><rect class="cls-2" x="556.02" y="81.41" width="17.26" height="2.48" rx="1.24"/><rect class="cls-8" x="531.79" y="87.78" width="27.8" height="2.48" rx="1.24"/><rect class="cls-2" x="479.13" y="382.13" width="46.64" height="16.77" rx="6.86"/><rect class="cls-2" x="487.06" y="370.54" width="31.86" height="11.58"/><path class="cls-2" d="M530.86,336.8c0,9.44-2.83,16.17-8.85,22.16s-6.29,11.59-6.29,11.59H489.2s-.32-5.61-6.3-11.59-8.85-12.72-8.85-22.16,8.32-26,28.39-26S530.86,327.36,530.86,336.8Z"/><rect class="cls-20" x="476.15" y="380.13" width="46.64" height="16.77" rx="6.86"/><rect class="cls-18" x="484.08" y="368.54" width="31.86" height="11.58"/><path class="cls-20" d="M527.88,334.8c0,9.44-2.84,16.17-8.85,22.16s-6.3,11.59-6.3,11.59H486.21s-.31-5.61-6.29-11.59-8.85-12.72-8.85-22.16,8.32-26,28.39-26S527.88,325.36,527.88,334.8Z"/><circle class="cls-30" cx="499.47" cy="338.27" r="22.71"/><rect class="cls-14" x="476.15" y="386.99" width="46.64" height="3.05"/><path class="cls-31" d="M476.15,388.51h-14a6.83,6.83,0,0,1-6.83-6.83v-.51a6.83,6.83,0,0,1,6.83-6.83H540a6.84,6.84,0,0,0,6.84-6.84v-.05a6.84,6.84,0,0,0-6.84-6.84H515.27"/><polygon class="cls-13" points="512.73 368.55 486.2 368.55 485.86 366.64 513.1 366.64 512.73 368.55"/><path class="cls-11" d="M501.83,357.68h-4.7c-.47-1.32-.94-2.63-1.4-3.95a.78.78,0,0,0-.52-.51c-1.11-.43-2.21-.9-3.3-1.38a.66.66,0,0,0-.64,0c-1.17.58-2.35,1.12-3.52,1.69a.48.48,0,0,1-.65-.11q-1.32-1.36-2.7-2.7a.54.54,0,0,1-.14-.76c.58-1.15,1.13-2.31,1.66-3.48a.86.86,0,0,0,0-.59c-.45-1.13-.92-2.26-1.41-3.38a.84.84,0,0,0-.4-.43c-1.22-.46-2.45-.89-3.68-1.31a.43.43,0,0,1-.36-.5q0-2,0-4a.43.43,0,0,1,.35-.49c1.2-.41,2.39-.86,3.59-1.27a.78.78,0,0,0,.55-.55c.42-1.1.88-2.18,1.36-3.26a.69.69,0,0,0,0-.68c-.57-1.16-1.1-2.33-1.67-3.48a.49.49,0,0,1,.11-.68q1.38-1.33,2.7-2.7a.56.56,0,0,1,.77-.12c1.13.57,2.29,1.09,3.43,1.65a.68.68,0,0,0,.65,0c1.1-.49,2.22-.93,3.33-1.41a.94.94,0,0,0,.46-.44c.49-1.32.95-2.65,1.43-4h4.7c.47,1.32.94,2.63,1.4,3.95a.78.78,0,0,0,.52.51c1.11.43,2.2.92,3.31,1.36a.91.91,0,0,0,.63,0c1.18-.54,2.36-1.1,3.53-1.67a.45.45,0,0,1,.64.11c.9.92,1.81,1.84,2.73,2.73a.49.49,0,0,1,.12.69c-.57,1.16-1.13,2.34-1.67,3.53a.83.83,0,0,0,0,.58c.45,1.14.92,2.26,1.41,3.38a.79.79,0,0,0,.41.43c1.22.46,2.44.9,3.68,1.31a.44.44,0,0,1,.35.5q0,2,0,4a.44.44,0,0,1-.35.5c-1.22.41-2.43.86-3.64,1.28a.75.75,0,0,0-.49.49c-.43,1.13-.92,2.23-1.37,3.35a.83.83,0,0,0,0,.58c.54,1.19,1.1,2.37,1.67,3.53a.49.49,0,0,1-.12.69q-1.38,1.33-2.73,2.73a.46.46,0,0,1-.64.12c-1.17-.58-2.36-1.12-3.52-1.7a.71.71,0,0,0-.65,0c-1.1.49-2.22.93-3.33,1.41a.94.94,0,0,0-.46.44C502.77,355,502.31,356.34,501.83,357.68Zm5.4-19.42a7.75,7.75,0,1,0-7.76,7.76A7.73,7.73,0,0,0,507.23,338.26Z"/><path class="cls-18" d="M532.48,343.9h-3.24c-.32-.91-.65-1.81-1-2.72a.56.56,0,0,0-.36-.36c-.77-.29-1.52-.61-2.27-.94a.48.48,0,0,0-.45,0c-.8.4-1.62.77-2.43,1.17a.32.32,0,0,1-.44-.08q-.92-.94-1.86-1.86a.37.37,0,0,1-.1-.52c.4-.79.78-1.6,1.14-2.4a.58.58,0,0,0,0-.41c-.31-.78-.63-1.56-1-2.33a.59.59,0,0,0-.28-.3c-.84-.31-1.69-.61-2.53-.9-.19-.06-.26-.14-.25-.34q0-1.36,0-2.73a.29.29,0,0,1,.24-.34l2.48-.88a.53.53,0,0,0,.37-.38c.29-.75.61-1.5.94-2.24a.49.49,0,0,0,0-.47c-.39-.8-.76-1.61-1.15-2.4a.35.35,0,0,1,.08-.47q.94-.92,1.86-1.86a.37.37,0,0,1,.53-.08c.78.39,1.58.75,2.37,1.14a.46.46,0,0,0,.44,0c.76-.34,1.54-.64,2.3-1a.54.54,0,0,0,.31-.3c.35-.91.66-1.83,1-2.75h3.24c.32.91.65,1.82,1,2.72a.52.52,0,0,0,.36.36c.76.29,1.51.63,2.27.93a.67.67,0,0,0,.44,0c.82-.37,1.63-.76,2.43-1.16a.33.33,0,0,1,.45.08c.61.64,1.24,1.27,1.88,1.89a.34.34,0,0,1,.08.47c-.39.8-.78,1.61-1.15,2.43a.55.55,0,0,0,0,.4c.31.79.64,1.56,1,2.34a.58.58,0,0,0,.29.29c.84.32,1.68.62,2.53.91a.3.3,0,0,1,.25.34q0,1.36,0,2.73a.31.31,0,0,1-.25.34c-.84.28-1.67.59-2.51.88a.49.49,0,0,0-.33.34c-.3.78-.64,1.54-.95,2.31a.55.55,0,0,0,0,.4c.37.82.76,1.63,1.15,2.44a.34.34,0,0,1-.08.47c-.64.61-1.27,1.24-1.88,1.88a.33.33,0,0,1-.45.08l-2.43-1.17a.46.46,0,0,0-.44,0l-2.29,1a.63.63,0,0,0-.32.3C533.13,342.06,532.81,343,532.48,343.9Zm3.72-13.38a5.34,5.34,0,1,0-5.34,5.34A5.32,5.32,0,0,0,536.2,330.52Z"/><path class="cls-8" d="M525.92,359.36h-1.83l-.54-1.53a.29.29,0,0,0-.2-.2l-1.28-.53a.25.25,0,0,0-.25,0l-1.37.65a.18.18,0,0,1-.25,0l-1-1.05a.21.21,0,0,1-.06-.29c.23-.45.44-.9.64-1.35a.36.36,0,0,0,0-.23c-.18-.44-.36-.88-.55-1.31a.3.3,0,0,0-.16-.17c-.47-.18-.95-.35-1.42-.51a.16.16,0,0,1-.14-.19v-1.54a.17.17,0,0,1,.13-.19l1.4-.49a.31.31,0,0,0,.21-.22c.16-.42.34-.84.53-1.26a.27.27,0,0,0,0-.26c-.22-.45-.42-.91-.64-1.35a.19.19,0,0,1,0-.27q.54-.51,1.05-1a.21.21,0,0,1,.29,0l1.34.64a.25.25,0,0,0,.25,0l1.29-.55a.37.37,0,0,0,.18-.17c.19-.51.37-1,.55-1.55h1.83l.54,1.53a.29.29,0,0,0,.2.2l1.28.53a.31.31,0,0,0,.25,0c.46-.2.91-.42,1.37-.64a.19.19,0,0,1,.25,0c.35.36.7.71,1.06,1.06a.19.19,0,0,1,0,.27c-.22.45-.44.91-.64,1.37a.33.33,0,0,0,0,.22c.18.44.36.88.55,1.31a.3.3,0,0,0,.16.17c.47.18.95.35,1.43.51a.17.17,0,0,1,.13.19v1.54a.17.17,0,0,1-.13.19l-1.42.5a.27.27,0,0,0-.18.19c-.17.44-.36.86-.54,1.3a.33.33,0,0,0,0,.22c.2.46.42.92.64,1.37a.19.19,0,0,1,0,.27l-1.06,1.06a.18.18,0,0,1-.25,0l-1.37-.65a.25.25,0,0,0-.25,0l-1.29.55a.37.37,0,0,0-.18.17C526.28,358.32,526.1,358.84,525.92,359.36Zm2.09-7.53a3,3,0,1,0-3,3A3,3,0,0,0,528,351.83Z"/><circle class="cls-13" cx="157.69" cy="23.76" r="6.39"/><circle class="cls-20" cx="157.69" cy="23.76" r="5.43"/><circle class="cls-32" cx="157.69" cy="23.76" r="3.87"/><circle class="cls-18" cx="157.69" cy="23.76" r="2.48"/><circle class="cls-13" cx="157.69" cy="51.09" r="6.39"/><circle class="cls-20" cx="157.69" cy="51.09" r="5.43"/><circle class="cls-32" cx="157.69" cy="51.09" r="3.87"/><circle class="cls-18" cx="157.69" cy="51.09" r="2.48"/><circle class="cls-13" cx="157.69" cy="78.42" r="6.39"/><circle class="cls-20" cx="157.69" cy="78.42" r="5.43"/><circle class="cls-33" cx="157.69" cy="78.42" r="3.87"/><circle class="cls-8" cx="157.69" cy="78.42" r="2.48"/><circle class="cls-13" cx="231.17" cy="51.09" r="6.39"/><circle class="cls-20" cx="231.17" cy="51.09" r="5.43"/><circle class="cls-32" cx="231.17" cy="51.09" r="3.87"/><circle class="cls-18" cx="231.17" cy="51.09" r="2.48"/><circle class="cls-13" cx="231.17" cy="78.42" r="6.39"/><circle class="cls-20" cx="231.17" cy="78.42" r="5.43"/><circle class="cls-32" cx="231.17" cy="78.42" r="3.87"/><circle class="cls-18" cx="231.17" cy="78.42" r="2.48"/><circle class="cls-13" cx="157.69" cy="105.75" r="6.39"/><circle class="cls-20" cx="157.69" cy="105.75" r="5.43"/><circle class="cls-32" cx="157.69" cy="105.75" r="3.87"/><circle class="cls-18" cx="157.69" cy="105.75" r="2.48"/><circle class="cls-13" cx="194.43" cy="37.43" r="6.39"/><circle class="cls-20" cx="194.43" cy="37.43" r="5.43"/><circle class="cls-33" cx="194.43" cy="37.43" r="3.87"/><circle class="cls-8" cx="194.43" cy="37.43" r="2.48"/><circle class="cls-13" cx="194.43" cy="64.75" r="6.39"/><circle class="cls-20" cx="194.43" cy="64.76" r="5.43"/><circle class="cls-34" cx="194.43" cy="64.75" r="3.87"/><circle class="cls-11" cx="194.43" cy="64.75" r="2.48"/><circle class="cls-13" cx="267.91" cy="64.75" r="6.39"/><circle class="cls-20" cx="267.91" cy="64.75" r="5.43"/><circle class="cls-35" cx="267.91" cy="64.75" r="3.87"/><circle class="cls-16" cx="267.91" cy="64.75" r="2.48"/><circle class="cls-13" cx="194.43" cy="92.08" r="6.39"/><circle class="cls-20" cx="194.43" cy="92.08" r="5.43"/><circle class="cls-33" cx="194.43" cy="92.08" r="3.87"/><circle class="cls-8" cx="194.43" cy="92.08" r="2.48"/><line class="cls-36" x1="188.03" y1="64.75" x2="164.08" y2="23.76"/><line class="cls-36" x1="164.08" y1="51.09" x2="188.14" y2="36.31"/><line class="cls-36" x1="164.08" y1="51.09" x2="188.03" y2="64.75"/><line class="cls-36" x1="188.14" y1="36.31" x2="164.08" y2="23.76"/><line class="cls-36" x1="188.03" y1="64.75" x2="164.08" y2="78.42"/><line class="cls-36" x1="164.08" y1="78.42" x2="188.03" y2="92.08"/><line class="cls-36" x1="164.08" y1="105.75" x2="188.03" y2="64.75"/><line class="cls-36" x1="164.08" y1="105.75" x2="188.03" y2="92.08"/><line class="cls-36" x1="200.82" y1="37.43" x2="224.78" y2="51.09"/><line class="cls-36" x1="224.78" y1="51.09" x2="200.82" y2="64.76"/><line class="cls-36" x1="200.82" y1="64.76" x2="224.78" y2="78.42"/><line class="cls-36" x1="224.78" y1="78.42" x2="200.82" y2="92.08"/><line class="cls-36" x1="200.82" y1="92.08" x2="224.78" y2="51.09"/><line class="cls-36" x1="200.82" y1="37.43" x2="224.78" y2="78.42"/><line class="cls-36" x1="237.57" y1="78.42" x2="261.52" y2="64.75"/><line class="cls-36" x1="237.57" y1="51.09" x2="261.52" y2="64.75"/><line class="cls-36" x1="200.82" y1="64.76" x2="261.52" y2="64.76"/><rect class="cls-20" x="36.51" y="295.31" width="94.92" height="6.91"/><polygon class="cls-13" points="131.43 300.01 36.51 297.66 36.51 295.31 131.43 295.31 131.43 300.01"/><polygon class="cls-20" points="68.84 295.31 68.84 258.21 51.32 258.21 38.7 295.31 68.84 295.31"/><polygon class="cls-19" points="44.73 295.31 55.84 258.21 68.84 258.21 68.84 295.31 44.73 295.31"/><polygon class="cls-19" points="60.92 223.76 109.14 216.33 114.13 232.97 66.77 252.99 60.92 223.76"/><polygon class="cls-13" points="114.13 232.97 66.77 252.99 62.52 237.88 111.18 223.39 114.13 232.97"/><circle class="cls-20" cx="61.68" cy="238.81" r="15.07"/><circle class="cls-18" cx="61.68" cy="238.81" r="9.51"/><circle class="cls-20" cx="111.4" cy="224.72" r="8.7"/><circle class="cls-18" cx="111.4" cy="224.72" r="5.36"/><polygon class="cls-19" points="121.65 239.21 121.65 254.79 115.78 256.49 109.99 256.49 104.12 254.79 104.12 239.21 109.99 237.13 115.78 237.13 121.65 239.21"/><polygon class="cls-13" points="115.78 237.13 115.78 256.49 121.65 254.79 121.65 239.21 115.78 237.13"/><polygon class="cls-20" points="109.99 256.49 109.99 237.13 104.12 239.21 104.12 254.79 109.99 256.49"/><rect class="cls-11" x="110.91" y="257.18" width="3.83" height="6.47"/><polygon class="cls-18" points="121.03 274.16 119.95 275.24 115.59 270.87 113.59 270.87 113.59 276.39 112.06 276.39 112.06 270.87 110.05 270.87 105.7 275.24 104.63 274.16 109.42 269.35 112.08 269.35 112.08 264.31 113.54 264.31 113.54 269.35 116.22 269.35 121.03 274.16"/><polygon class="cls-8" points="60.19 261.68 51.9 292.82 65.02 292.82 65.02 261.68 60.19 261.68"/><rect class="cls-18" x="102.13" y="279.79" width="15.52" height="15.52"/><rect class="cls-32" x="117.65" y="279.79" width="5.89" height="15.52"/><circle class="cls-37" cx="109.89" cy="287.55" r="5.15"/><path class="cls-11" d="M226.9,335.93a16.29,16.29,0,0,0-11,28.31v4.83a2.67,2.67,0,0,0,2.68,2.67h16.66a2.67,2.67,0,0,0,2.67-2.67v-4.83a16.29,16.29,0,0,0-11-28.31Z"/><path class="cls-25" d="M236.17,356a.67.67,0,0,1-.67.66H218.29a.66.66,0,0,1-.66-.66h0a.66.66,0,0,1,.66-.67H235.5a.67.67,0,0,1,.67.67Z"/><path class="cls-25" d="M231.72,371.74V356.68a.66.66,0,1,0-1.32,0v15.06Z"/><path class="cls-25" d="M223.73,371.74V356.68a.66.66,0,1,0-1.32,0v15.06Z"/><path class="cls-38" d="M225.53,339.85c1.54,1.64.62,5-2.07,7.56s-6.11,3.26-7.65,1.63-.62-5,2.06-7.55S224,338.22,225.53,339.85Z"/><path class="cls-38" d="M222.48,351c.88.92.35,2.84-1.17,4.27s-3.46,1.85-4.33.93-.35-2.84,1.17-4.28S221.61,350.06,222.48,351Z"/><path class="cls-39" d="M218.63,372.26v8.26a1.11,1.11,0,0,0,1.1,1.1h14.32a1.1,1.1,0,0,0,1.1-1.1v-8.26Z"/><path class="cls-39" d="M232.06,379.52a5.17,5.17,0,1,1-5.16-5.16A5.16,5.16,0,0,1,232.06,379.52Z"/><path class="cls-32" d="M230.31,381.29c.27.72-.57,1.7-1.88,2.2s-2.6.3-2.87-.42.58-1.7,1.89-2.19S230,380.57,230.31,381.29Z"/><path class="cls-32" d="M236.14,372.46a.72.72,0,0,1-.72.72h-17a.72.72,0,0,1-.72-.72h0a.72.72,0,0,1,.72-.72h17a.72.72,0,0,1,.72.72Z"/><path class="cls-32" d="M236.14,375.08a.72.72,0,0,1-.72.72h-17a.72.72,0,0,1-.72-.72h0a.72.72,0,0,1,.72-.72h17a.72.72,0,0,1,.72.72Z"/><path class="cls-32" d="M236.14,377.69a.72.72,0,0,1-.72.72h-17a.72.72,0,0,1-.72-.72h0a.72.72,0,0,1,.72-.72h17a.72.72,0,0,1,.72.72Z"/><path class="cls-40" d="M223.64,404.1l10.1-21.8v.09a.76.76,0,0,1,0-.15c-.07-.83-.14-1.67-.14-2.52,0-17.66,15.61-32,34.87-32s34.86,14.31,34.86,32a35.22,35.22,0,0,1-1,8.39h0s-.13.44-.37,1.19c-.1.32-.19.64-.3,1a166.31,166.31,0,0,1-8.92,21.42c-5.63,11.1-2.67,27.71-2.67,27.71h-36.5V427h-11c-5,0-9.08-3.75-9.08-8.33V404.1Z"/><path class="cls-19" d="M295.5,359.51a30.24,30.24,0,0,1,7.85,20.21,35.22,35.22,0,0,1-1,8.39h0s-.13.44-.37,1.19c-.1.32-.19.64-.3,1a166.31,166.31,0,0,1-8.92,21.42c-5.63,11.1-2.67,27.71-2.67,27.71h-36.5V427h-11a9.67,9.67,0,0,1-4.86-1.31C292.22,410,298.63,380.15,295.5,359.51Z"/><path class="cls-13" d="M300.44,366.93a29.58,29.58,0,0,1,2.91,12.79,35.22,35.22,0,0,1-1,8.39h0s-.13.44-.37,1.19c-.1.32-.19.64-.3,1a166.31,166.31,0,0,1-8.92,21.42c-5.63,11.1-2.67,27.71-2.67,27.71h-36.5V434.9C291.7,425,299.47,389.4,300.44,366.93Z"/><line class="cls-41" x1="268.21" y1="359.69" x2="268.21" y2="366.62"/><path class="cls-32" d="M270.56,359.34a2.35,2.35,0,1,1-2.35-2.35A2.36,2.36,0,0,1,270.56,359.34Z"/><line class="cls-41" x1="260.84" y1="359.69" x2="260.84" y2="366.62"/><path class="cls-32" d="M263.19,359.34a2.35,2.35,0,1,1-2.35-2.35A2.36,2.36,0,0,1,263.19,359.34Z"/><line class="cls-41" x1="275.47" y1="359.69" x2="275.47" y2="366.62"/><path class="cls-32" d="M277.82,359.34a2.36,2.36,0,1,1-2.36-2.35A2.36,2.36,0,0,1,277.82,359.34Z"/><line class="cls-41" x1="268.21" y1="404.03" x2="268.21" y2="397.09"/><path class="cls-32" d="M270.56,404.37a2.35,2.35,0,1,0-2.35,2.36A2.35,2.35,0,0,0,270.56,404.37Z"/><line class="cls-41" x1="260.84" y1="404.03" x2="260.84" y2="397.09"/><path class="cls-32" d="M263.19,404.37a2.35,2.35,0,1,0-2.35,2.36A2.35,2.35,0,0,0,263.19,404.37Z"/><line class="cls-41" x1="275.47" y1="404.03" x2="275.47" y2="397.09"/><path class="cls-32" d="M277.82,404.37a2.36,2.36,0,1,0-2.36,2.36A2.36,2.36,0,0,0,277.82,404.37Z"/><line class="cls-41" x1="245.98" y1="381.8" x2="252.92" y2="381.8"/><path class="cls-32" d="M245.64,379.45a2.35,2.35,0,1,1-2.36,2.35A2.35,2.35,0,0,1,245.64,379.45Z"/><line class="cls-41" x1="245.98" y1="389.17" x2="252.92" y2="389.17"/><path class="cls-32" d="M245.64,386.82a2.35,2.35,0,1,1-2.36,2.35A2.35,2.35,0,0,1,245.64,386.82Z"/><line class="cls-41" x1="245.98" y1="374.54" x2="252.92" y2="374.54"/><path class="cls-32" d="M245.64,372.19a2.36,2.36,0,1,1-2.36,2.36A2.36,2.36,0,0,1,245.64,372.19Z"/><line class="cls-41" x1="290.32" y1="381.8" x2="283.39" y2="381.8"/><path class="cls-32" d="M290.67,379.45A2.35,2.35,0,1,0,293,381.8,2.35,2.35,0,0,0,290.67,379.45Z"/><line class="cls-41" x1="290.32" y1="389.17" x2="283.39" y2="389.17"/><path class="cls-32" d="M290.67,386.82a2.35,2.35,0,1,0,2.35,2.35A2.35,2.35,0,0,0,290.67,386.82Z"/><line class="cls-41" x1="290.32" y1="374.54" x2="283.39" y2="374.54"/><path class="cls-32" d="M290.67,372.19a2.36,2.36,0,1,0,2.35,2.36A2.36,2.36,0,0,0,290.67,372.19Z"/><rect class="cls-20" x="251.62" y="365.19" width="33.47" height="33.47" rx="2.6"/><path class="cls-18" d="M273.62,388v-3.89h-2.51a7.45,7.45,0,0,0-.68-1.65l1.77-1.77-2.75-2.75-1.78,1.77A7.18,7.18,0,0,0,266,379v-2.51h-3.89V379a7.45,7.45,0,0,0-1.65.68l-1.77-1.77L256,380.64l1.78,1.77a8,8,0,0,0-.69,1.65h-2.5V388h2.5a7.26,7.26,0,0,0,.68,1.65L256,391.37l2.76,2.76,1.76-1.77a7.85,7.85,0,0,0,1.66.69v2.49H266v-2.49a7.77,7.77,0,0,0,1.65-.69l1.77,1.77,2.75-2.76-1.77-1.77a7.28,7.28,0,0,0,.69-1.65Zm-9.54,1.58A3.52,3.52,0,1,1,267.6,386,3.52,3.52,0,0,1,264.08,389.53Z"/><path class="cls-32" d="M268.66,386a4.58,4.58,0,1,0-4.58,4.58A4.58,4.58,0,0,0,268.66,386Zm-4.58,3.52A3.52,3.52,0,1,1,267.6,386,3.52,3.52,0,0,1,264.08,389.53Z"/><path class="cls-18" d="M282,375.52v-2.44h-1.57a4.48,4.48,0,0,0-.43-1l1.11-1.12-1.73-1.73-1.11,1.12a4.67,4.67,0,0,0-1-.43v-1.57h-2.44v1.57a4.48,4.48,0,0,0-1,.43l-1.12-1.12L271,370.93l1.11,1.12a4.48,4.48,0,0,0-.43,1h-1.57v2.44h1.57a4.24,4.24,0,0,0,.43,1L271,377.66l1.72,1.73,1.11-1.11a4.15,4.15,0,0,0,1,.43v1.57h2.44v-1.57a4.31,4.31,0,0,0,1-.43l1.1,1.11,1.73-1.73L280,376.55a4.67,4.67,0,0,0,.43-1Zm-6,1a2.21,2.21,0,1,1,2.2-2.21A2.2,2.2,0,0,1,276.05,376.51Z"/><path class="cls-32" d="M279,374.3a2.9,2.9,0,1,0-2.9,2.9A2.89,2.89,0,0,0,279,374.3Zm-2.9,2.21a2.21,2.21,0,1,1,2.2-2.21A2.2,2.2,0,0,1,276.05,376.51Z"/><circle class="cls-32" cx="285.54" cy="430.31" r="11.36"/><circle class="cls-39" cx="281.98" cy="430.31" r="7.81"/></svg>