<svg width="4810" height="3995" viewBox="0 0 4810 3995" fill="none" xmlns="http://www.w3.org/2000/svg">
<path d="M704.324 3626.31C1643.48 4116.9 3166.03 4117.01 4105.18 3626.31C5044.34 3135.61 5044.23 2340.25 4105.18 1849.66C3166.14 1359.07 1643.48 1359.07 704.324 1849.66C-234.831 2340.25 -234.718 3135.83 704.324 3626.31Z" fill="#F0F0F0"/>
<path d="M4304.58 2665.64C4304.58 2665.64 4316.35 2606.46 4411.85 2560.73C4504.76 2515.89 4558.34 2526.32 4622.12 2500.65C4685.89 2474.98 4640.05 2354.38 4465.2 2407.95C4305.03 2457.05 4288.78 2595.7 4288.78 2595.7L4304.58 2665.64Z" fill="#BA68C8"/>
<path opacity="0.2" d="M4304.58 2665.64C4304.58 2665.64 4316.35 2606.46 4411.85 2560.73C4504.76 2515.89 4558.34 2526.32 4622.12 2500.65C4685.89 2474.98 4640.05 2354.38 4465.2 2407.95C4305.03 2457.05 4288.78 2595.7 4288.78 2595.7L4304.58 2665.64Z" fill="black"/>
<path d="M4287.77 2643.44C4287.14 2643.55 4286.5 2643.55 4285.86 2643.44C4285.1 2643.18 4284.39 2642.77 4283.79 2642.23C4283.18 2641.69 4282.69 2641.04 4282.33 2640.31C4281.98 2639.58 4281.77 2638.79 4281.72 2637.98C4281.68 2637.17 4281.79 2636.36 4282.05 2635.6C4304.47 2571.49 4360.51 2512.3 4433.59 2476.21C4527.29 2430.37 4593.98 2444.94 4596.79 2445.61C4598.36 2445.97 4599.73 2446.94 4600.59 2448.31C4601.45 2449.67 4601.74 2451.32 4601.38 2452.9C4601.03 2454.48 4600.06 2455.84 4598.69 2456.71C4597.32 2457.57 4595.67 2457.85 4594.1 2457.5C4593.42 2457.5 4528.53 2443.37 4438.97 2487.2C4368.92 2521.5 4314.56 2578.43 4293.26 2639.63C4292.8 2640.72 4292.04 2641.66 4291.07 2642.33C4290.09 2643 4288.95 2643.39 4287.77 2643.44V2643.44Z" fill="#FAFAFA"/>
<path d="M4290.8 2591.88C4290.8 2591.88 4302 2558.26 4345.16 2492.47C4419.58 2378.36 4540.97 2328.49 4594.1 2263.25C4651.26 2192.86 4552.4 2149.38 4463.52 2173.59C4412.63 2187.71 4366.23 2234.11 4341.91 2265.38C4290.38 2333.39 4260.85 2415.51 4257.28 2500.76L4290.8 2591.88Z" fill="#BA68C8"/>
<path d="M4274.1 2594.57C4272.48 2594.52 4270.95 2593.83 4269.84 2592.65C4268.73 2591.48 4268.12 2589.91 4268.16 2588.3C4273.35 2514.26 4294.41 2442.2 4329.91 2377.02C4397.16 2256.3 4496.92 2213.38 4501.18 2211.58C4502.6 2211.25 4504.09 2211.43 4505.39 2212.09C4506.68 2212.75 4507.7 2213.85 4508.27 2215.2C4508.83 2216.54 4508.9 2218.04 4508.47 2219.43C4508.03 2220.82 4507.12 2222.01 4505.89 2222.79C4435.68 2257.94 4377.97 2313.82 4340.56 2382.85C4305.97 2446.29 4285.45 2516.44 4280.37 2588.52C4280.36 2589.33 4280.18 2590.13 4279.86 2590.87C4279.54 2591.62 4279.07 2592.29 4278.49 2592.85C4277.91 2593.41 4277.22 2593.85 4276.46 2594.15C4275.71 2594.45 4274.91 2594.59 4274.1 2594.57V2594.57Z" fill="#FAFAFA"/>
<path d="M1014.91 2692.76C934.321 2638.62 930.734 2492.91 942.391 2401.34C960.885 2255.63 886.349 2222.01 848.352 2286.34C829.97 2317.61 806.881 2385.54 809.459 2464.67C813.606 2588.63 867.294 2736.92 997.312 2790.72L1014.91 2692.76Z" fill="#BA68C8"/>
<path opacity="0.2" d="M1014.91 2692.76C934.321 2638.62 930.734 2492.91 942.391 2401.34C960.885 2255.63 886.349 2222.01 848.352 2286.34C829.97 2317.61 806.881 2385.54 809.459 2464.67C813.606 2588.63 867.294 2736.92 997.312 2790.72L1014.91 2692.76Z" fill="black"/>
<path d="M998.321 2782.43C997.002 2782.42 995.729 2781.95 994.734 2781.08C858.327 2664.4 836.919 2456.04 874.804 2311.56C874.988 2310.83 875.315 2310.13 875.766 2309.52C876.218 2308.91 876.785 2308.4 877.436 2308.01C878.086 2307.62 878.807 2307.36 879.558 2307.25C880.308 2307.14 881.073 2307.17 881.809 2307.36C882.545 2307.54 883.237 2307.87 883.847 2308.32C884.456 2308.77 884.971 2309.34 885.361 2309.99C885.752 2310.64 886.01 2311.36 886.122 2312.11C886.233 2312.86 886.196 2313.63 886.012 2314.36C849.024 2455.48 869.536 2659.02 1002.36 2772.56C1002.92 2773.04 1003.38 2773.62 1003.71 2774.27C1004.04 2774.92 1004.24 2775.64 1004.29 2776.37C1004.34 2777.1 1004.25 2777.83 1004.01 2778.53C1003.78 2779.22 1003.4 2779.86 1002.92 2780.41C1002.37 2781.1 1001.67 2781.64 1000.87 2781.99C1000.07 2782.34 999.193 2782.49 998.321 2782.43Z" fill="#FAFAFA"/>
<path d="M1136.07 2961.76C1065.91 3012.2 904.618 3055.8 852.163 2969.38C803.406 2889.02 836.023 2853.94 737.052 2867.84C638.082 2881.73 615.329 2804.85 638.754 2739.84C662.18 2674.83 564.667 2580.79 635.84 2507.49C707.014 2434.18 747.924 2586.62 789.171 2603.09C830.418 2619.57 855.637 2584.04 903.161 2609.93C950.685 2635.82 955.28 2741.74 1001.57 2743.76C1077.34 2747.23 1204.89 2746.67 1214.53 2814.26C1224.17 2881.85 1136.07 2961.76 1136.07 2961.76Z" fill="#BA68C8"/>
<path d="M1165.1 2932.17H1164.54C797.466 2893.84 655.455 2573.5 646.712 2526.88C646.58 2526.14 646.594 2525.39 646.753 2524.65C646.912 2523.92 647.214 2523.23 647.64 2522.62C648.067 2522 648.611 2521.48 649.24 2521.08C649.869 2520.67 650.572 2520.4 651.308 2520.26C652.044 2520.13 652.799 2520.14 653.529 2520.3C654.26 2520.46 654.952 2520.76 655.566 2521.19C656.18 2521.62 656.704 2522.16 657.108 2522.79C657.512 2523.42 657.788 2524.12 657.921 2524.86C666.439 2570.7 805.536 2883.53 1165.89 2921.08C1166.62 2921.15 1167.34 2921.36 1167.99 2921.71C1168.65 2922.06 1169.23 2922.53 1169.69 2923.11C1170.16 2923.68 1170.51 2924.34 1170.73 2925.05C1170.94 2925.76 1171.01 2926.5 1170.93 2927.24C1170.74 2928.64 1170.04 2929.91 1168.96 2930.82C1167.88 2931.73 1166.51 2932.21 1165.1 2932.17V2932.17Z" fill="#FAFAFA"/>
<path d="M763.728 2788.7C740.563 2788.7 717.436 2786.83 694.572 2783.1C693.118 2782.83 691.831 2781.99 690.991 2780.77C690.151 2779.56 689.827 2778.06 690.089 2776.6C690.21 2775.87 690.476 2775.18 690.871 2774.56C691.266 2773.93 691.782 2773.4 692.389 2772.98C692.995 2772.56 693.68 2772.27 694.401 2772.12C695.123 2771.97 695.867 2771.97 696.59 2772.12C738.452 2779.01 781.159 2779.01 823.021 2772.12C824.491 2771.82 826.021 2772.11 827.279 2772.92C828.537 2773.74 829.423 2775.02 829.746 2776.49C829.893 2777.21 829.897 2777.95 829.757 2778.67C829.617 2779.4 829.336 2780.09 828.93 2780.7C828.524 2781.31 828.001 2781.84 827.391 2782.25C826.781 2782.67 826.096 2782.95 825.375 2783.1C805.073 2787.08 784.415 2788.96 763.728 2788.7V2788.7Z" fill="#FAFAFA"/>
<path d="M873.235 2822.22H872.002C870.566 2821.9 869.314 2821.02 868.517 2819.78C867.72 2818.55 867.442 2817.05 867.743 2815.6C879.063 2765.69 881.755 2714.21 875.701 2663.39C875.463 2661.91 875.825 2660.39 876.708 2659.17C877.591 2657.95 878.922 2657.13 880.408 2656.89C881.895 2656.66 883.414 2657.02 884.634 2657.9C885.853 2658.78 886.671 2660.11 886.909 2661.6C893.405 2713.98 890.673 2767.09 878.839 2818.52C878.43 2819.66 877.662 2820.63 876.652 2821.3C875.642 2821.97 874.443 2822.29 873.235 2822.22V2822.22Z" fill="#FAFAFA"/>
<path d="M186.27 2383.63L362.242 2282.08C370.71 2277.83 380.057 2275.61 389.535 2275.61C399.013 2275.61 408.359 2277.83 416.827 2282.08L439.244 2294.97C447.211 2300.14 453.841 2307.12 458.595 2315.34C463.348 2323.56 466.088 2332.79 466.593 2342.27V2545.37C466.071 2554.85 463.323 2564.07 458.571 2572.29C453.819 2580.51 447.198 2587.49 439.244 2592.67L263.384 2694.22C254.916 2698.48 245.569 2700.69 236.091 2700.69C226.613 2700.69 217.267 2698.48 208.799 2694.22L186.382 2681.33C178.436 2676.15 171.827 2669.16 167.094 2660.94C162.361 2652.72 159.637 2643.5 159.146 2634.03V2430.93C159.651 2421.48 162.369 2412.27 167.08 2404.05C171.791 2395.84 178.364 2388.84 186.27 2383.63Z" fill="#BA68C8"/>
<path opacity="0.5" d="M186.27 2383.63L362.242 2282.08C370.71 2277.83 380.057 2275.61 389.535 2275.61C399.013 2275.61 408.359 2277.83 416.827 2282.08L439.244 2294.97C447.211 2300.14 453.841 2307.12 458.595 2315.34C463.348 2323.56 466.088 2332.79 466.593 2342.27V2545.37C466.071 2554.85 463.323 2564.07 458.571 2572.29C453.819 2580.51 447.198 2587.49 439.244 2592.67L263.384 2694.22C254.916 2698.48 245.569 2700.69 236.091 2700.69C226.613 2700.69 217.267 2698.48 208.799 2694.22L186.382 2681.33C178.436 2676.15 171.827 2669.16 167.094 2660.94C162.361 2652.72 159.637 2643.5 159.146 2634.03V2430.93C159.651 2421.48 162.369 2412.27 167.08 2404.05C171.791 2395.84 178.364 2388.84 186.27 2383.63Z" fill="#FAFAFA"/>
<path d="M466.369 2342.27C466.369 2324.79 454.151 2317.73 439.02 2326.47L263.16 2428.02C255.206 2433.2 248.585 2440.18 243.833 2448.4C239.081 2456.62 236.333 2465.84 235.811 2475.32V2678.41C235.811 2695.79 248.028 2702.85 263.16 2694.22L439.02 2592.67C446.974 2587.49 453.595 2580.51 458.347 2572.29C463.098 2564.07 465.847 2554.85 466.369 2545.37V2342.27Z" fill="#BA68C8"/>
<path d="M159.034 2634.03C159.491 2643.54 162.198 2652.81 166.933 2661.07C171.667 2669.33 178.295 2676.35 186.27 2681.55L208.687 2694.44C216.378 2698.3 224.8 2700.49 233.397 2700.86C241.995 2701.22 250.573 2699.76 258.565 2696.57C245.675 2701.5 236.148 2694.22 236.148 2678.64V2475.32C236.445 2465.8 239.228 2456.53 244.218 2448.42L167.328 2403.58C162.438 2411.73 159.699 2420.99 159.37 2430.48L159.034 2634.03Z" fill="#BA68C8"/>
<path opacity="0.1" d="M159.034 2634.03C159.491 2643.54 162.198 2652.81 166.933 2661.07C171.667 2669.33 178.295 2676.35 186.27 2681.55L208.687 2694.44C216.378 2698.3 224.8 2700.49 233.397 2700.86C241.995 2701.22 250.573 2699.76 258.565 2696.57C245.675 2701.5 236.148 2694.22 236.148 2678.64V2475.32C236.445 2465.8 239.228 2456.53 244.218 2448.42L167.328 2403.58C162.438 2411.73 159.699 2420.99 159.37 2430.48L159.034 2634.03Z" fill="black"/>
<path d="M276.61 2489.22L426.242 2402.57C430.165 2400.22 433.416 2402.57 433.416 2406.72V2507.6C433.287 2510.12 432.572 2512.58 431.326 2514.78C430.081 2516.98 428.34 2518.85 426.242 2520.26L276.61 2607.58C272.575 2609.93 269.324 2607.58 269.324 2603.32V2502.44C269.378 2499.81 270.069 2497.23 271.338 2494.93C272.607 2492.63 274.416 2490.67 276.61 2489.22V2489.22Z" fill="#FAFAFA"/>
<path d="M269.324 2493.47L358.656 2522.5L433.416 2398.32L361.121 2532.93L269.324 2493.47Z" fill="#E0E0E0"/>
<path d="M186.27 1871.07L362.242 1769.52C370.695 1765.21 380.047 1762.96 389.535 1762.96C399.023 1762.96 408.375 1765.21 416.828 1769.52L439.244 1782.41C447.176 1787.6 453.767 1794.59 458.482 1802.81C463.196 1811.03 465.898 1820.25 466.369 1829.71V2032.81C465.865 2042.28 463.124 2051.49 458.37 2059.69C453.616 2067.89 446.984 2074.85 439.02 2080L263.16 2181.54C254.708 2185.85 245.355 2188.1 235.867 2188.1C226.38 2188.1 217.027 2185.85 208.575 2181.54L186.158 2168.77C178.207 2163.52 171.607 2156.47 166.894 2148.2C162.181 2139.92 159.488 2130.64 159.034 2121.13V1918.37C159.552 1908.9 162.287 1899.69 167.018 1891.48C171.748 1883.26 178.343 1876.27 186.27 1871.07Z" fill="#BA68C8"/>
<path opacity="0.5" d="M186.27 1871.07L362.242 1769.52C370.695 1765.21 380.047 1762.96 389.535 1762.96C399.023 1762.96 408.375 1765.21 416.828 1769.52L439.244 1782.41C447.176 1787.6 453.767 1794.59 458.482 1802.81C463.196 1811.03 465.898 1820.25 466.369 1829.71V2032.81C465.865 2042.28 463.124 2051.49 458.37 2059.69C453.616 2067.89 446.984 2074.85 439.02 2080L263.16 2181.54C254.708 2185.85 245.355 2188.1 235.867 2188.1C226.38 2188.1 217.027 2185.85 208.575 2181.54L186.158 2168.77C178.207 2163.52 171.607 2156.47 166.894 2148.2C162.181 2139.92 159.488 2130.64 159.034 2121.13V1918.37C159.552 1908.9 162.287 1899.69 167.018 1891.48C171.748 1883.26 178.343 1876.27 186.27 1871.07Z" fill="#FAFAFA"/>
<path d="M466.369 1829.71C466.369 1812.23 454.151 1805.17 439.02 1813.91L263.16 1915.46C255.193 1920.62 248.563 1927.6 243.809 1935.82C239.056 1944.04 236.316 1953.27 235.811 1962.76V2165.96C235.811 2183.34 248.028 2190.4 263.16 2181.66L439.02 2080.11C446.984 2074.96 453.615 2068.01 458.369 2059.8C463.124 2051.6 465.865 2042.39 466.369 2032.92V1829.71Z" fill="#BA68C8"/>
<path d="M159.034 2121.13C159.552 2130.6 162.287 2139.81 167.018 2148.03C171.748 2156.24 178.343 2163.23 186.27 2168.43L208.687 2181.21C216.361 2185.11 224.781 2187.34 233.383 2187.72C241.986 2188.11 250.571 2186.65 258.565 2183.45C245.675 2188.27 236.148 2181.1 236.148 2165.52V1962.76C236.445 1953.24 239.228 1943.96 244.218 1935.86L167.328 1891.02C162.438 1899.17 159.699 1908.43 159.37 1917.92L159.034 2121.13Z" fill="#BA68C8"/>
<path opacity="0.1" d="M159.034 2121.13C159.552 2130.6 162.287 2139.81 167.018 2148.03C171.748 2156.24 178.343 2163.23 186.27 2168.43L208.687 2181.21C216.361 2185.11 224.781 2187.34 233.383 2187.72C241.986 2188.11 250.571 2186.65 258.565 2183.45C245.675 2188.27 236.148 2181.1 236.148 2165.52V1962.76C236.445 1953.24 239.228 1943.96 244.218 1935.86L167.328 1891.02C162.438 1899.17 159.699 1908.43 159.37 1917.92L159.034 2121.13Z" fill="black"/>
<path d="M349.353 2076.3L331.195 2074.28C306.536 2072.26 277.17 2063.07 277.17 2027.32C277.881 2014.34 281.64 2001.7 288.145 1990.45C294.649 1979.19 303.715 1969.63 314.607 1962.53C330.747 1953.23 344.421 1957.04 349.689 1970.49C355 1950.54 367.494 1933.26 384.771 1921.96C405.507 1910.08 422.207 1919.72 422.207 1943.59C422.207 1978.11 393.066 2022.05 368.519 2052.42L349.353 2076.3Z" fill="#FAFAFA"/>
<path d="M186.27 1358.96L362.242 1257.41C370.694 1253.1 380.047 1250.85 389.535 1250.85C399.022 1250.85 408.375 1253.1 416.827 1257.41L439.244 1270.3C447.208 1275.44 453.84 1282.4 458.594 1290.6C463.348 1298.81 466.089 1308.02 466.593 1317.49V1520.58C466.097 1530.07 463.36 1539.3 458.606 1547.52C453.853 1555.74 447.217 1562.72 439.244 1567.88L263.384 1669.43C254.932 1673.74 245.579 1675.99 236.091 1675.99C226.604 1675.99 217.251 1673.74 208.799 1669.43L186.382 1656.65C178.455 1651.45 171.86 1644.46 167.129 1636.25C162.398 1628.03 159.664 1618.82 159.146 1609.35V1405.92C159.703 1396.52 162.444 1387.38 167.153 1379.23C171.862 1371.08 178.408 1364.14 186.27 1358.96V1358.96Z" fill="#BA68C8"/>
<path opacity="0.5" d="M186.27 1358.96L362.242 1257.41C370.694 1253.1 380.047 1250.85 389.535 1250.85C399.022 1250.85 408.375 1253.1 416.827 1257.41L439.244 1270.3C447.208 1275.44 453.84 1282.4 458.594 1290.6C463.348 1298.81 466.089 1308.02 466.593 1317.49V1520.58C466.097 1530.07 463.36 1539.3 458.606 1547.52C453.853 1555.74 447.217 1562.72 439.244 1567.88L263.384 1669.43C254.932 1673.74 245.579 1675.99 236.091 1675.99C226.604 1675.99 217.251 1673.74 208.799 1669.43L186.382 1656.65C178.455 1651.45 171.86 1644.46 167.129 1636.25C162.398 1628.03 159.664 1618.82 159.146 1609.35V1405.92C159.703 1396.52 162.444 1387.38 167.153 1379.23C171.862 1371.08 178.408 1364.14 186.27 1358.96V1358.96Z" fill="#FAFAFA"/>
<path d="M263.16 1669.09C248.028 1677.84 235.811 1670.78 235.811 1653.4V1450.31C236.307 1440.82 239.043 1431.59 243.797 1423.37C248.551 1415.15 255.187 1408.17 263.16 1403.01L439.02 1301.46C454.151 1292.72 466.369 1299.78 466.369 1317.15V1520.25C465.873 1529.73 463.136 1538.96 458.382 1547.19C453.628 1555.41 446.993 1562.39 439.02 1567.55" fill="#BA68C8"/>
<path d="M159.034 1609.02C159.552 1618.48 162.287 1627.7 167.018 1635.91C171.748 1644.13 178.343 1651.12 186.27 1656.32L208.687 1669.09C216.361 1673 224.781 1675.22 233.383 1675.61C241.986 1676 250.571 1674.54 258.565 1671.34C245.675 1676.16 236.148 1668.98 236.148 1653.4V1450.31C236.445 1440.79 239.228 1431.52 244.218 1423.41L167.328 1378.57C162.438 1386.72 159.699 1395.98 159.37 1405.47L159.034 1609.02Z" fill="#BA68C8"/>
<path opacity="0.1" d="M159.034 1609.02C159.552 1618.48 162.287 1627.7 167.018 1635.91C171.748 1644.13 178.343 1651.12 186.27 1656.32L208.687 1669.09C216.361 1673 224.781 1675.22 233.383 1675.61C241.986 1676 250.571 1674.54 258.565 1671.34C245.675 1676.16 236.148 1668.98 236.148 1653.4V1450.31C236.445 1440.79 239.228 1431.52 244.218 1423.41L167.328 1378.57C162.438 1386.72 159.699 1395.98 159.37 1405.47L159.034 1609.02Z" fill="black"/>
<path d="M318.978 1482.25C318.978 1482.25 339.489 1434.95 341.395 1428.11C342.413 1416.4 342.413 1404.63 341.395 1392.92C341.395 1388.44 360.113 1375.77 366.165 1388.77C371.988 1402.6 373.091 1417.97 369.304 1432.48L414.922 1405.92C424.561 1400.32 428.484 1408.16 428.596 1414.44C428.284 1421.6 425.692 1428.47 421.199 1434.05C421.199 1434.05 430.39 1431.36 430.39 1443.58C430.116 1447.88 428.984 1452.08 427.058 1455.93C425.133 1459.78 422.454 1463.2 419.181 1466C419.181 1466 422.095 1468.24 422.207 1477.21C420.856 1486 416.306 1493.98 409.43 1499.62C410.944 1503.16 411.634 1506.99 411.447 1510.83C410.883 1516.2 409.081 1521.36 406.183 1525.91C403.285 1530.46 399.37 1534.28 394.747 1537.06L319.987 1580.88L318.978 1482.25Z" fill="#FAFAFA"/>
<path d="M275.713 1619.67L308.554 1600.5L308.106 1486.17L275.153 1505.34L275.713 1619.67Z" fill="#FAFAFA"/>
<path d="M89.9897 758.858L359.664 603.173C372.619 596.597 386.943 593.169 401.472 593.169C416.001 593.169 430.324 596.597 443.279 603.173L476.905 622.788C489.112 630.717 499.273 641.419 506.558 654.022C513.843 666.624 518.046 680.771 518.824 695.306V1006.68C517.986 1021.14 513.754 1035.2 506.471 1047.72C499.189 1060.24 489.06 1070.87 476.905 1078.75L207.902 1234.77C194.928 1241.35 180.586 1244.77 166.039 1244.77C151.492 1244.77 137.15 1241.35 124.175 1234.77L90.5501 1215.15C78.3755 1207.2 68.2461 1196.49 60.9827 1183.89C53.7192 1171.29 49.5259 1157.16 48.7427 1142.63V831.265C49.4629 816.808 53.5711 802.723 60.7359 790.145C67.9007 777.568 77.9214 766.851 89.9897 758.858V758.858Z" fill="#BA68C8"/>
<path opacity="0.1" d="M89.9897 758.858L359.664 603.173C372.619 596.597 386.943 593.169 401.472 593.169C416.001 593.169 430.324 596.597 443.279 603.173L476.905 622.788C489.112 630.717 499.273 641.419 506.558 654.022C513.843 666.624 518.046 680.771 518.824 695.306V1006.68C517.986 1021.14 513.754 1035.2 506.471 1047.72C499.189 1060.24 489.06 1070.87 476.905 1078.75L207.902 1234.77C194.928 1241.35 180.586 1244.77 166.039 1244.77C151.492 1244.77 137.15 1241.35 124.175 1234.77L90.5501 1215.15C78.3755 1207.2 68.2461 1196.49 60.9827 1183.89C53.7192 1171.29 49.5259 1157.16 48.7427 1142.63V831.265C49.4629 816.808 53.5711 802.723 60.7359 790.145C67.9007 777.568 77.9214 766.851 89.9897 758.858V758.858Z" fill="black"/>
<path d="M519.272 693.401C519.272 677.821 511.651 639.04 471.637 663.587C431.622 688.133 235.027 799.209 207.902 815.349C189.08 825.675 174.218 841.957 165.646 861.64L187.055 883.16L519.272 693.401Z" fill="#BA68C8"/>
<path opacity="0.2" d="M519.272 693.401C519.272 677.821 511.651 639.04 471.637 663.587C431.622 688.133 235.027 799.209 207.902 815.349C189.08 825.675 174.218 841.957 165.646 861.64L187.055 883.16L519.272 693.401Z" fill="black"/>
<path d="M207.902 1234.77C184.701 1248.11 165.983 1237.35 165.983 1210.67V899.412C166.743 884.857 170.938 870.688 178.224 858.065C185.51 845.441 195.68 834.722 207.902 826.782L476.904 671.097C500.106 657.759 518.824 668.631 518.824 695.307V1006.68C517.986 1021.14 513.754 1035.2 506.471 1047.72C499.188 1060.24 489.06 1070.87 476.904 1078.75" fill="#BA68C8"/>
<path opacity="0.1" d="M207.902 1234.77C184.701 1248.11 165.983 1237.35 165.983 1210.67V899.412C166.743 884.857 170.938 870.688 178.224 858.065C185.51 845.441 195.68 834.722 207.902 826.782L476.904 671.097C500.106 657.759 518.824 668.631 518.824 695.307V1006.68C517.986 1021.14 513.754 1035.2 506.471 1047.72C499.188 1060.24 489.06 1070.87 476.904 1078.75" fill="black"/>
<path d="M48.1822 1142.63C48.9655 1157.16 53.1587 1171.29 60.4222 1183.89C67.6857 1196.49 77.8151 1207.2 89.9897 1215.15L123.615 1234.77C135.411 1240.71 148.334 1244.09 161.531 1244.66C174.727 1245.24 187.897 1243.02 200.169 1238.13C180.442 1245.64 165.422 1234.54 165.422 1210.67V899.412C165.933 884.834 170.178 870.632 177.752 858.165L59.9511 790.13C52.4077 802.603 48.2004 816.807 47.7339 831.377L48.1822 1142.63Z" fill="#BA68C8"/>
<path opacity="0.2" d="M48.1822 1142.63C48.9655 1157.16 53.1587 1171.29 60.4222 1183.89C67.6857 1196.49 77.8151 1207.2 89.9897 1215.15L123.615 1234.77C135.411 1240.71 148.334 1244.09 161.531 1244.66C174.727 1245.24 187.897 1243.02 200.169 1238.13C180.442 1245.64 165.422 1234.54 165.422 1210.67V899.412C165.933 884.834 170.178 870.632 177.752 858.165L59.9511 790.13C52.4077 802.603 48.2004 816.807 47.7339 831.377L48.1822 1142.63Z" fill="black"/>
<path d="M350.698 790.466L385.668 852.112L464.127 820.056C471.524 817.03 474.551 825.773 469.171 834.963L412.568 931.356L425.906 1013.63C427.139 1021.47 419.405 1032.34 412.792 1032.23L342.403 1030.1L272.351 1113.04C265.738 1120.89 258.004 1118.87 259.237 1109.57L272.799 1011.5L216.757 980.449C211.377 977.535 214.403 965.317 221.801 959.825L300.26 901.542L335.23 799.433C337.808 790.13 347.335 784.638 350.698 790.466Z" fill="#FAFAFA"/>
<path d="M4142.06 2212.82C4007.56 2276.82 3790.12 2276.82 3655.84 2212.82C3521.56 2148.82 3521.34 2044.69 3655.84 1981.14C3790.34 1917.59 4007.78 1917.14 4142.06 1981.14C4276.34 2045.14 4275.89 2148.82 4142.06 2212.82Z" fill="#E0E0E0"/>
<path d="M1084.4 2955.82C1085.6 2972.12 1090.62 2987.91 1099.05 3001.91C1107.48 3015.91 1119.09 3027.73 1132.93 3036.41L2492.85 3821C2507.89 3828.63 2524.52 3832.61 2541.38 3832.61C2558.25 3832.61 2574.88 3828.63 2589.92 3821L4450.52 2746.67C4465.18 2738.93 4477.46 2727.34 4486.02 2713.14C4494.58 2698.93 4499.11 2682.67 4499.11 2666.08C4499.11 2649.5 4494.58 2633.23 4486.02 2619.03C4477.46 2604.83 4465.18 2593.24 4450.52 2585.5L3090.71 1800.91C3075.67 1793.27 3059.04 1789.3 3042.18 1789.3C3025.31 1789.3 3008.68 1793.27 2993.64 1800.91L1133.05 2875.23C1119.18 2883.9 1107.55 2895.72 1099.1 2909.72C1090.65 2923.72 1085.61 2939.51 1084.4 2955.82V2955.82Z" fill="#37474F"/>
<path d="M1645.5 2579.33L1132.93 2875.23C1118.27 2882.97 1105.99 2894.57 1097.43 2908.77C1088.87 2922.97 1084.34 2939.24 1084.34 2955.82C1084.34 2972.4 1088.87 2988.67 1097.43 3002.87C1105.99 3017.08 1118.27 3028.67 1132.93 3036.41L2492.85 3821C2507.81 3828.81 2524.52 3832.67 2541.38 3832.21V2579.33H1645.5Z" fill="#263238"/>
<path d="M1038.9 2876.92C1025.36 2867.76 1014.19 2855.53 1006.28 2841.23C998.372 2826.94 993.955 2810.97 993.389 2794.65V1171.78C994.282 1154.93 999.145 1138.54 1007.58 1123.93C1016.01 1109.32 1027.78 1096.91 1041.92 1087.71L2902.52 13.9462C2916.56 5.13693 2932.74 0.320855 2949.32 0.015483C2965.9 -0.289889 2982.24 3.92702 2996.6 12.213C3010.96 20.4991 3022.79 32.541 3030.82 47.0451C3038.85 61.5492 3042.78 77.9671 3042.18 94.5349V1716.84C3041.27 1733.69 3036.41 1750.08 3027.98 1764.69C3019.54 1779.29 3007.78 1791.7 2993.64 1800.91L1133.05 2875.23C1118.59 2882.91 1102.53 2887.06 1086.17 2887.35C1069.81 2887.64 1053.61 2884.07 1038.9 2876.92V2876.92Z" fill="#455A64"/>
<path d="M1221.03 1246.87L1008.07 1123.58C999.372 1138.03 994.511 1154.47 993.949 1171.33V2794.64C993.364 2811.2 997.294 2827.59 1005.32 2842.08C1013.34 2856.57 1025.16 2868.6 1039.5 2876.88C1053.84 2885.16 1070.17 2889.38 1086.73 2889.09C1103.28 2888.8 1119.45 2884.01 1133.49 2875.23L1345.67 2752.73L1221.03 1246.87Z" fill="#263238"/>
<path d="M1084.4 1224.46V2847.21C1084.4 2878.15 1106.15 2890.7 1132.93 2875.23L2993.53 1800.91C3007.67 1791.7 3019.43 1779.29 3027.86 1764.68C3036.3 1750.08 3041.16 1733.69 3042.06 1716.84V94.0864C3042.06 63.1512 3020.32 50.5977 2993.53 66.0653L1132.93 1140.28C1118.8 1149.52 1107.05 1161.95 1098.61 1176.57C1090.18 1191.2 1085.31 1207.6 1084.4 1224.46V1224.46Z" fill="#37474F"/>
<path d="M1132.93 2931.28L2492.85 3716.43C2507.89 3724.06 2524.52 3728.03 2541.38 3728.03C2558.25 3728.03 2574.88 3724.06 2589.92 3716.43L4450.52 2642.1C4477.42 2626.63 4477.42 2601.52 4450.52 2586.06L3090.71 1800.91C3075.67 1793.27 3059.04 1789.3 3042.18 1789.3C3025.31 1789.3 3008.69 1793.27 2993.65 1800.91L1133.05 2875.23C1106.15 2890.7 1106.15 2915.81 1132.93 2931.28Z" fill="#455A64"/>
<path d="M1159.05 1230.4L2967.53 186.332C2983.56 177.029 2996.67 184.538 2996.67 203.144V1607.9C2996.11 1618 2993.17 1627.83 2988.11 1636.59C2983.05 1645.35 2976 1652.8 2967.53 1658.33L1159.05 2702.4C1142.91 2711.7 1129.91 2704.19 1129.91 2685.59V1280.5C1130.5 1270.45 1133.44 1260.68 1138.51 1251.97C1143.57 1243.27 1150.6 1235.88 1159.05 1230.4Z" fill="#FAFAFA"/>
<path d="M1290.75 2889.24L3017.86 1891.69C3025.38 1887.88 3033.69 1885.9 3042.12 1885.9C3050.55 1885.9 3058.87 1887.88 3066.39 1891.69L3154.82 1942.69C3157.75 1943.69 3160.29 1945.57 3162.09 1948.08C3163.89 1950.6 3164.86 1953.61 3164.86 1956.7C3164.86 1959.79 3163.89 1962.81 3162.09 1965.32C3160.29 1967.83 3157.75 1969.72 3154.82 1970.71L1427.38 2968.15C1419.86 2971.96 1411.54 2973.95 1403.11 2973.95C1394.68 2973.95 1386.37 2971.96 1378.85 2968.15L1290.75 2916.93C1287.94 2915.87 1285.51 2913.97 1283.8 2911.5C1282.09 2909.03 1281.18 2906.09 1281.18 2903.09C1281.18 2900.08 1282.09 2897.14 1283.8 2894.67C1285.51 2892.2 1287.94 2890.31 1290.75 2889.24V2889.24Z" fill="#263238"/>
<path d="M1518.39 3020.72L3245.5 2023.17C3253.02 2019.36 3261.33 2017.37 3269.76 2017.37C3278.2 2017.37 3286.51 2019.36 3294.03 2023.17L3837.42 2337C3840.34 2338 3842.89 2339.88 3844.69 2342.4C3846.49 2344.91 3847.46 2347.92 3847.46 2351.02C3847.46 2354.11 3846.49 2357.12 3844.69 2359.63C3842.89 2362.15 3840.34 2364.03 3837.42 2365.03L2112.33 3361.01C2104.79 3364.82 2096.45 3366.8 2088 3366.8C2079.55 3366.8 2071.22 3364.82 2063.68 3361.01L1518.5 3048.52C1515.6 3047.54 1513.07 3045.68 1511.28 3043.19C1509.48 3040.71 1508.51 3037.72 1508.5 3034.66C1508.49 3031.59 1509.43 3028.6 1511.21 3026.1C1512.98 3023.6 1515.49 3021.72 1518.39 3020.72V3020.72Z" fill="#263238"/>
<path d="M3066.61 2472.18L3120.75 2440.91C3122.99 2439.56 3122.88 2437.32 3120.75 2435.98L3058.21 2399.88C3056.87 2399.2 3055.39 2398.84 3053.89 2398.84C3052.39 2398.84 3050.91 2399.2 3049.57 2399.88L2995.55 2431.16C2993.2 2432.39 2993.31 2434.63 2995.55 2436.09L3058.09 2472.18C3059.41 2472.85 3060.87 2473.2 3062.35 2473.2C3063.83 2473.2 3065.29 2472.85 3066.61 2472.18ZM2959.91 2348.1L2905.88 2378.92C2903.53 2380.27 2903.64 2382.51 2905.88 2383.97L2968.43 2420.06C2969.77 2420.72 2971.24 2421.07 2972.74 2421.07C2974.24 2421.07 2975.71 2420.72 2977.06 2420.06L3031.19 2388.79C3033.43 2387.44 3033.32 2385.2 3031.19 2383.86L2968.65 2347.65C2967.26 2347.04 2965.74 2346.76 2964.23 2346.84C2962.71 2346.92 2961.23 2347.35 2959.91 2348.1V2348.1ZM2785.17 2448.98L2693.71 2502.22C2691.35 2503.56 2691.58 2505.8 2693.71 2507.26L2756.25 2543.35C2757.59 2544.01 2759.07 2544.36 2760.57 2544.36C2762.06 2544.36 2763.54 2544.01 2764.88 2543.35L2856.34 2490.56C2858.58 2489.22 2858.47 2486.97 2856.34 2485.63L2793.8 2449.43C2792.49 2448.69 2791.03 2448.27 2789.54 2448.19C2788.04 2448.12 2786.54 2448.38 2785.17 2448.98V2448.98ZM2880.89 2393.72L2826.75 2424.99C2824.51 2426.22 2824.62 2428.47 2826.75 2429.92L2889.29 2466.01C2890.63 2466.7 2892.11 2467.06 2893.61 2467.06C2895.11 2467.06 2896.59 2466.7 2897.92 2466.01L2951.95 2434.74C2954.3 2433.4 2954.19 2431.16 2951.95 2429.81L2889.41 2393.72C2888.09 2393.05 2886.63 2392.7 2885.15 2392.7C2883.67 2392.7 2882.21 2393.05 2880.89 2393.72V2393.72ZM2668.71 2516.23L2614.69 2547.05C2612.33 2548.4 2612.56 2550.64 2614.69 2552.09L2677.23 2588.19C2678.57 2588.87 2680.04 2589.23 2681.55 2589.23C2683.05 2589.23 2684.53 2588.87 2685.86 2588.19L2740 2557.03C2742.24 2555.68 2742.13 2553.44 2740 2552.09L2677.45 2515.89C2676.07 2515.26 2674.56 2514.97 2673.04 2515.02C2671.53 2515.08 2670.04 2515.49 2668.71 2516.23V2516.23ZM2589.69 2561.85L2535.67 2593.01C2533.31 2594.35 2533.43 2596.59 2535.67 2598.05L2598.21 2634.14C2599.55 2634.8 2601.03 2635.15 2602.53 2635.15C2604.02 2635.15 2605.5 2634.8 2606.84 2634.14L2660.98 2602.87C2663.22 2601.52 2663.11 2599.28 2660.98 2597.94L2598.44 2561.73C2597.07 2561.07 2595.57 2560.74 2594.05 2560.76C2592.53 2560.77 2591.04 2561.15 2589.69 2561.85V2561.85ZM2835.72 2708.68L2889.74 2677.4C2891.98 2676.06 2891.87 2673.82 2889.74 2672.47L2826.86 2636.72C2825.53 2636.03 2824.05 2635.67 2822.55 2635.67C2821.05 2635.67 2819.57 2636.03 2818.23 2636.72L2764.21 2667.99C2761.85 2669.22 2762.08 2671.46 2764.21 2672.92L2826.75 2709.01C2828.16 2709.71 2829.71 2710.04 2831.28 2709.98C2832.84 2709.92 2834.37 2709.47 2835.72 2708.68V2708.68ZM2756.59 2754.29L2810.72 2723.02C2812.96 2721.68 2812.85 2719.55 2810.72 2718.09L2747.84 2681.55C2746.51 2680.86 2745.03 2680.5 2743.53 2680.5C2742.03 2680.5 2740.55 2680.86 2739.21 2681.55L2684.96 2713.05C2682.61 2714.28 2682.83 2716.52 2684.96 2717.98L2747.51 2754.07C2748.88 2754.87 2750.43 2755.31 2752.02 2755.35C2753.61 2755.39 2755.18 2755.03 2756.59 2754.29V2754.29ZM2677.57 2799.91L2731.7 2768.64C2733.95 2767.41 2733.83 2765.17 2731.7 2763.71L2669.16 2727.62C2667.83 2726.93 2666.35 2726.57 2664.85 2726.57C2663.34 2726.57 2661.86 2726.93 2660.53 2727.62L2606.51 2758.67C2604.15 2760.01 2604.26 2762.25 2606.51 2763.6L2669.05 2799.69C2670.35 2800.39 2671.8 2800.78 2673.28 2800.82C2674.76 2800.86 2676.23 2800.55 2677.57 2799.91V2799.91ZM2599.11 2845.53L2653.24 2814.26C2655.49 2813.03 2655.37 2810.79 2653.24 2809.33L2590.7 2773.24C2589.37 2772.55 2587.89 2772.19 2586.39 2772.19C2584.88 2772.19 2583.41 2772.55 2582.07 2773.24L2527.15 2804.84C2524.8 2806.19 2524.91 2808.43 2527.15 2809.78L2589.69 2845.87C2591.08 2846.54 2592.62 2846.86 2594.16 2846.81C2595.71 2846.75 2597.21 2846.31 2598.55 2845.53H2599.11ZM2987.59 2517.8L3041.62 2486.53C3043.97 2485.18 3043.86 2483.05 3041.62 2481.59L2979.07 2445.5C2977.74 2444.81 2976.26 2444.46 2974.76 2444.46C2973.26 2444.46 2971.78 2444.81 2970.44 2445.5L2916.42 2476.77C2914.06 2478.12 2914.18 2480.25 2916.42 2481.71L2978.96 2517.8C2980.3 2518.49 2981.78 2518.84 2983.28 2518.84C2984.78 2518.84 2986.26 2518.49 2987.59 2517.8ZM2914.74 2663.51L3035.34 2593.79C3037.58 2592.45 3037.47 2590.2 3035.34 2588.86L2883.47 2501.21C2882.13 2500.52 2880.65 2500.16 2879.15 2500.16C2877.65 2500.16 2876.17 2500.52 2874.84 2501.21L2812.52 2537.19C2810.16 2538.53 2810.27 2540.77 2812.52 2542.23L2892.99 2588.63C2895.46 2590.09 2895.57 2592.33 2892.99 2593.57L2843.12 2622.48C2840.87 2623.72 2840.99 2625.96 2843.12 2627.42L2905.66 2663.51C2907.09 2664.17 2908.67 2664.48 2910.25 2664.4C2911.84 2664.33 2913.37 2663.86 2914.74 2663.06V2663.51ZM2510.67 2607.46L2456.65 2638.74C2454.3 2639.97 2454.41 2642.21 2456.65 2643.67L2519.19 2679.76C2520.53 2680.42 2522.01 2680.77 2523.51 2680.77C2525 2680.77 2526.48 2680.42 2527.82 2679.76L2581.96 2648.49C2584.2 2647.14 2584.09 2644.9 2581.96 2643.56L2519.42 2607.46C2518.07 2606.76 2516.57 2606.39 2515.04 2606.39C2513.52 2606.39 2512.02 2606.76 2510.67 2607.46V2607.46ZM2432.21 2653.08L2378.08 2684.35C2375.84 2685.7 2375.95 2687.83 2378.08 2689.29L2440.62 2725.38C2441.96 2726.07 2443.43 2726.42 2444.94 2726.42C2446.44 2726.42 2447.92 2726.07 2449.25 2725.38L2503.28 2694.11C2505.63 2692.76 2505.52 2690.52 2503.28 2689.17L2440.73 2653.08C2439.34 2652.32 2437.78 2651.92 2436.19 2651.92C2434.61 2651.92 2433.04 2652.32 2431.65 2653.08H2432.21ZM2037.23 3164.75C2038.56 3165.44 2040.04 3165.79 2041.54 3165.79C2043.05 3165.79 2044.53 3165.44 2045.86 3164.75L2100 3133.48C2102.24 3132.13 2102.13 3129.89 2100 3128.54L2037.45 3092.45C2036.12 3091.76 2034.64 3091.41 2033.14 3091.41C2031.64 3091.41 2030.16 3091.76 2028.82 3092.45L1974.8 3123.72C1972.44 3125.07 1972.56 3127.2 1974.8 3128.66L2037.23 3164.75ZM1799.5 3017.8L1745.36 3049.08C1743.12 3050.31 1743.23 3052.55 1745.36 3054.01L1807.91 3090.1C1809.25 3090.76 1810.72 3091.11 1812.22 3091.11C1813.72 3091.11 1815.19 3090.76 1816.54 3090.1L1870.56 3058.83C1872.91 3057.48 1872.8 3055.24 1870.56 3053.9L1808.02 3017.8C1806.7 3017.14 1805.24 3016.79 1803.76 3016.79C1802.28 3016.79 1800.82 3017.14 1799.5 3017.8ZM1926.71 3124.85C1928.05 3125.53 1929.53 3125.89 1931.03 3125.89C1932.53 3125.89 1934.01 3125.53 1935.34 3124.85L1989.37 3093.57C1991.72 3092.23 1991.5 3090.1 1989.37 3088.64L1926.94 3052.55C1925.6 3051.86 1924.12 3051.5 1922.62 3051.5C1921.12 3051.5 1919.64 3051.86 1918.31 3052.55L1864.17 3083.82C1861.93 3085.17 1862.04 3087.3 1864.17 3088.75L1926.71 3124.85ZM2176.33 3192.1L2230.46 3160.82C2232.7 3159.48 2232.59 3157.24 2230.46 3155.89L2167.92 3119.69C2166.58 3119.03 2165.1 3118.68 2163.6 3118.68C2162.11 3118.68 2160.63 3119.03 2159.29 3119.69L2105.26 3150.96C2102.91 3152.19 2103.02 3154.44 2105.26 3155.89L2167.81 3191.98C2169.07 3192.72 2170.49 3193.16 2171.94 3193.26C2173.4 3193.35 2174.87 3193.11 2176.21 3192.54L2176.33 3192.1ZM2088.68 3237.49C2090.01 3238.18 2091.49 3238.54 2092.99 3238.54C2094.49 3238.54 2095.97 3238.18 2097.31 3237.49L2151.44 3206.22C2153.68 3204.87 2153.57 3202.63 2151.44 3201.29L2088.9 3165.2C2087.57 3164.51 2086.09 3164.15 2084.59 3164.15C2083.08 3164.15 2081.6 3164.51 2080.27 3165.2L2025.8 3197.14C2023.44 3198.37 2023.56 3200.61 2025.8 3202.07L2088.68 3237.49ZM1877.96 2972.97L1823.82 3004.13C1821.58 3005.48 1821.69 3007.72 1823.82 3009.17L1886.36 3045.27C1887.71 3045.93 1889.18 3046.27 1890.68 3046.27C1892.18 3046.27 1893.65 3045.93 1894.99 3045.27L1949.02 3013.99C1951.37 3012.65 1951.26 3010.41 1949.02 3009.06L1887.04 2972.97C1885.64 2972.23 1884.08 2971.85 1882.5 2971.85C1880.92 2971.85 1879.36 2972.23 1877.96 2972.97ZM2273.62 2744.32L2219.48 2775.59C2217.24 2776.94 2217.35 2779.18 2219.48 2780.52L2282.02 2816.61C2283.36 2817.3 2284.84 2817.66 2286.34 2817.66C2287.84 2817.66 2289.32 2817.3 2290.65 2816.61L2344.68 2785.34C2347.03 2784.11 2346.81 2781.87 2344.68 2780.41L2282.25 2744.32C2280.9 2743.66 2279.43 2743.31 2277.93 2743.31C2276.43 2743.31 2274.96 2743.66 2273.62 2744.32V2744.32ZM1957.43 2926.9L1903.4 2958.06C1901.05 2959.41 1901.16 2961.65 1903.4 2963.11L1965.94 2999.2C1967.29 2999.86 1968.76 3000.21 1970.26 3000.21C1971.76 3000.21 1973.23 2999.86 1974.57 2999.2L2028.71 2968.04C2030.95 2966.69 2030.84 2964.45 2028.71 2963L1966.17 2926.9C1964.81 2926.22 1963.31 2925.87 1961.8 2925.87C1960.28 2925.87 1958.78 2926.22 1957.43 2926.9V2926.9ZM2352.63 2698.7L2298.5 2729.97C2296.26 2731.32 2296.37 2733.45 2298.5 2734.9L2361.04 2771C2362.38 2771.68 2363.85 2772.04 2365.36 2772.04C2366.86 2772.04 2368.34 2771.68 2369.67 2771L2423.7 2739.72C2426.05 2738.38 2425.94 2736.25 2423.7 2734.79L2361.15 2698.7C2359.83 2698.03 2358.37 2697.68 2356.89 2697.68C2355.41 2697.68 2353.95 2698.03 2352.63 2698.7ZM2194.48 2789.94L2140.46 2821.21C2138.11 2822.55 2138.33 2824.8 2140.46 2826.14L2203 2862.34C2204.34 2863.01 2205.82 2863.35 2207.32 2863.35C2208.81 2863.35 2210.29 2863.01 2211.63 2862.34L2265.66 2831.18C2268.01 2829.84 2267.79 2827.6 2265.66 2826.14L2203 2790.16C2201.69 2789.48 2200.24 2789.11 2198.77 2789.07C2197.29 2789.03 2195.83 2789.33 2194.48 2789.94V2789.94ZM2115.46 2835.67L2061.44 2866.83C2059.09 2868.17 2059.31 2870.41 2061.44 2871.76L2124.54 2907.96C2125.87 2908.62 2127.32 2908.97 2128.8 2908.97C2130.28 2908.97 2131.74 2908.62 2133.06 2907.96L2187.2 2876.8C2189.44 2875.46 2189.33 2873.22 2187.2 2871.76L2124.54 2835.78C2123.16 2835 2121.61 2834.58 2120.02 2834.56C2118.43 2834.54 2116.86 2834.92 2115.46 2835.67V2835.67ZM2036.44 2881.29L1982.42 2912.45C1980.07 2913.79 1980.29 2916.03 1982.42 2917.49L2044.96 2953.58C2046.31 2954.24 2047.78 2954.59 2049.28 2954.59C2050.78 2954.59 2052.25 2954.24 2053.59 2953.58L2107.73 2922.42C2109.97 2921.08 2109.86 2918.83 2107.73 2917.38L2045.19 2881.29C2043.83 2880.61 2042.33 2880.25 2040.82 2880.25C2039.3 2880.25 2037.8 2880.61 2036.44 2881.29V2881.29ZM2440.51 2936.77L2494.42 2905.72C2496.78 2904.38 2496.66 2902.13 2494.42 2900.68L2431.88 2864.59C2430.54 2863.9 2429.06 2863.54 2427.56 2863.54C2426.06 2863.54 2424.58 2863.9 2423.25 2864.59L2369.11 2895.74C2366.87 2897.09 2366.98 2899.33 2369.11 2900.79L2431.65 2936.88C2433.03 2937.56 2434.56 2937.91 2436.09 2937.89C2437.63 2937.87 2439.15 2937.48 2440.51 2936.77V2936.77ZM3134.65 2247.23L3080.51 2278.05C3078.27 2279.28 3078.38 2281.52 3080.51 2282.98L3143.05 2319.07C3144.4 2319.73 3145.87 2320.08 3147.37 2320.08C3148.86 2320.08 3150.34 2319.73 3151.68 2319.07L3205.71 2287.8C3208.06 2286.45 3207.95 2284.21 3205.71 2282.87L3143.17 2246.78C3141.81 2246.18 3140.33 2245.9 3138.85 2245.98C3137.37 2246.06 3135.93 2246.49 3134.65 2247.23V2247.23ZM3038.93 2302.48L2984.9 2334.09C2982.55 2335.44 2982.66 2337.68 2984.9 2339.13L3047.33 2375.23C3048.67 2375.91 3050.15 2376.27 3051.65 2376.27C3053.15 2376.27 3054.63 2375.91 3055.96 2375.23L3110.1 2344.07C3112.34 2342.72 3112.23 2340.48 3110.1 2339.13L3047.56 2302.93C3046.25 2302.2 3044.79 2301.78 3043.29 2301.7C3041.8 2301.62 3040.3 2301.89 3038.93 2302.48V2302.48ZM3213.67 2201.61L3159.53 2233.21C3157.29 2234.56 3157.4 2236.8 3159.53 2238.26L3222.07 2274.35C3223.41 2275.01 3224.89 2275.36 3226.39 2275.36C3227.88 2275.36 3229.36 2275.01 3230.7 2274.35L3284.73 2243.08C3287.08 2241.73 3286.97 2239.49 3284.73 2238.15L3222.18 2201.94C3220.88 2201.25 3219.44 2200.85 3217.96 2200.79C3216.49 2200.74 3215.02 2201.01 3213.67 2201.61V2201.61ZM2804.56 2623.49L2858.7 2591.88C2860.94 2590.54 2860.82 2588.3 2858.7 2586.95L2796.15 2550.86C2794.82 2550.17 2793.34 2549.81 2791.84 2549.81C2790.34 2549.81 2788.86 2550.17 2787.52 2550.86L2733.39 2582.02C2731.14 2583.37 2731.26 2585.61 2733.39 2587.07L2795.93 2623.16C2797.24 2623.87 2798.71 2624.27 2800.2 2624.33C2801.7 2624.39 2803.19 2624.1 2804.56 2623.49V2623.49ZM3301.43 2156.1C3300.09 2155.44 3298.61 2155.09 3297.11 2155.09C3295.62 2155.09 3294.14 2155.44 3292.8 2156.1L3238.77 2187.26C3236.42 2188.61 3236.53 2190.85 3238.77 2192.3L3301.32 2228.4C3302.65 2229.08 3304.13 2229.44 3305.63 2229.44C3307.13 2229.44 3308.61 2229.08 3309.95 2228.4L3364.08 2197.24C3366.32 2195.89 3366.21 2193.65 3364.08 2192.19L3301.43 2156.1ZM2519.53 2891.15L2573.55 2859.99C2575.91 2858.65 2575.79 2856.4 2573.55 2854.95L2511.01 2818.86C2509.67 2818.19 2508.19 2817.85 2506.69 2817.85C2505.2 2817.85 2503.72 2818.19 2502.38 2818.86L2448.02 2849.68C2445.78 2851.02 2445.89 2853.27 2448.02 2854.61L2510.56 2890.81C2511.92 2891.58 2513.44 2892.02 2515 2892.07C2516.56 2892.13 2518.12 2891.82 2519.53 2891.15V2891.15ZM3488.72 2331.62L3542.86 2300.35C3545.1 2299.01 3544.99 2296.77 3542.86 2295.42L3480.31 2259.33C3478.98 2258.64 3477.5 2258.28 3476 2258.28C3474.5 2258.28 3473.02 2258.64 3471.68 2259.33L3417.55 2290.6C3415.31 2291.83 3415.42 2294.08 3417.55 2295.53L3480.09 2331.62C3481.42 2332.31 3482.9 2332.67 3484.41 2332.67C3485.91 2332.67 3487.39 2332.31 3488.72 2331.62V2331.62ZM3320.59 2325.68L3374.62 2294.41C3376.97 2293.07 3376.86 2290.83 3374.62 2289.48L3312.08 2253.39C3310.74 2252.7 3309.26 2252.34 3307.76 2252.34C3306.26 2252.34 3304.78 2252.7 3303.45 2253.39L3249.31 2284.66C3247.07 2285.89 3247.18 2288.14 3249.31 2289.59L3311.85 2325.68C3313.17 2326.35 3314.63 2326.7 3316.11 2326.7C3317.59 2326.7 3319.05 2326.35 3320.37 2325.68H3320.59ZM3391.1 2207.66C3389.75 2207 3388.28 2206.65 3386.78 2206.65C3385.28 2206.65 3383.81 2207 3382.47 2207.66L3328.44 2238.93C3326.09 2240.16 3326.2 2242.41 3328.44 2243.86L3390.98 2279.95C3392.33 2280.62 3393.8 2280.96 3395.3 2280.96C3396.8 2280.96 3398.27 2280.62 3399.61 2279.95L3453.75 2248.68C3455.99 2247.34 3455.88 2245.1 3453.75 2243.75L3391.1 2207.66ZM3407.68 2198.13L3559.22 2285.78C3560.56 2286.44 3562.04 2286.79 3563.54 2286.79C3565.03 2286.79 3566.51 2286.44 3567.85 2285.78L3621.99 2254.51C3624.23 2253.17 3624.12 2250.92 3621.99 2249.58L3469.55 2162.04C3468.21 2161.38 3466.74 2161.03 3465.24 2161.03C3463.74 2161.03 3462.27 2161.38 3460.92 2162.04L3406.9 2193.2C3404.66 2194.43 3404.77 2196.68 3407.24 2198.13H3407.68ZM3224.43 2299.01L3170.29 2330.28C3168.05 2331.51 3168.16 2333.75 3170.29 2335.21L3232.83 2371.3C3234.17 2371.99 3235.65 2372.35 3237.15 2372.35C3238.65 2372.35 3240.13 2371.99 3241.46 2371.3L3295.49 2340.03C3297.84 2338.69 3297.73 2336.44 3295.49 2335.1L3232.94 2299.01C3231.59 2298.23 3230.06 2297.8 3228.49 2297.76C3226.92 2297.72 3225.37 2298.07 3223.98 2298.78L3224.43 2299.01ZM2628.92 2642.21L2574.79 2673.48C2572.54 2674.83 2572.66 2676.96 2574.79 2678.41L2637.33 2714.5C2638.66 2715.19 2640.14 2715.55 2641.64 2715.55C2643.15 2715.55 2644.62 2715.19 2645.96 2714.5L2699.98 2683.23C2702.34 2681.89 2702.23 2679.76 2699.98 2678.3L2637.44 2642.21C2636.12 2641.54 2634.66 2641.19 2633.18 2641.19C2631.7 2641.19 2630.24 2641.54 2628.92 2642.21ZM3400.85 2377.02C3402.18 2377.71 3403.66 2378.07 3405.16 2378.07C3406.66 2378.07 3408.14 2377.71 3409.48 2377.02L3463.5 2345.75C3465.86 2344.4 3465.74 2342.27 3463.5 2340.82L3400.96 2304.72C3399.62 2304.04 3398.14 2303.68 3396.64 2303.68C3395.14 2303.68 3393.66 2304.04 3392.33 2304.72L3338.19 2336C3335.95 2337.34 3336.06 2339.47 3338.19 2340.93L3400.85 2377.02ZM2707.94 2596.59L2653.81 2627.86C2651.56 2629.1 2651.68 2631.34 2653.81 2632.8L2716.35 2668.89C2717.68 2669.57 2719.16 2669.93 2720.66 2669.93C2722.16 2669.93 2723.64 2669.57 2724.98 2668.89L2779 2637.61C2781.36 2636.27 2781.25 2634.03 2779 2632.68L2716.46 2596.59C2715.17 2595.96 2713.75 2595.63 2712.31 2595.63C2710.88 2595.63 2709.46 2595.96 2708.17 2596.59H2707.94ZM2115.69 3118.68C2117.03 3119.34 2118.51 3119.69 2120 3119.69C2121.5 3119.69 2122.98 3119.34 2124.32 3118.68L2178.46 3087.41C2180.7 3086.06 2180.59 3083.82 2178.46 3082.48L2115.91 3046.39C2114.58 3045.7 2113.1 3045.34 2111.6 3045.34C2110.1 3045.34 2108.62 3045.7 2107.28 3046.39L2053.26 3077.66C2050.9 3078.89 2051.02 3081.13 2053.26 3082.59L2115.69 3118.68ZM1996.88 3006.6L1942.74 3037.87C1940.5 3039.1 1940.61 3041.34 1942.74 3042.8L2005.29 3078.89C2006.63 3079.55 2008.1 3079.9 2009.6 3079.9C2011.1 3079.9 2012.57 3079.55 2013.92 3078.89L2067.94 3047.62C2070.29 3046.27 2070.18 3044.03 2067.94 3042.69L2005.4 3006.6C2004.03 3006.03 2002.54 3005.79 2001.06 3005.91C1999.58 3006.03 1998.15 3006.49 1996.88 3007.27V3006.6ZM2203 3073.85L2257.14 3042.58C2259.38 3041.23 2259.27 3038.99 2257.14 3037.64L2194.6 3001.55C2193.26 3000.86 2191.78 3000.51 2190.28 3000.51C2188.78 3000.51 2187.3 3000.86 2185.97 3001.55L2131.94 3032.71C2129.59 3034.06 2129.81 3036.3 2131.94 3037.76L2194.48 3073.85C2195.81 3074.51 2197.26 3074.85 2198.74 3074.85C2200.22 3074.85 2201.68 3074.51 2203 3073.85V3073.85ZM2282.13 3028.23L2336.16 2996.96C2338.51 2995.61 2338.29 2993.37 2336.16 2991.91L2273.62 2955.82C2272.27 2955.16 2270.8 2954.82 2269.3 2954.82C2267.8 2954.82 2266.33 2955.16 2264.98 2955.82L2210.96 2986.98C2208.72 2988.33 2208.83 2990.57 2210.96 2992.03L2273.5 3028.12C2274.89 3028.83 2276.43 3029.21 2277.99 3029.21C2279.55 3029.21 2281.08 3028.83 2282.47 3028.12L2282.13 3028.23ZM2360.59 2982.5L2414.62 2951.34C2416.97 2949.99 2416.75 2947.75 2414.62 2946.29L2352.19 2910.2C2350.84 2909.54 2349.37 2909.2 2347.87 2909.2C2346.37 2909.2 2344.9 2909.54 2343.56 2910.2L2289.42 2941.36C2287.18 2942.71 2287.29 2944.95 2289.42 2946.41L2351.96 2982.5C2353.43 2983.3 2355.07 2983.7 2356.74 2983.68C2358.41 2983.67 2360.04 2983.22 2361.49 2982.39L2360.59 2982.5ZM2075.9 2961.76L2021.76 2992.92C2019.52 2994.27 2019.63 2996.51 2021.76 2997.97L2084.3 3034.06C2085.65 3034.72 2087.12 3035.06 2088.62 3035.06C2090.12 3035.06 2091.59 3034.72 2092.94 3034.06L2146.96 3002.79C2149.31 3001.44 2149.2 2999.2 2146.96 2997.85L2084.53 2961.76C2083.19 2961.1 2081.71 2960.76 2080.21 2960.76C2078.72 2960.76 2077.24 2961.1 2075.9 2961.76ZM2154.92 2916.14L2100.78 2947.3C2098.54 2948.65 2098.65 2950.89 2100.78 2952.35L2163.32 2988.44C2164.66 2989.13 2166.14 2989.49 2167.64 2989.49C2169.14 2989.49 2170.62 2989.13 2171.95 2988.44L2226.09 2957.28C2228.33 2955.93 2228.22 2953.69 2226.09 2952.24L2163.55 2916.14C2162.21 2915.46 2160.74 2915.1 2159.25 2915.08C2157.75 2915.06 2156.27 2915.39 2154.92 2916.03V2916.14ZM2471.11 2733.56L2416.97 2764.83C2414.62 2766.18 2414.84 2768.42 2416.97 2769.76L2479.51 2805.85C2480.85 2806.54 2482.33 2806.9 2483.83 2806.9C2485.33 2806.9 2486.81 2806.54 2488.14 2805.85L2542.17 2774.58C2544.52 2773.35 2544.3 2771.11 2542.17 2769.65L2479.63 2733.56C2478.31 2732.88 2476.86 2732.52 2475.38 2732.5C2473.9 2732.48 2472.44 2732.8 2471.11 2733.45V2733.56ZM2391.98 2779.29L2337.5 2810.34C2335.15 2811.68 2335.37 2813.92 2337.5 2815.27L2399.93 2851.47C2401.28 2852.13 2402.75 2852.48 2404.25 2852.48C2405.75 2852.48 2407.22 2852.13 2408.56 2851.47L2462.7 2820.31C2464.94 2818.97 2464.83 2816.73 2462.7 2815.27L2400.16 2779.18C2398.88 2778.56 2397.48 2778.24 2396.07 2778.24C2394.65 2778.24 2393.25 2778.56 2391.98 2779.18V2779.29ZM2550.46 2687.83L2496.33 2719.1C2494.09 2720.45 2494.2 2722.69 2496.33 2724.03L2558.87 2760.12C2560.2 2760.81 2561.68 2761.17 2563.19 2761.17C2564.69 2761.17 2566.17 2760.81 2567.5 2760.12L2621.52 2728.85C2623.88 2727.62 2623.65 2725.38 2621.52 2723.92L2559.09 2687.83C2557.76 2687.14 2556.28 2686.78 2554.78 2686.78C2553.28 2686.78 2551.8 2687.14 2550.46 2687.83V2687.83ZM2234.27 2870.41L2180.25 2901.57C2177.9 2902.92 2178.01 2905.16 2180.25 2906.62L2242.79 2942.71C2244.13 2943.37 2245.61 2943.72 2247.11 2943.72C2248.6 2943.72 2250.08 2943.37 2251.42 2942.71L2305.56 2911.55C2307.8 2910.2 2307.69 2907.96 2305.56 2906.51L2243.02 2870.41C2241.62 2869.68 2240.06 2869.29 2238.48 2869.29C2236.9 2869.29 2235.34 2869.68 2233.94 2870.41H2234.27ZM2313.29 2824.8L2259.04 2855.96C2256.69 2857.3 2256.8 2859.54 2259.04 2861L2321.59 2897.09C2322.93 2897.75 2324.41 2898.1 2325.9 2898.1C2327.4 2898.1 2328.88 2897.75 2330.22 2897.09L2384.35 2865.93C2386.6 2864.59 2386.48 2862.34 2384.35 2860.89L2321.81 2824.8C2320.45 2824.07 2318.93 2823.69 2317.38 2823.69C2315.84 2823.69 2314.32 2824.07 2312.96 2824.8H2313.29ZM2255.57 3146.93L2309.71 3115.65C2311.95 3114.31 2311.84 3112.07 2309.71 3110.72L2247.16 3074.52C2245.82 3073.86 2244.34 3073.51 2242.85 3073.51C2241.35 3073.51 2239.87 3073.86 2238.53 3074.52L2184.51 3105.68C2182.15 3107.02 2182.38 3109.27 2184.51 3110.72L2246.94 3146.81C2248.23 3147.44 2249.64 3147.78 2251.07 3147.8C2252.51 3147.81 2253.93 3147.52 2255.23 3146.93H2255.57ZM1791.88 3100.07L1729.33 3063.98C1728 3063.3 1726.52 3062.94 1725.02 3062.94C1723.52 3062.94 1722.04 3063.3 1720.7 3063.98L1666.57 3095.26C1664.33 3096.49 1664.44 3098.73 1666.57 3100.19L1729.11 3136.28C1730.44 3136.97 1731.92 3137.32 1733.43 3137.32C1734.93 3137.32 1736.41 3136.97 1737.74 3136.28L1791.76 3105.01C1794.12 3103.66 1793.89 3101.42 1791.54 3100.07H1791.88ZM1910.24 3134.82L1847.7 3098.73C1846.36 3098.04 1844.88 3097.68 1843.38 3097.68C1841.88 3097.68 1840.4 3098.04 1839.06 3098.73L1755.9 3146.81C1753.66 3148.16 1753.77 3150.29 1755.9 3151.75L1818.44 3187.84C1819.78 3188.52 1821.25 3188.88 1822.76 3188.88C1824.26 3188.88 1825.74 3188.52 1827.07 3187.84L1910.24 3139.75C1912.59 3138.41 1912.37 3136.28 1909.9 3134.82H1910.24ZM1695.93 3030.25L1633.39 2994.16C1632.06 2993.47 1630.58 2993.11 1629.07 2993.11C1627.57 2993.11 1626.09 2993.47 1624.76 2994.16L1558.18 3032.6C1555.83 3033.95 1556.05 3036.19 1558.18 3037.64L1620.72 3073.73C1622.07 3074.4 1623.54 3074.74 1625.04 3074.74C1626.54 3074.74 1628.01 3074.4 1629.35 3073.73L1695.82 3035.29C1698.62 3033.94 1698.62 3031.7 1695.6 3030.25H1695.93ZM1746.93 3000.77C1748.27 3001.46 1749.75 3001.82 1751.25 3001.82C1752.75 3001.82 1754.23 3001.46 1755.56 3000.77L1809.59 2969.5C1811.94 2968.15 1811.83 2966.02 1809.59 2964.56L1747.04 2928.47C1745.71 2927.79 1744.23 2927.43 1742.73 2927.43C1741.23 2927.43 1739.75 2927.79 1738.41 2928.47L1684.28 2959.75C1682.03 2961.09 1682.15 2963.22 1684.28 2964.68L1746.93 3000.77ZM2020.08 3174.72L1957.54 3138.63C1956.2 3137.94 1954.72 3137.58 1953.22 3137.58C1951.72 3137.58 1950.24 3137.94 1948.91 3138.63L1844.89 3198.71C1842.65 3200.05 1842.76 3202.3 1844.89 3203.64L1907.44 3239.73C1908.77 3240.42 1910.25 3240.78 1911.75 3240.78C1913.25 3240.78 1914.73 3240.42 1916.07 3239.73L2020.08 3179.65C2022.66 3177.97 2022.55 3175.84 2020.08 3174.72ZM2071.98 3247.91L2009.43 3211.82C2008.1 3211.13 2006.62 3210.78 2005.12 3210.78C2003.62 3210.78 2002.14 3211.13 2000.8 3211.82L1934 3249.71C1931.76 3251.05 1931.87 3253.29 1934 3254.64L1996.54 3290.84C1997.89 3291.5 1999.36 3291.85 2000.86 3291.85C2002.35 3291.85 2003.83 3291.5 2005.17 3290.84L2071.75 3252.4C2074.55 3251.16 2074.44 3249.03 2071.98 3247.58V3247.91ZM2334.25 2661.83C2335.57 2662.51 2337.03 2662.87 2338.51 2662.87C2340 2662.87 2341.46 2662.51 2342.77 2661.83L2396.91 2630.55C2399.15 2629.32 2399.04 2627.08 2396.91 2625.62L2334.36 2589.53C2333.03 2588.84 2331.55 2588.48 2330.05 2588.48C2328.55 2588.48 2327.07 2588.84 2325.73 2589.53L2271.71 2620.8C2269.36 2622.15 2269.58 2624.39 2271.71 2625.73L2334.25 2661.83ZM2176.1 2753.17C2177.44 2753.84 2178.92 2754.18 2180.42 2754.18C2181.91 2754.18 2183.39 2753.84 2184.73 2753.17L2238.87 2721.9C2241.11 2720.67 2241 2718.43 2238.87 2716.97L2176.33 2680.88C2174.98 2680.22 2173.51 2679.87 2172.01 2679.87C2170.51 2679.87 2169.04 2680.22 2167.7 2680.88L2113.33 2711.7C2110.98 2713.05 2111.09 2715.29 2113.33 2716.63L2176.1 2753.17ZM1825.61 2955.49C1826.96 2956.15 1828.43 2956.49 1829.93 2956.49C1831.43 2956.49 1832.9 2956.15 1834.24 2955.49L1888.27 2924.21C1890.62 2922.87 1890.51 2920.63 1888.27 2919.28L1825.5 2883.3C1824.17 2882.62 1822.69 2882.26 1821.19 2882.26C1819.69 2882.26 1818.21 2882.62 1816.87 2883.3L1762.74 2914.58C1760.49 2915.81 1760.61 2918.05 1762.74 2919.51L1825.61 2955.49ZM2255.12 2707.44C2256.46 2708.13 2257.94 2708.49 2259.44 2708.49C2260.94 2708.49 2262.42 2708.13 2263.75 2707.44L2317.89 2676.17C2320.13 2674.94 2320.02 2672.7 2317.89 2671.24L2255.35 2635.15C2254.01 2634.46 2252.53 2634.1 2251.03 2634.1C2249.53 2634.1 2248.05 2634.46 2246.71 2635.15L2192.69 2666.42C2190.34 2667.77 2190.56 2670.01 2192.69 2671.35L2255.12 2707.44ZM2097.08 2798.79C2098.42 2799.45 2099.9 2799.8 2101.4 2799.8C2102.89 2799.8 2104.37 2799.45 2105.71 2798.79L2159.85 2767.63C2162.09 2766.29 2161.98 2764.05 2159.85 2762.59L2096.97 2726.39C2095.64 2725.7 2094.16 2725.34 2092.66 2725.34C2091.15 2725.34 2089.67 2725.7 2088.34 2726.39L2034.88 2757.32C2032.52 2758.67 2032.63 2760.91 2034.88 2762.36L2097.08 2798.79ZM2115.35 3253.18C2114.02 3252.49 2112.54 3252.13 2111.04 3252.13C2109.54 3252.13 2108.06 3252.49 2106.72 3253.18L2023.67 3301.27C2021.43 3302.61 2021.54 3304.85 2023.67 3306.31L2086.43 3342.85C2087.78 3343.51 2089.25 3343.86 2090.75 3343.86C2092.25 3343.86 2093.72 3343.51 2095.06 3342.85L2178.23 3294.88C2180.47 3293.53 2180.36 3291.29 2178.23 3289.83L2115.35 3253.18ZM1983.65 2863.69C1984.99 2864.38 1986.47 2864.74 1987.97 2864.74C1989.47 2864.74 1990.95 2864.38 1992.28 2863.69L2046.08 2832.87C2048.33 2831.52 2048.21 2829.28 2046.08 2827.82L1983.54 2791.73C1982.2 2791.07 1980.72 2790.72 1979.23 2790.72C1977.73 2790.72 1976.25 2791.07 1974.91 2791.73L1920.89 2822.89C1918.53 2824.24 1918.64 2826.48 1920.89 2827.93L1983.65 2863.69ZM1904.63 2909.31C1905.98 2909.97 1907.45 2910.31 1908.95 2910.31C1910.45 2910.31 1911.92 2909.97 1913.26 2909.31L1967.4 2878.04C1969.64 2876.69 1969.53 2874.45 1967.4 2873.1L1904.86 2837.01C1903.52 2836.32 1902.04 2835.97 1900.54 2835.97C1899.04 2835.97 1897.56 2836.32 1896.23 2837.01L1842.09 2868.17C1839.85 2869.52 1839.96 2871.76 1842.09 2873.22L1904.63 2909.31ZM3579.62 2408.07C3578.28 2407.4 3576.8 2407.06 3575.31 2407.06C3573.81 2407.06 3572.33 2407.4 3570.99 2408.07L3437.83 2484.96C3435.59 2486.3 3435.71 2488.54 3437.83 2489.89L3500.38 2526.09C3501.72 2526.75 3503.2 2527.1 3504.69 2527.1C3506.19 2527.1 3507.67 2526.75 3509.01 2526.09L3642.05 2449.2C3644.41 2447.97 3644.29 2445.73 3642.05 2444.27L3579.62 2408.07ZM3404.88 2508.94C3403.55 2508.25 3402.07 2507.89 3400.57 2507.89C3399.07 2507.89 3397.59 2508.25 3396.25 2508.94L3342.23 2540.21C3339.87 2541.56 3339.99 2543.8 3342.23 2545.15L3404.77 2581.24C3406.1 2581.92 3407.58 2582.28 3409.09 2582.28C3410.59 2582.28 3412.07 2581.92 3413.4 2581.24L3467.54 2549.97C3469.78 2548.73 3469.67 2546.49 3467.54 2545.03L3404.88 2508.94ZM2334.36 3101.2L2388.39 3070.04C2390.63 3068.69 2390.52 3066.45 2388.39 3064.99L2325.51 3029.01C2324.17 3028.35 2322.69 3028.01 2321.19 3028.01C2319.7 3028.01 2318.22 3028.35 2316.88 3029.01L2262.86 3060.17C2260.5 3061.52 2260.73 3063.76 2262.86 3065.22L2325.4 3101.31C2326.78 3102.04 2328.33 3102.41 2329.9 3102.39C2331.46 3102.37 2333 3101.96 2334.36 3101.2V3101.2ZM3246.84 2600.18C3245.51 2599.49 3244.03 2599.13 3242.53 2599.13C3241.03 2599.13 3239.55 2599.49 3238.21 2600.18L3184.08 2631.34C3181.83 2632.68 3181.95 2634.92 3184.08 2636.38L3246.62 2672.47C3247.96 2673.14 3249.44 2673.48 3250.93 2673.48C3252.43 2673.48 3253.91 2673.14 3255.25 2672.47L3309.27 2641.31C3311.63 2639.97 3311.52 2637.73 3309.27 2636.27L3246.84 2600.18ZM3658.64 2362.45C3657.31 2361.76 3655.83 2361.4 3654.33 2361.4C3652.82 2361.4 3651.34 2361.76 3650.01 2362.45L3595.87 2393.72C3593.63 2395.06 3593.74 2397.31 3595.87 2398.65L3658.42 2434.74C3659.75 2435.43 3661.23 2435.79 3662.73 2435.79C3664.23 2435.79 3665.71 2435.43 3667.05 2434.74L3721.07 2403.47C3723.43 2402.24 3723.31 2400 3721.07 2398.54L3658.64 2362.45ZM3800.2 2352.92L3648.89 2265.27C3647.56 2264.58 3646.08 2264.22 3644.57 2264.22C3643.07 2264.22 3641.59 2264.58 3640.26 2265.27L3586.23 2296.54C3583.88 2297.78 3583.99 2300.02 3586.23 2301.47L3738.11 2389.12C3739.44 2389.81 3740.92 2390.17 3742.42 2390.17C3743.93 2390.17 3745.4 2389.81 3746.74 2389.12L3800.88 2357.85C3802.78 2356.51 3802.67 2354.38 3800.2 2352.92V2352.92ZM2951.5 2771.22C2950.16 2770.56 2948.68 2770.21 2947.19 2770.21C2945.69 2770.21 2944.21 2770.56 2942.87 2771.22L2876.29 2809.66C2874.05 2810.9 2874.16 2813.14 2876.29 2814.6L2938.84 2850.69C2940.17 2851.38 2941.65 2851.73 2943.15 2851.73C2944.65 2851.73 2946.13 2851.38 2947.47 2850.69L3013.93 2812.24C3016.29 2810.9 3016.17 2808.66 3013.93 2807.2L2951.5 2771.22ZM3151.12 2656C3149.78 2655.33 3148.3 2654.99 3146.81 2654.99C3145.31 2654.99 3143.83 2655.33 3142.49 2656L3059.33 2704.08C3057.08 2705.43 3057.2 2707.67 3059.33 2709.01L3122.09 2744.32C3123.43 2745.01 3124.91 2745.37 3126.41 2745.37C3127.91 2745.37 3129.39 2745.01 3130.72 2744.32L3213.89 2696.23C3216.13 2695 3216.02 2692.76 3213.89 2691.3L3151.12 2656ZM2768.47 2876.91C2767.13 2876.23 2765.65 2875.87 2764.15 2875.87C2762.65 2875.87 2761.17 2876.23 2759.84 2876.91L2315.09 3133.14C2312.73 3134.48 2312.96 3136.73 2315.09 3138.18L2377.63 3174.27C2378.97 3174.94 2380.45 3175.28 2381.94 3175.28C2383.44 3175.28 2384.92 3174.94 2386.26 3174.27L2831.23 2917.38C2833.59 2916.03 2833.48 2913.79 2831.23 2912.33L2768.47 2876.91ZM2298.39 3148.27C2297.04 3147.61 2295.57 3147.26 2294.07 3147.26C2292.57 3147.26 2291.1 3147.61 2289.76 3148.27L2223.18 3185.93C2220.94 3187.28 2221.05 3189.41 2223.18 3190.86L2285.72 3226.95C2287.05 3227.64 2288.53 3228 2290.04 3228C2291.54 3228 2293.02 3227.64 2294.35 3226.95L2360.93 3188.51C2363.17 3187.16 2363.06 3184.92 2360.93 3183.58L2298.39 3148.27ZM2859.93 2824.12C2858.59 2823.44 2857.11 2823.08 2855.61 2823.08C2854.11 2823.08 2852.63 2823.44 2851.3 2824.12L2784.83 2862.57C2782.48 2863.91 2782.59 2866.15 2784.83 2867.61L2847.37 2903.7C2848.72 2904.37 2850.19 2904.71 2851.69 2904.71C2853.19 2904.71 2854.66 2904.37 2856.01 2903.7L2922.58 2865.26C2924.83 2863.91 2924.71 2861.78 2922.58 2860.33L2859.93 2824.12ZM2206.93 3201.17C2205.59 3200.49 2204.11 3200.13 2202.61 3200.13C2201.11 3200.13 2199.63 3200.49 2198.29 3201.17L2131.72 3239.62C2129.36 3240.96 2129.59 3243.21 2131.72 3244.66L2194.26 3280.75C2195.6 3281.42 2197.08 3281.76 2198.57 3281.76C2200.07 3281.76 2201.55 3281.42 2202.89 3280.75L2270.25 3241.97C2272.61 3240.63 2272.49 3238.5 2270.25 3237.04L2206.93 3201.17ZM3042.96 2718.43C3041.62 2717.77 3040.14 2717.42 3038.65 2717.42C3037.15 2717.42 3035.67 2717.77 3034.33 2718.43L2967.75 2756.87C2965.51 2758.22 2965.62 2760.46 2967.75 2761.92L3030.3 2798.01C3031.63 2798.7 3033.11 2799.05 3034.61 2799.05C3036.11 2799.05 3037.59 2798.7 3038.93 2798.01L3105.5 2759.67C3107.75 2758.33 3107.63 2756.09 3105.5 2754.63L3042.96 2718.43ZM3325.86 2555.12C3324.52 2554.46 3323.04 2554.11 3321.55 2554.11C3320.05 2554.11 3318.57 2554.46 3317.23 2555.12L3263.1 2586.39C3260.85 2587.74 3260.97 2589.98 3263.1 2591.32L3325.64 2627.53C3326.98 2628.19 3328.46 2628.53 3329.95 2628.53C3331.45 2628.53 3332.93 2628.19 3334.27 2627.53L3388.41 2596.37C3390.65 2595.02 3390.54 2592.78 3388.41 2591.32L3325.86 2555.12ZM3499.03 2429.36L3553.06 2398.09C3555.41 2396.75 3555.3 2394.62 3553.06 2393.16L3490.29 2356.51C3488.96 2355.82 3487.48 2355.46 3485.97 2355.46C3484.47 2355.46 3482.99 2355.82 3481.66 2356.51L3427.52 2387.78C3425.28 2389.12 3425.39 2391.37 3427.52 2392.71L3490.07 2428.8C3491.44 2429.55 3492.98 2429.94 3494.55 2429.94C3496.12 2429.94 3497.66 2429.55 3499.03 2428.8V2429.36ZM3145.63 2427.12L3199.77 2395.85C3202.01 2394.5 3201.9 2392.26 3199.77 2390.92L3137.22 2354.83C3135.89 2354.14 3134.41 2353.78 3132.91 2353.78C3131.41 2353.78 3129.93 2354.14 3128.59 2354.83L3074.57 2386.1C3072.22 2387.33 3072.33 2389.57 3074.57 2391.03L3137.11 2427.12C3138.48 2427.68 3139.96 2427.92 3141.44 2427.82C3142.91 2427.72 3144.35 2427.29 3145.63 2426.56V2427.12ZM2966.3 2736.81L3124.34 2645.46C3126.58 2644.23 3126.46 2641.99 3124.34 2640.53L3061.79 2604.44C3060.46 2603.75 3058.98 2603.39 3057.48 2603.39C3055.98 2603.39 3054.5 2603.75 3053.16 2604.44L2895.12 2695.67C2892.77 2697.02 2892.99 2699.26 2895.12 2700.72L2957.67 2736.81C2959.1 2737.44 2960.66 2737.72 2962.22 2737.62C2963.78 2737.53 2965.29 2737.05 2966.63 2736.25L2966.3 2736.81ZM3411.05 2474.76C3412.38 2475.44 3413.86 2475.8 3415.36 2475.8C3416.86 2475.8 3418.34 2475.44 3419.68 2474.76L3473.7 2443.6C3476.06 2442.25 3475.83 2440.01 3473.7 2438.55L3411.16 2402.46C3409.82 2401.8 3408.34 2401.46 3406.84 2401.46C3405.35 2401.46 3403.87 2401.8 3402.53 2402.46L3348.39 2433.73C3346.15 2435.08 3346.26 2437.32 3348.39 2438.67L3411.05 2474.76ZM3330.35 2423.42L3384.37 2392.15C3386.72 2390.92 3386.61 2388.68 3384.37 2387.22L3321.83 2351.13C3320.49 2350.44 3319.01 2350.08 3317.51 2350.08C3316.01 2350.08 3314.53 2350.44 3313.2 2351.13L3259.06 2382.4C3256.82 2383.74 3256.93 2385.99 3259.06 2387.33L3321.6 2423.42C3323.04 2424.1 3324.63 2424.41 3326.21 2424.31C3327.8 2424.21 3329.34 2423.71 3330.68 2422.86L3330.35 2423.42ZM2887.16 2782.09L2941.3 2750.82C2943.54 2749.47 2943.43 2747.23 2941.3 2745.89L2878.76 2709.8C2877.42 2709.11 2875.94 2708.75 2874.44 2708.75C2872.94 2708.75 2871.46 2709.11 2870.13 2709.8L2816.1 2741.07C2813.75 2742.3 2813.97 2744.54 2816.1 2746L2878.53 2782.09C2879.89 2782.86 2881.42 2783.29 2882.98 2783.35C2884.54 2783.41 2886.09 2783.09 2887.5 2782.43L2887.16 2782.09ZM3236.31 2575.3C3237.64 2575.98 3239.12 2576.34 3240.62 2576.34C3242.12 2576.34 3243.6 2575.98 3244.94 2575.3L3299.07 2544.02C3301.32 2542.79 3301.2 2540.55 3299.07 2539.09L3236.53 2503C3235.2 2502.31 3233.72 2501.95 3232.22 2501.95C3230.71 2501.95 3229.24 2502.31 3227.9 2503L3173.88 2534.27C3171.52 2535.62 3171.63 2537.86 3173.88 2539.2L3236.31 2575.3ZM2492.07 3010.18L2546.09 2979.02C2548.45 2977.68 2548.22 2975.44 2546.09 2973.98L2483.21 2937.66C2481.87 2937 2480.39 2936.66 2478.9 2936.66C2477.4 2936.66 2475.92 2937 2474.58 2937.66L2420.45 2968.94C2418.2 2970.28 2418.32 2972.52 2420.45 2973.98L2482.99 3010.07C2484.44 3010.85 2486.06 3011.25 2487.71 3011.23C2489.36 3011.21 2490.97 3010.77 2492.4 3009.96L2492.07 3010.18ZM2571.09 2964.56L2625.11 2933.41C2627.47 2932.06 2627.35 2929.82 2625.11 2928.36L2562.57 2892.27C2561.23 2891.61 2559.75 2891.26 2558.25 2891.26C2556.76 2891.26 2555.28 2891.61 2553.94 2892.27L2499.8 2923.54C2497.56 2924.89 2497.67 2927.13 2499.8 2928.47L2562.34 2964.56C2563.75 2965.3 2565.33 2965.66 2566.91 2965.62C2568.5 2965.58 2570.05 2965.14 2571.42 2964.34L2571.09 2964.56ZM2413.05 3055.8L2467.07 3024.64C2469.43 3023.3 2469.2 3021.06 2467.07 3019.6L2404.75 2983.28C2403.42 2982.59 2401.94 2982.24 2400.44 2982.24C2398.94 2982.24 2397.46 2982.59 2396.12 2983.28L2341.99 3014.44C2339.74 3015.79 2339.86 3018.03 2341.99 3019.49L2404.53 3055.58C2405.9 3056.28 2407.42 3056.64 2408.96 3056.64C2410.5 3056.64 2412.01 3056.28 2413.38 3055.58L2413.05 3055.8ZM2729.8 2873.1L2783.93 2841.83C2786.18 2840.49 2786.06 2838.36 2783.93 2836.9L2721.39 2800.81C2720.06 2800.12 2718.58 2799.76 2717.08 2799.76C2715.58 2799.76 2714.1 2800.12 2712.76 2800.81L2658.74 2832.08C2656.38 2833.43 2656.5 2835.56 2658.74 2837.01L2721.28 2873.1C2722.6 2873.77 2724.06 2874.12 2725.54 2874.12C2727.02 2874.12 2728.48 2873.77 2729.8 2873.1ZM2650.78 2918.72L2704.92 2887.45C2707.16 2886.22 2707.05 2883.98 2704.92 2882.52L2642.37 2846.43C2641.04 2845.74 2639.56 2845.38 2638.06 2845.38C2636.56 2845.38 2635.08 2845.74 2633.74 2846.43L2579.61 2877.7C2577.36 2879.04 2577.48 2881.29 2579.61 2882.63L2642.15 2918.72C2643.44 2919.36 2644.86 2919.68 2646.3 2919.68C2647.73 2919.68 2649.15 2919.36 2650.44 2918.72H2650.78ZM2808.26 2827.26L2862.39 2795.99C2864.64 2794.64 2864.52 2792.52 2862.39 2791.06L2799.85 2754.97C2798.52 2754.28 2797.04 2753.92 2795.54 2753.92C2794.03 2753.92 2792.55 2754.28 2791.22 2754.97L2737.2 2786.24C2734.84 2787.58 2735.07 2789.71 2737.2 2791.17L2799.74 2827.26C2801.06 2827.93 2802.52 2828.28 2804 2828.28C2805.48 2828.28 2806.94 2827.93 2808.26 2827.26ZM3169.84 2152.18C3171.18 2152.87 3172.65 2153.23 3174.16 2153.23C3175.66 2153.23 3177.14 2152.87 3178.47 2152.18L3232.61 2120.91C3234.85 2119.56 3234.74 2117.43 3232.61 2115.97L3215.91 2106.34C3214.57 2105.65 3213.09 2105.29 3211.59 2105.29C3210.09 2105.29 3208.61 2105.65 3207.28 2106.34L3153.25 2137.49C3151.01 2138.84 3151.12 2141.08 3153.25 2142.54L3169.84 2152.18ZM2781.02 2403.25C2782.36 2403.91 2783.84 2404.25 2785.34 2404.25C2786.83 2404.25 2788.31 2403.91 2789.65 2403.25L2843.68 2372.09C2846.03 2370.74 2845.92 2368.5 2843.68 2367.04L2781.13 2330.95C2779.8 2330.26 2778.32 2329.91 2776.82 2329.91C2775.32 2329.91 2773.84 2330.26 2772.5 2330.95L2718.59 2362.34C2716.35 2363.68 2716.46 2365.92 2718.59 2367.38L2781.02 2403.25ZM2939.06 2311.9C2940.39 2312.59 2941.87 2312.95 2943.37 2312.95C2944.88 2312.95 2946.36 2312.59 2947.69 2311.9L3001.83 2280.74C3004.07 2279.39 3003.96 2277.15 3001.83 2275.69L2939.28 2239.6C2937.94 2238.94 2936.47 2238.6 2934.97 2238.6C2933.47 2238.6 2932 2238.94 2930.65 2239.6L2876.52 2270.88C2874.27 2272.22 2874.39 2274.46 2876.52 2275.81L2939.06 2311.9ZM2684.96 2459.18C2686.3 2459.86 2687.78 2460.22 2689.28 2460.22C2690.78 2460.22 2692.26 2459.86 2693.59 2459.18L2747.62 2428.02C2749.97 2426.67 2749.86 2424.43 2747.62 2422.97L2684.96 2386.99C2683.62 2386.33 2682.15 2385.99 2680.65 2385.99C2679.15 2385.99 2677.68 2386.33 2676.33 2386.99L2622.2 2418.15C2619.96 2419.5 2620.07 2421.74 2622.2 2423.2L2684.96 2459.18ZM2860.49 2358.3C2861.83 2358.96 2863.31 2359.31 2864.8 2359.31C2866.3 2359.31 2867.78 2358.96 2869.12 2358.3L2923.14 2327.14C2925.5 2325.8 2925.39 2323.55 2923.14 2322.1L2860.6 2286.01C2859.27 2285.32 2857.79 2284.96 2856.29 2284.96C2854.78 2284.96 2853.3 2285.32 2851.97 2286.01L2797.05 2316.72C2794.81 2318.06 2794.92 2320.3 2797.05 2321.65L2860.49 2358.3ZM2526.7 2550.41C2528.04 2551.08 2529.52 2551.42 2531.02 2551.42C2532.51 2551.42 2533.99 2551.08 2535.33 2550.41L2589.36 2519.14C2591.6 2517.8 2591.49 2515.56 2589.36 2514.21L2526.81 2478.12C2525.48 2477.43 2524 2477.07 2522.5 2477.07C2521 2477.07 2519.52 2477.43 2518.18 2478.12L2464.16 2509.28C2461.8 2510.62 2462.03 2512.86 2464.16 2514.32L2526.7 2550.41ZM2605.72 2504.8C2607.06 2505.48 2608.53 2505.84 2610.04 2505.84C2611.54 2505.84 2613.02 2505.48 2614.35 2504.8L2668.38 2473.64C2670.73 2472.29 2670.51 2470.05 2668.38 2468.59L2605.95 2432.5C2604.6 2431.84 2603.13 2431.49 2601.63 2431.49C2600.13 2431.49 2598.66 2431.84 2597.31 2432.5L2543.18 2463.66C2540.94 2465.01 2541.05 2467.25 2543.18 2468.7L2605.72 2504.8ZM3012.03 2243.64C3013.36 2244.33 3014.84 2244.69 3016.34 2244.69C3017.84 2244.69 3019.32 2244.33 3020.66 2243.64L3074.68 2212.48C3077.04 2211.13 3076.92 2208.89 3074.68 2207.44L3057.98 2197.8C3056.64 2197.13 3055.16 2196.79 3053.67 2196.79C3052.17 2196.79 3050.69 2197.13 3049.35 2197.8L2995.33 2228.96C2992.97 2230.3 2993.08 2232.54 2995.33 2234L3012.03 2243.64ZM3249.08 2106.78C3250.42 2107.47 3251.9 2107.83 3253.4 2107.83C3254.9 2107.83 3256.38 2107.47 3257.72 2106.78L3311.85 2075.51C3314.09 2074.17 3313.98 2071.93 3311.85 2070.58L3295.26 2060.94C3293.92 2060.28 3292.44 2059.93 3290.95 2059.93C3289.45 2059.93 3287.98 2060.28 3286.63 2060.94L3232.5 2092.21C3230.25 2093.56 3230.37 2095.8 3232.5 2097.14L3249.08 2106.78ZM3380.45 2182.66C3381.79 2183.33 3383.27 2183.67 3384.76 2183.67C3386.26 2183.67 3387.74 2183.33 3389.08 2182.66L3443.21 2151.51C3445.46 2150.16 3445.34 2147.92 3443.21 2146.46L3379.89 2110.48C3378.55 2109.82 3377.07 2109.48 3375.57 2109.48C3374.08 2109.48 3372.6 2109.82 3371.26 2110.48L3317.23 2141.64C3314.88 2142.99 3314.99 2145.23 3317.23 2146.69L3380.45 2182.66ZM3578.05 2383.18L3632.08 2351.91C3634.43 2350.57 3634.32 2348.44 3632.08 2346.98L3569.53 2310.89C3568.2 2310.2 3566.72 2309.84 3565.22 2309.84C3563.72 2309.84 3562.24 2310.2 3560.9 2310.89L3506.77 2342.16C3504.52 2343.51 3504.64 2345.64 3506.77 2347.09L3569.31 2383.18C3570.66 2383.89 3572.16 2384.26 3573.68 2384.26C3575.2 2384.26 3576.7 2383.89 3578.05 2383.18V2383.18ZM3091.05 2198.02C3092.38 2198.71 3093.86 2199.07 3095.36 2199.07C3096.86 2199.07 3098.34 2198.71 3099.68 2198.02L3153.81 2166.75C3156.05 2165.52 3155.94 2163.27 3153.81 2161.82L3137.11 2152.18C3135.77 2151.52 3134.29 2151.17 3132.8 2151.17C3131.3 2151.17 3129.82 2151.52 3128.48 2152.18L3074.46 2183.34C3072.1 2184.68 3072.33 2186.92 3074.46 2188.38L3091.05 2198.02ZM2447.57 2596.03C2448.91 2596.69 2450.39 2597.04 2451.89 2597.04C2453.38 2597.04 2454.86 2596.69 2456.2 2596.03L2510.34 2564.76C2512.58 2563.42 2512.47 2561.17 2510.34 2559.83L2447.79 2523.74C2446.46 2523.05 2444.98 2522.69 2443.48 2522.69C2441.98 2522.69 2440.5 2523.05 2439.16 2523.74L2385.14 2555.01C2382.79 2556.24 2383.01 2558.48 2385.14 2559.94L2447.57 2596.03Z" fill="#E0E0E0"/>
<path d="M2768.92 3087.3L3360.83 2745.55L3725.11 2955.82L3133.19 3297.57L2768.92 3087.3Z" fill="#263238"/>
<path d="M1580.04 1060.7L3343.68 42.4155C3378.21 22.4645 3406.45 38.8288 3406.45 78.6187V1444.7C3405.86 1454.8 3402.92 1464.62 3397.86 1473.37C3392.8 1482.13 3385.76 1489.58 3377.31 1495.14L1568.83 2539.2C1552.8 2548.4 1539.69 2540.89 1539.69 2522.39V1130.53C1540.49 1116.55 1544.56 1102.95 1551.57 1090.82C1558.58 1078.7 1568.33 1068.38 1580.04 1060.7V1060.7Z" fill="#F5F5F5"/>
<path d="M3406.45 111.347V78.6188C3406.45 38.8288 3378.21 22.5767 3343.68 42.4156L1580.04 1060.7C1568.33 1068.38 1558.58 1078.7 1551.57 1090.82C1544.56 1102.95 1540.49 1116.55 1539.69 1130.53V1189.15L3406.45 111.347Z" fill="#263238"/>
<path d="M3143.39 185.883C3137.17 190.038 3132.01 195.585 3128.32 202.084C3124.62 208.583 3122.49 215.854 3122.09 223.32C3122.09 237.106 3131.84 242.71 3143.73 235.761C3150.03 231.701 3155.28 226.198 3159.04 219.709C3162.81 213.219 3164.97 205.928 3165.36 198.437C3165.02 184.651 3155.72 179.046 3143.39 185.883Z" fill="#E0E0E0"/>
<path d="M3229.13 136.454C3222.82 140.539 3217.57 146.062 3213.81 152.57C3210.05 159.078 3207.89 166.384 3207.5 173.89C3207.5 187.677 3217.14 193.169 3229.13 186.332C3235.48 182.183 3240.76 176.584 3244.52 169.998C3248.28 163.411 3250.42 156.024 3250.77 148.447C3250.77 135.109 3241.01 129.505 3229.13 136.454Z" fill="#E0E0E0"/>
<path d="M3314.88 86.913C3308.58 91.0112 3303.34 96.5373 3299.58 103.042C3295.82 109.547 3293.65 116.847 3293.25 124.349C3293.25 138.136 3302.89 143.74 3314.88 136.79C3321.15 132.704 3326.37 127.193 3330.11 120.707C3333.85 114.221 3336 106.943 3336.4 99.4664C3336.4 85.68 3326.76 80.0759 3314.88 86.913Z" fill="#E0E0E0"/>
<path d="M1539.69 1189.15V1451.99L3406.34 374.297V111.347L1539.69 1189.15Z" fill="#BA68C8"/>
<path opacity="0.1" d="M1539.69 1189.15V1451.99L3406.34 374.297V111.347L1539.69 1189.15Z" fill="black"/>
<path d="M1661.97 1315.02C1655.69 1316.97 1649.03 1317.32 1642.58 1316.03V1187.24C1642.53 1184.8 1643.07 1182.38 1644.15 1180.18C1645.49 1178.07 1647.34 1176.34 1649.53 1175.14L1659.17 1169.65C1661.64 1168.19 1663.43 1167.74 1664.55 1168.41C1665.67 1169.09 1666.23 1170.77 1666.23 1173.57V1215.94C1669.81 1210.39 1674.1 1205.34 1679.01 1200.92C1684.22 1196.19 1689.93 1192.06 1696.05 1188.59C1710.17 1180.41 1721.04 1178.5 1728.77 1183.1C1736.51 1187.69 1739.98 1198.12 1739.98 1214.26C1740.17 1232.37 1735.53 1250.21 1726.53 1265.93C1716.95 1282.13 1703.21 1295.48 1686.74 1304.6C1679.01 1309.2 1670.67 1312.71 1661.97 1315.02V1315.02ZM1708.82 1262.45C1714.1 1252.05 1716.68 1240.49 1716.33 1228.83C1716.33 1217.62 1714.31 1210.89 1710.39 1208.09C1706.47 1205.29 1699.86 1206.41 1690.55 1211.79C1683.92 1215.69 1678.16 1220.92 1673.63 1227.15C1668.98 1232.94 1666.37 1240.12 1666.23 1247.55V1291.71C1669.19 1292.03 1672.19 1291.64 1674.97 1290.59C1678.86 1289.32 1682.62 1287.67 1686.18 1285.65C1695.78 1280.23 1703.63 1272.18 1708.82 1262.45V1262.45Z" fill="#FAFAFA"/>
<path d="M1760.27 1257.07C1759.15 1256.29 1758.59 1254.72 1758.59 1252.03V1120.22C1758.52 1117.76 1759.1 1115.32 1760.27 1113.16C1761.54 1111 1763.41 1109.24 1765.65 1108.11L1775.62 1102.4C1778.09 1100.94 1779.88 1100.6 1781 1101.16C1782.13 1101.72 1782.69 1103.52 1782.69 1106.32V1238.13C1782.79 1240.51 1782.25 1242.87 1781.12 1244.97C1779.81 1247.17 1777.9 1248.95 1775.62 1250.12L1765.65 1255.84C1763.07 1257.3 1761.28 1258.08 1760.27 1257.07Z" fill="#FAFAFA"/>
<path d="M1814.41 1216.05C1805.55 1211.23 1801.18 1200.36 1801.18 1183.21C1801.13 1166.24 1805.7 1149.58 1814.41 1135.01C1823.56 1119.69 1836.59 1107.05 1852.18 1098.36C1868.43 1088.95 1881.1 1087.15 1889.95 1091.41C1898.81 1095.67 1903.29 1107.1 1903.29 1124.25C1903.35 1141.24 1898.74 1157.91 1889.95 1172.45C1880.81 1187.81 1867.78 1200.49 1852.18 1209.21C1835.81 1218.63 1823.26 1220.87 1814.41 1216.05ZM1872.47 1168.08C1877.25 1158.8 1879.64 1148.48 1879.41 1138.04C1879.41 1126.83 1877.06 1119.55 1872.47 1116.3C1867.87 1113.04 1861.26 1114.05 1852.18 1119.21C1843.63 1124.02 1836.6 1131.12 1831.89 1139.72C1827.04 1148.9 1824.61 1159.16 1824.83 1169.54C1824.83 1180.89 1827.18 1188.37 1831.89 1191.95C1836.6 1195.31 1843.1 1194.42 1852.18 1189.37C1860.79 1184.46 1867.83 1177.19 1872.47 1168.41V1168.08Z" fill="#FAFAFA"/>
<path d="M1948.46 1184.89C1943.45 1186.93 1938.06 1187.89 1932.65 1187.69C1930.64 1187.69 1930.19 1186.24 1931.2 1183.77L1936.58 1169.98C1937 1168.65 1937.77 1167.45 1938.82 1166.51C1939.44 1166.34 1940.1 1166.34 1940.73 1166.51C1950.34 1165.77 1959.61 1162.57 1967.63 1157.21C1975.23 1153.06 1981.61 1147 1986.12 1139.61C1990.35 1131.3 1992.36 1122.03 1991.95 1112.71C1988.63 1118.85 1984.48 1124.51 1979.62 1129.52C1974.56 1134.61 1968.83 1138.99 1962.58 1142.52C1948.57 1150.59 1937.59 1152.5 1929.74 1148.24C1921.89 1143.98 1917.97 1133.67 1917.97 1117.64C1917.83 1099.95 1922.68 1082.58 1931.98 1067.54C1942.09 1051.63 1956.04 1038.52 1972.56 1029.43C1980.04 1024.98 1988.12 1021.63 1996.54 1019.45C2002.72 1017.62 2009.23 1017.2 2015.6 1018.22V1092.76C2015.77 1109.34 2011.93 1125.73 2004.39 1140.51C1996.44 1155.31 1984.37 1167.5 1969.64 1175.59C1962.87 1179.3 1955.78 1182.41 1948.46 1184.89V1184.89ZM1985.33 1101.95C1989.61 1095.58 1991.91 1088.1 1991.95 1080.43V1041.76C1988.82 1042.02 1985.76 1042.77 1982.87 1044C1978.99 1045.52 1975.24 1047.35 1971.66 1049.49C1962.28 1054.47 1954.51 1062.02 1949.25 1071.24C1943.99 1080.47 1941.46 1091 1941.96 1101.61C1941.96 1112.82 1944.09 1119.1 1948.46 1121.9C1952.83 1124.7 1959.67 1123.36 1968.41 1118.31C1975.27 1114.28 1981.08 1108.67 1985.33 1101.95V1101.95Z" fill="#FAFAFA"/>
<path d="M1858.34 1384.29V2308.2C1858.34 2314.36 1861.59 2317.5 1865.52 2315.15C1867.79 2313.24 1869.61 2310.86 1870.85 2308.16C1872.09 2305.47 1872.72 2302.53 1872.69 2299.57V1375.66C1872.69 1369.49 1869.44 1366.47 1865.52 1368.82C1863.23 1370.69 1861.4 1373.06 1860.16 1375.73C1858.92 1378.41 1858.3 1381.34 1858.34 1384.29Z" fill="#BA68C8"/>
<path d="M1312.04 1742.73L1718.8 1507.36C1732.25 1499.62 1743.12 1505.9 1743.12 1521.37V1807.52C1742.66 1815.95 1740.22 1824.14 1736 1831.45C1731.77 1838.75 1725.88 1844.95 1718.8 1849.55L1312.04 2084.37C1298.71 2092.1 1287.83 2085.82 1287.83 2070.36V1784.88C1288.28 1776.45 1290.7 1768.24 1294.91 1760.92C1299.12 1753.59 1304.99 1747.37 1312.04 1742.73V1742.73Z" fill="#E0E0E0"/>
<path d="M1743.46 1521.82C1743.46 1506.35 1732.25 1500.07 1719.13 1507.81L1312.38 1743.18C1305.34 1747.8 1299.48 1754.01 1295.27 1761.31C1291.07 1768.62 1288.63 1776.8 1288.17 1785.21V1809.54L1743.46 1546.25V1521.82Z" fill="#BA68C8"/>
<path d="M1333.23 1835.43L1515.37 1730.29V1914.34L1333.23 2019.47V1835.43Z" fill="#FAFAFA"/>
<path d="M1333.34 1992.68L1401.6 1871.41C1402.14 1870.18 1402.99 1869.12 1404.06 1868.33C1405.14 1867.54 1406.41 1867.04 1407.74 1866.9C1409.07 1866.75 1410.41 1866.95 1411.63 1867.49C1412.86 1868.02 1413.92 1868.87 1414.71 1869.95L1438.59 1896.18L1479.72 1801.24C1482.19 1795.53 1487.01 1794.97 1490.93 1800.12L1515.81 1835.43V1913.89L1333.68 2019.02L1333.34 1992.68Z" fill="#BA68C8"/>
<path d="M1560.98 1719.87C1560.98 1728.61 1567.48 1731.97 1575.55 1727.27L1682.93 1665.28C1687.09 1662.65 1690.58 1659.08 1693.11 1654.85C1695.64 1650.63 1697.14 1645.87 1697.5 1640.96C1697.5 1632.22 1691 1628.86 1683.04 1633.56L1575.33 1695.21C1571.15 1697.88 1567.66 1701.51 1565.17 1705.8C1562.67 1710.09 1561.24 1714.91 1560.98 1719.87V1719.87Z" fill="#FAFAFA"/>
<path d="M1560.98 1796.09C1560.98 1804.83 1567.48 1808.19 1575.55 1803.6L1682.93 1741.5C1687.1 1738.88 1690.6 1735.31 1693.13 1731.09C1695.66 1726.86 1697.16 1722.09 1697.5 1717.18C1697.5 1708.44 1691 1705.19 1683.04 1709.78L1575.33 1771.2C1571.14 1773.92 1567.65 1777.59 1565.16 1781.91C1562.66 1786.24 1561.23 1791.1 1560.98 1796.09V1796.09Z" fill="#FAFAFA"/>
<path d="M1560.98 1871.18C1560.98 1880.04 1567.48 1883.29 1575.55 1878.69L1682.93 1816.6C1687.1 1814 1690.6 1810.45 1693.13 1806.25C1695.66 1802.04 1697.16 1797.29 1697.5 1792.39C1697.5 1783.64 1691 1780.28 1683.04 1784.88L1575.33 1846.97C1571.2 1849.59 1567.75 1853.15 1565.26 1857.36C1562.76 1861.57 1561.3 1866.3 1560.98 1871.18V1871.18Z" fill="#FAFAFA"/>
<path d="M1312.04 2185.69L1718.8 1950.87C1732.25 1943.14 1743.12 1949.42 1743.12 1964.88V2251.04C1742.66 2259.46 1740.22 2267.66 1736 2274.97C1731.77 2282.27 1725.88 2288.47 1718.8 2293.07L1312.04 2528.44C1298.71 2536.18 1287.83 2529.9 1287.83 2514.43V2227.72C1288.3 2219.31 1290.73 2211.12 1294.93 2203.82C1299.14 2196.52 1305 2190.31 1312.04 2185.69V2185.69Z" fill="#E0E0E0"/>
<path d="M1743.46 1964.88C1743.46 1949.42 1732.25 1943.14 1719.13 1950.87L1312.38 2185.69C1305.34 2190.31 1299.48 2196.52 1295.27 2203.82C1291.07 2211.12 1288.63 2219.31 1288.17 2227.72V2252.16L1743.46 1989.21V1964.88Z" fill="#BA68C8"/>
<path d="M1333.23 2278.38L1515.37 2173.25V2357.29L1333.23 2462.43V2278.38Z" fill="#FAFAFA"/>
<path d="M1333.34 2435.75L1401.6 2314.48C1402.14 2313.25 1402.99 2312.19 1404.06 2311.4C1405.14 2310.61 1406.41 2310.11 1407.74 2309.97C1409.07 2309.82 1410.41 2310.02 1411.63 2310.56C1412.86 2311.09 1413.92 2311.94 1414.71 2313.02L1438.59 2339.13L1479.72 2244.2C1482.19 2238.48 1487.01 2238.03 1490.93 2243.08L1515.81 2278.38V2356.84L1333.68 2461.98L1333.34 2435.75Z" fill="#BA68C8"/>
<path d="M1560.98 2162.83C1560.98 2171.57 1567.48 2174.93 1575.55 2170.34L1682.93 2108.24C1687.1 2105.65 1690.6 2102.1 1693.13 2097.89C1695.66 2093.68 1697.16 2088.93 1697.5 2084.03C1697.5 2075.18 1691 2071.93 1683.04 2076.52L1575.33 2138.62C1571.2 2141.24 1567.75 2144.79 1565.26 2149C1562.76 2153.21 1561.3 2157.95 1560.98 2162.83V2162.83Z" fill="#FAFAFA"/>
<path d="M1560.98 2238.48C1560.98 2247.34 1567.48 2250.59 1575.55 2245.99L1682.93 2183.9C1687.1 2181.3 1690.6 2177.75 1693.13 2173.55C1695.66 2169.34 1697.16 2164.59 1697.5 2159.69C1697.5 2150.94 1691 2147.58 1683.04 2152.18L1575.33 2214.27C1571.2 2216.89 1567.75 2220.45 1565.26 2224.66C1562.76 2228.87 1561.3 2233.6 1560.98 2238.48Z" fill="#FAFAFA"/>
<path d="M1560.98 2314.25C1560.98 2322.99 1567.48 2326.36 1575.55 2321.65L1682.93 2259.67C1687.09 2257.03 1690.58 2253.46 1693.11 2249.24C1695.64 2245.01 1697.14 2240.26 1697.5 2235.34C1697.5 2226.6 1691 2223.24 1683.04 2227.95L1575.33 2289.93C1571.21 2292.59 1567.77 2296.17 1565.28 2300.39C1562.79 2304.61 1561.32 2309.36 1560.98 2314.25V2314.25Z" fill="#FAFAFA"/>
<path d="M2019.3 1753.38L3269.82 1031.45C3283.16 1023.71 3294.03 1029.99 3294.03 1045.46V1410.07C3293.57 1418.48 3291.14 1426.67 3286.93 1433.97C3282.73 1441.27 3276.87 1447.48 3269.82 1452.1L2019.3 2174.03C2005.85 2181.77 1994.97 2175.49 1994.97 2160.02V1795.41C1995.43 1786.99 1997.87 1778.79 2002.1 1771.48C2006.33 1764.18 2012.22 1757.98 2019.3 1753.38V1753.38Z" fill="#E0E0E0"/>
<path d="M3294.03 1045.12C3294.03 1029.65 3282.82 1023.38 3269.82 1031.11L2019.3 1753.38C2012.22 1757.98 2006.33 1764.18 2002.1 1771.48C1997.87 1778.79 1995.43 1786.99 1994.97 1795.41V1819.74L3294.03 1069.78V1045.12Z" fill="#BA68C8"/>
<path d="M2303.88 1677.61L2051.24 1823.32C2045.61 1827.03 2040.93 1832 2037.56 1837.84C2034.2 1843.68 2032.24 1850.22 2031.85 1856.95V2106.67C2031.85 2119 2040.59 2124.04 2051.24 2117.88L2303.88 1972.17C2309.51 1968.47 2314.2 1963.5 2317.57 1957.66C2320.93 1951.82 2322.89 1945.28 2323.27 1938.55V1688.82C2322.82 1676.49 2314.08 1671.45 2303.88 1677.61Z" fill="#FAFAFA"/>
<path d="M2120.51 1896.96L2031.4 2087.51V2107.23C2031.4 2119.56 2040.14 2124.61 2050.79 2118.44L2303.43 1972.73C2309.06 1969.03 2313.75 1964.06 2317.12 1958.22C2320.49 1952.38 2322.44 1945.84 2322.82 1939.11V1852.13L2275.07 1762.46C2269.24 1751.25 2260.61 1751.81 2255.79 1763.25L2180.59 1939.78L2144.05 1894.27C2142.83 1892.04 2140.97 1890.21 2138.72 1889.04C2136.46 1887.87 2133.9 1887.39 2131.37 1887.68C2128.84 1887.97 2126.46 1889.01 2124.52 1890.66C2122.59 1892.32 2121.19 1894.51 2120.51 1896.96V1896.96Z" fill="#BA68C8"/>
<path d="M2060.66 1894.72C2073.35 1886.44 2083.91 1875.29 2091.49 1862.16C2099.06 1849.04 2103.44 1834.31 2104.26 1819.18C2104.57 1811.18 2102.25 1803.3 2097.64 1796.76L2050.79 1823.77C2045.16 1827.48 2040.48 1832.45 2037.11 1838.29C2033.75 1844.12 2031.79 1850.67 2031.4 1857.4V1898.98C2036.26 1900.69 2041.46 1901.19 2046.55 1900.45C2051.65 1899.71 2056.49 1897.74 2060.66 1894.72V1894.72Z" fill="#BA68C8"/>
<path d="M2436.92 1622.69L3217.7 1172C3228.91 1165.72 3237.09 1169.98 3237.09 1181.42C3236.58 1187.87 3234.55 1194.11 3231.19 1199.64C3227.82 1205.17 3223.2 1209.83 3217.7 1213.25L2436.92 1664.05C2425.71 1670.22 2417.53 1665.96 2417.53 1654.52C2418.05 1648.07 2420.07 1641.83 2423.44 1636.3C2426.81 1630.77 2431.42 1626.11 2436.92 1622.69V1622.69Z" fill="#FAFAFA"/>
<path d="M2436.92 1727.83L3217.7 1277.14C3228.91 1270.86 3237.09 1275.12 3237.09 1286.55C3236.58 1293 3234.55 1299.25 3231.19 1304.77C3227.82 1310.3 3223.2 1314.96 3217.7 1318.38L2436.92 1769.19C2425.71 1775.35 2417.53 1771.09 2417.53 1759.66C2418.06 1753.21 2420.08 1746.97 2423.45 1741.44C2426.82 1735.91 2431.43 1731.25 2436.92 1727.83V1727.83Z" fill="#FAFAFA"/>
<path d="M2436.92 1832.96L3217.7 1382.27C3228.91 1375.99 3237.09 1380.25 3237.09 1391.69C3236.57 1398.15 3234.54 1404.41 3231.18 1409.95C3227.81 1415.5 3223.2 1420.18 3217.7 1423.63L2436.92 1874.55C2425.71 1880.71 2417.53 1876.45 2417.53 1865.02C2418.02 1858.53 2420.03 1852.24 2423.4 1846.68C2426.77 1841.11 2431.4 1836.41 2436.92 1832.96V1832.96Z" fill="#FAFAFA"/>
<path d="M3714.35 600.259L3599.8 596.784C3592.06 590.284 3471.68 454.438 3471.68 454.438C3471.68 454.438 3428.42 522.697 3427.64 527.068C3426.85 531.439 3545.66 658.431 3557.43 671.208C3560.73 675.501 3564.97 678.978 3569.83 681.368C3574.69 683.759 3580.03 685 3585.45 684.995C3616.5 686.788 3732.73 694.97 3732.73 694.97L3714.35 600.259Z" fill="#F28F8F"/>
<path d="M3877.2 731.958L3700.56 718.844L3714.23 600.259L3896.6 604.294L3877.2 731.958Z" fill="#BA68C8"/>
<path opacity="0.2" d="M3877.2 731.958L3700.56 718.844L3714.23 600.259L3896.6 604.294L3877.2 731.958Z" fill="black"/>
<path d="M2246.94 1122.01L3497.46 400.076C3510.8 392.343 3521.67 398.619 3521.67 414.087V778.809C3521.2 787.22 3518.77 795.402 3514.56 802.702C3510.36 810.001 3504.5 816.213 3497.46 820.841L2246.94 1542.78C2233.49 1550.51 2222.62 1544.23 2222.62 1528.77V1164.04C2223.07 1155.62 2225.52 1147.42 2229.74 1140.11C2233.97 1132.81 2239.86 1126.61 2246.94 1122.01V1122.01Z" fill="#E0E0E0"/>
<path d="M3521.67 414.087C3521.67 398.619 3510.47 392.343 3497.46 400.076L2246.94 1122.01C2239.86 1126.61 2233.97 1132.81 2229.74 1140.11C2225.52 1147.42 2223.07 1155.62 2222.62 1164.04V1188.37L3521.67 438.409V414.087Z" fill="#BA68C8"/>
<path d="M2531.07 1046.35L2278.43 1192.06C2272.79 1195.75 2268.09 1200.72 2264.72 1206.56C2261.35 1212.4 2259.41 1218.96 2259.04 1225.69V1475.3C2259.04 1487.63 2267.79 1492.67 2278.43 1486.51L2531.07 1340.8C2536.72 1337.11 2541.42 1332.15 2544.79 1326.3C2548.15 1320.46 2550.1 1313.91 2550.46 1307.17V1057.56C2550.46 1045.12 2541.72 1040.19 2531.07 1046.35Z" fill="#FAFAFA"/>
<path d="M2348.71 1265.7L2259.04 1455.69V1475.41C2259.04 1487.74 2267.79 1492.79 2278.43 1486.62L2531.07 1340.91C2536.72 1337.22 2541.42 1332.26 2544.79 1326.42C2548.15 1320.57 2550.1 1314.02 2550.46 1307.29V1221.09L2502.72 1131.43C2496.89 1120.22 2488.26 1120.89 2483.44 1132.21L2408.23 1309.08L2371.69 1263.46C2370.42 1261.43 2368.6 1259.79 2366.45 1258.73C2364.3 1257.67 2361.89 1257.23 2359.51 1257.46C2357.12 1257.7 2354.84 1258.59 2352.94 1260.05C2351.03 1261.5 2349.57 1263.46 2348.71 1265.7V1265.7Z" fill="#BA68C8"/>
<path d="M2288.3 1263.46C2300.99 1255.15 2311.55 1243.98 2319.12 1230.83C2326.7 1217.69 2331.07 1202.95 2331.9 1187.8C2332.2 1179.81 2329.88 1171.94 2325.29 1165.39L2278.43 1192.51C2272.79 1196.2 2268.09 1201.17 2264.72 1207.01C2261.35 1212.85 2259.41 1219.4 2259.04 1226.14V1267.61C2263.89 1269.33 2269.09 1269.86 2274.18 1269.13C2279.28 1268.41 2284.12 1266.47 2288.3 1263.46Z" fill="#BA68C8"/>
<path d="M2664.57 991.321L3445.34 540.742C3456.55 534.578 3464.73 538.725 3464.73 550.157C3464.22 556.626 3462.2 562.883 3458.83 568.43C3455.46 573.977 3450.84 578.659 3445.34 582.101L2664.57 1032.79C2653.92 1038.96 2645.17 1034.81 2645.17 1023.38C2645.68 1016.89 2647.7 1010.61 2651.07 1005.05C2654.43 999.483 2659.06 994.781 2664.57 991.321Z" fill="#FAFAFA"/>
<path d="M2664.57 1096.46L3445.34 645.765C3456.55 639.6 3464.73 643.86 3464.73 655.18C3464.22 661.649 3462.2 667.906 3458.83 673.453C3455.46 679 3450.84 683.682 3445.34 687.124L2664.57 1137.82C2653.92 1144.09 2645.17 1139.83 2645.17 1128.4C2645.7 1121.93 2647.72 1115.68 2651.09 1110.13C2654.46 1104.59 2659.07 1099.91 2664.57 1096.46V1096.46Z" fill="#FAFAFA"/>
<path d="M2664.57 1202.04L3445.34 751.349C3456.55 745.184 3464.73 749.443 3464.73 760.764C3464.22 767.232 3462.2 773.49 3458.83 779.037C3455.46 784.583 3450.84 789.265 3445.34 792.708L2664.57 1243.4C2653.92 1249.68 2645.17 1245.42 2645.17 1233.98C2645.7 1227.52 2647.72 1221.26 2651.09 1215.72C2654.46 1210.17 2659.07 1205.49 2664.57 1202.04V1202.04Z" fill="#FAFAFA"/>
<path d="M4102.72 1985.73H4036.59V2082.13H4102.72V1985.73Z" fill="#FFA8A7"/>
<path d="M3870.13 1866.2L3804.04 1868.48L3807.36 1964.81L3873.45 1962.54L3870.13 1866.2Z" fill="#FFA8A7"/>
<path d="M4098.46 1045.12C4098.46 1108.34 4106.64 1517.11 4106.64 1517.11C4108.21 1535.27 4125.25 1568.78 4121.55 1638.72C4116.62 1733.54 4108.32 1997.39 4108.32 1997.39C4108.32 1997.39 4077.39 2028.21 4033.56 1997.39C4033.56 1997.39 3973.6 1639.28 3961.72 1545.35C3951.4 1463.31 3933.81 1240.37 3933.81 1240.37L3873.06 1502.2C3873.06 1502.2 3884.27 1563.85 3886.28 1607.45C3888.3 1651.05 3875.08 1902.34 3875.08 1902.34C3864.38 1909.07 3852.1 1912.87 3839.47 1913.36C3826.84 1913.85 3814.31 1911.02 3803.12 1905.14C3803.12 1905.14 3749.77 1538.29 3742.48 1498.39C3735.19 1458.49 3788.99 1045.12 3788.99 1045.12H4098.46Z" fill="#455A64"/>
<path d="M3998.93 607.209H3999.83C4028.14 614.453 4053.23 630.949 4071.1 654.079C4088.97 677.208 4098.6 705.645 4098.46 734.873V1045.12C4052.06 1095.56 3890.32 1119.1 3788.99 1045.12V722.319C3788.99 670.76 3817.58 608.778 3896.71 604.182L3998.93 607.209Z" fill="#BA68C8"/>
<path d="M4021.12 343.362C4026.46 342.74 4031.87 343.346 4036.94 345.133C4042.01 346.92 4046.61 349.841 4050.38 353.674C4062.93 366.451 4060.24 390.213 4050.38 444.686L4011.59 449.17L4021.12 343.362Z" fill="#263238"/>
<path d="M3795.38 327.782C3787.02 327.817 3778.75 326.138 3771.06 322.851C3759.18 316.013 3756.15 329.464 3762.65 341.232C3766.94 349.64 3773.32 356.807 3781.17 362.047C3789.02 367.287 3798.08 370.424 3807.49 371.159C3807.49 369.478 3818.7 340.896 3818.7 340.896L3795.38 327.782Z" fill="#263238"/>
<path d="M4002.96 449.169C4008.79 452.644 4016.97 441.548 4024.04 434.15C4026.83 430.971 4030.39 428.556 4034.38 427.13C4038.37 425.704 4042.65 425.314 4046.83 425.997C4051.01 426.681 4054.95 428.415 4058.27 431.037C4061.6 433.659 4064.2 437.083 4065.84 440.987C4077.61 465.758 4050.94 498.711 4035.24 509.583C4030.85 513.397 4025.36 515.722 4019.56 516.226C4013.76 516.729 4007.95 515.385 4002.96 512.385L3998.93 607.208C3991.99 622.418 3981.39 635.666 3968.06 645.761C3954.74 655.857 3939.12 662.483 3922.6 665.044C3866.56 672.665 3878.44 626.711 3896.71 604.182V569.772C3882.79 572.732 3868.49 573.451 3854.34 571.902C3847.05 569.996 3829.79 549.485 3818.59 525.611C3806.03 499.271 3784.96 452.532 3803.68 373.513C3823.74 288.665 3914.87 286.087 3969.23 320.273C4023.59 354.458 4002.96 449.169 4002.96 449.169Z" fill="#FFA8A7"/>
<path d="M4002.96 458.921C4005.88 458.921 4016.86 440.651 4024.04 434.15C4034.01 425.184 4021.12 343.362 4021.12 343.362C4021.12 343.362 4031.21 312.427 4011.59 291.803C3991.98 271.18 3953.98 274.766 3926.19 273.758C3892.07 273.964 3858.27 267.174 3826.88 253.807C3787.54 236.658 3784.51 234.64 3779.69 252.013C3774.87 269.386 3772.85 308.952 3796.5 335.628L3816.01 342.802C3816.01 342.802 3826.66 352.217 3863.42 356.7C3897.37 359.261 3931.48 358.586 3965.3 354.683C3975.95 353.225 3978.3 363.649 3984.02 391.895C3989.07 416.665 3993.32 458.697 4002.96 458.921Z" fill="#263238"/>
<path d="M4021.12 350.199L4055.87 331.593C4054.76 329.246 4053.19 327.148 4051.25 325.427C4049.3 323.706 4047.03 322.397 4044.57 321.579C4042.11 320.762 4039.5 320.453 4036.92 320.671C4034.33 320.89 4031.82 321.631 4029.53 322.851C4024.88 325.457 4021.42 329.751 4019.85 334.843C4018.29 339.935 4018.74 345.433 4021.12 350.199V350.199Z" fill="#263238"/>
<path d="M3896.82 569.772C3920.58 565.237 3943.87 558.56 3966.42 549.821C3976.97 544.234 3985.62 535.655 3991.31 525.163C3988.59 535.687 3983.79 545.559 3977.18 554.192C3963.96 571.005 3896.82 583.446 3896.82 583.446V569.772Z" fill="#F28F8F"/>
<path d="M3909.15 436.28C3909.3 438.306 3910.04 440.243 3911.28 441.853C3912.52 443.463 3914.2 444.676 3916.12 445.342C3918.04 446.008 3920.12 446.099 3922.09 445.604C3924.06 445.108 3925.84 444.048 3927.21 442.552C3928.59 441.057 3929.5 439.193 3929.83 437.188C3930.16 435.183 3929.9 433.126 3929.07 431.268C3928.25 429.411 3926.9 427.835 3925.19 426.734C3923.48 425.633 3921.49 425.055 3919.46 425.071C3918.04 425.114 3916.65 425.44 3915.36 426.03C3914.07 426.619 3912.91 427.461 3911.95 428.505C3910.98 429.549 3910.24 430.775 3909.76 432.11C3909.28 433.445 3909.07 434.863 3909.15 436.28Z" fill="#263238"/>
<path d="M3920.13 397.274L3942.55 409.492C3944.13 406.461 3944.48 402.935 3943.52 399.654C3942.56 396.374 3940.36 393.593 3937.39 391.894C3935.93 391.033 3934.29 390.487 3932.6 390.293C3930.91 390.099 3929.2 390.26 3927.57 390.767C3925.95 391.273 3924.45 392.114 3923.17 393.234C3921.88 394.355 3920.85 395.731 3920.13 397.274Z" fill="#263238"/>
<path d="M3909.93 506.332L3886.4 515.187C3886.9 516.778 3887.72 518.25 3888.81 519.514C3889.9 520.778 3891.23 521.808 3892.73 522.541C3894.23 523.275 3895.86 523.697 3897.53 523.781C3899.19 523.866 3900.86 523.611 3902.42 523.033C3905.59 521.756 3908.14 519.305 3909.54 516.192C3910.94 513.08 3911.08 509.547 3909.93 506.332V506.332Z" fill="#F28F8F"/>
<path d="M3817.02 406.241L3837.19 390.661C3836.24 389.304 3835.03 388.153 3833.63 387.278C3832.23 386.403 3830.66 385.822 3829.02 385.571C3827.39 385.319 3825.72 385.402 3824.12 385.815C3822.52 386.227 3821.02 386.961 3819.71 387.971C3817.01 390.098 3815.23 393.175 3814.73 396.572C3814.23 399.968 3815.05 403.428 3817.02 406.241V406.241Z" fill="#263238"/>
<path d="M3823.29 433.366C3823.17 434.793 3823.34 436.231 3823.8 437.588C3824.27 438.944 3825.01 440.189 3825.98 441.244C3826.95 442.299 3828.13 443.139 3829.44 443.713C3830.75 444.286 3832.17 444.579 3833.6 444.574C3835.85 444.754 3838.1 444.253 3840.06 443.136C3842.01 442.019 3843.59 440.338 3844.58 438.313C3845.56 436.287 3845.92 434.011 3845.59 431.781C3845.27 429.551 3844.28 427.471 3842.75 425.813C3841.22 424.154 3839.23 422.994 3837.04 422.484C3834.84 421.974 3832.55 422.137 3830.44 422.953C3828.34 423.768 3826.54 425.198 3825.26 427.056C3823.99 428.913 3823.3 431.112 3823.29 433.366V433.366Z" fill="#263238"/>
<path d="M3875.86 423.614L3872.5 485.709L3839.99 474.725L3875.86 423.614Z" fill="#F28F8F"/>
<path d="M4036.7 2049.4V2039.98C4030.31 2042.67 4015.63 2098.83 3989.4 2122.81C3968.44 2141.87 3939.97 2163.83 3932.8 2185.02C3925.62 2206.2 3972.48 2219.32 3991.98 2215.84C4014.4 2211.81 4053.85 2195.89 4063.71 2181.1C4073.58 2166.3 4078.17 2144.44 4086.13 2133.68C4094.09 2122.92 4112.58 2110.71 4116.95 2098.15C4118.25 2086.43 4116.95 2074.57 4113.14 2063.41C4110.12 2052.2 4106.75 2038.86 4102.72 2039.98V2047.15C4093.33 2054.61 4081.64 2058.57 4069.65 2058.36C4060.13 2058.7 4036.59 2056.79 4036.7 2049.4Z" fill="#263238"/>
<path d="M3806.59 1944.6C3803.12 1944.6 3800.32 1949.53 3792.69 1957.82C3781.39 1969.27 3768.24 1978.74 3753.8 1985.84C3729.03 1998.17 3680.83 2017.23 3659.09 2027.09C3645.41 2033.26 3646.09 2049.51 3660.1 2059.04C3674.11 2068.56 3708.18 2075.18 3749.09 2065.98C3771.51 2061.05 3800.2 2040.54 3818.59 2041.66C3836.97 2042.78 3871.15 2042.45 3884.71 2033.14C3898.28 2023.84 3892.78 2003.89 3888.97 1986.85C3884.83 1968.14 3878.77 1939.55 3872.61 1940.9V1946.73C3864.65 1958.72 3824.19 1963.65 3806.7 1954.8L3806.59 1944.6Z" fill="#263238"/>
<path d="M4018.77 650.249L3814.33 861.64C3814.33 861.64 3634.99 829.584 3573.79 811.986C3554.51 806.494 3541.06 777.689 3536.8 755.944C3535.71 744.622 3530.19 734.189 3521.45 726.914C3521.45 726.914 3521.45 742.718 3517.41 768.61C3515.85 779.818 3498.14 781.275 3482.33 784.75C3426.29 796.855 3407.24 784.75 3384.03 800.89C3366.1 813.668 3388.63 846.845 3429.54 858.053C3487.04 873.857 3519.21 866.011 3553.73 874.641C3580.74 881.366 3775.1 941.892 3812.08 950.41C3831.59 954.67 3846.49 953.325 3868.13 932.365C3889.76 911.405 4050.71 770.627 4050.71 770.627L4018.77 650.249Z" fill="#FFA8A7"/>
<path d="M4027.85 642.963C4005.43 637.247 3868.69 799.881 3868.69 799.881L3944.01 863.097C3944.01 863.097 4041.52 799.209 4058.78 773.429C4076.04 747.65 4095.66 659.888 4027.85 642.963Z" fill="#BA68C8"/>
<path d="M3948.94 867.356C3948.94 867.356 4051.83 775.223 4056.65 765.135C4065.95 745.744 4063.38 709.877 4063.38 709.877C4063.38 709.877 4074.59 741.037 4063.38 765.135C4052.17 789.233 3973.71 857.717 3961.27 869.486L3948.6 881.366L3936.39 870.158L3943.67 863.769L3948.94 867.356Z" fill="#BA68C8"/>
<path opacity="0.2" d="M3948.94 867.356C3948.94 867.356 4051.83 775.223 4056.65 765.135C4065.95 745.744 4063.38 709.877 4063.38 709.877C4063.38 709.877 4074.59 741.037 4063.38 765.135C4052.17 789.233 3973.71 857.717 3961.27 869.486L3948.6 881.366L3936.39 870.158L3943.67 863.769L3948.94 867.356Z" fill="black"/>
<path d="M3432.01 411.173C3454.42 408.707 3469.33 392.119 3474.37 396.714C3476.42 398.891 3477.61 401.731 3477.73 404.715C3477.86 407.699 3476.9 410.628 3475.05 412.966C3464.7 420.824 3453.4 427.34 3441.42 432.357C3438.61 443.749 3436.59 455.321 3435.37 466.991C3433.46 484.14 3434.14 518.438 3419.45 530.094C3375.63 565.289 3364.42 509.471 3366.1 472.035C3368.68 425.52 3408.58 413.751 3432.01 411.173Z" fill="#F28F8F"/>
</svg>
