<svg width="700" height="808" viewBox="0 0 700 808" fill="none" xmlns="http://www.w3.org/2000/svg">
<g filter="url(#filter0_b)">
<path d="M287.007 669.42L182.443 802.566L0 630.867L104.565 497.721L287.007 669.42Z" fill="#006F53"/>
<path d="M473.773 631.702L471.445 807.269L182.76 802.68L185.089 627.114L473.773 631.702Z" fill="#006F53"/>
<path d="M432.654 586.367L555.138 699.735L472.289 807L349.805 693.633L432.654 586.367Z" fill="#006F53"/>
<path d="M153.68 131.82L643.616 585.289L540.055 719.371L50.1185 265.902L153.68 131.82Z" fill="#006F53"/>
<path d="M511.154 45.5885L508.825 221.155L220.141 216.567L222.469 41L511.154 45.5885Z" fill="#006F53"/>
<path d="M223.999 42.2232L346.483 155.591L263.634 262.856L141.15 149.489L223.999 42.2232Z" fill="#006F53"/>
<path d="M700 207.644L601.086 345.867L411.686 183.446L510.6 45.2232L700 207.644Z" fill="#006F53"/>
<path d="M287.007 650.42L182.443 783.566L0 611.867L104.565 478.721L287.007 650.42Z" fill="#009570"/>
<path d="M473.773 612.702L471.445 788.269L182.76 783.68L185.089 608.114L473.773 612.702Z" fill="#009570"/>
<path d="M432.654 567.367L555.138 680.735L472.289 788L349.805 674.633L432.654 567.367Z" fill="#009570"/>
<path d="M153.68 112.82L643.616 566.289L540.055 700.371L50.1185 246.902L153.68 112.82Z" fill="#009570"/>
<path d="M511.154 26.5885L508.825 202.155L220.141 197.567L222.469 22L511.154 26.5885Z" fill="#009570"/>
<path d="M223.999 23.2232L346.483 136.591L263.634 243.856L141.15 130.489L223.999 23.2232Z" fill="#009570"/>
<path d="M700 188.644L601.086 326.867L411.686 164.446L510.6 26.2232L700 188.644Z" fill="#009570"/>
<g style="mix-blend-mode:overlay">
<path d="M287.007 628.42L182.443 761.566L0 589.867L104.565 456.721L287.007 628.42Z" fill="#00D39F"/>
<path d="M473.773 590.702L471.445 766.269L182.76 761.68L185.089 586.114L473.773 590.702Z" fill="#00D39F"/>
<path d="M432.654 545.367L555.138 658.735L472.289 766L349.805 652.633L432.654 545.367Z" fill="#00D39F"/>
<path d="M153.68 90.8195L643.616 544.289L540.055 678.371L50.1185 224.902L153.68 90.8195Z" fill="#00D39F"/>
<path d="M511.154 4.58846L508.825 180.155L220.141 175.567L222.469 0L511.154 4.58846Z" fill="#00D39F"/>
<path d="M223.999 1.22316L346.483 114.591L263.634 221.856L141.15 108.489L223.999 1.22316Z" fill="#00D39F"/>
<path d="M700 166.644L601.086 304.867L411.686 142.446L510.6 4.22323L700 166.644Z" fill="#00D39F"/>
</g>
</g>
<defs>
<filter id="filter0_b" x="-4" y="-4" width="708" height="815.269" filterUnits="userSpaceOnUse" color-interpolation-filters="sRGB">
<feFlood flood-opacity="0" result="BackgroundImageFix"/>
<feGaussianBlur in="BackgroundImage" stdDeviation="2"/>
<feComposite in2="SourceAlpha" operator="in" result="effect1_backgroundBlur"/>
<feBlend mode="normal" in="SourceGraphic" in2="effect1_backgroundBlur" result="shape"/>
</filter>
</defs>
</svg>
